<?xml version="1.0" encoding="UTF-8" standalone="no"?>
<!-- Created with Inkscape (http://www.inkscape.org/) -->

<svg
   xmlns:dc="http://purl.org/dc/elements/1.1/"
   xmlns:cc="http://creativecommons.org/ns#"
   xmlns:rdf="http://www.w3.org/1999/02/22-rdf-syntax-ns#"
   xmlns:svg="http://www.w3.org/2000/svg"
   xmlns="http://www.w3.org/2000/svg"
   xmlns:sodipodi="http://sodipodi.sourceforge.net/DTD/sodipodi-0.dtd"
   xmlns:inkscape="http://www.inkscape.org/namespaces/inkscape"
   width="335.2023"
   height="128.87865"
   id="svg3676"
   version="1.1"
   inkscape:version="0.48.4 r9939"
   sodipodi:docname="New document 7">
  <defs
     id="defs3678">
    <clipPath
       clipPathUnits="userSpaceOnUse"
       id="clipPath280">
      <path
         inkscape:connector-curvature="0"
         d="m 753.0678,543.7259 c 0.116,0.3543 0.3045,0.9708 0.5519,1.6472 0.2475,0.6763 0.5531,1.4119 0.8862,2.0727 0.3327,0.661 0.6927,1.2472 1.1298,1.8535 0.4372,0.6064 0.9522,1.2323 1.5517,1.7626 0.5998,0.5304 1.2847,0.9649 1.8735,1.2595 0.5884,0.2945 1.0811,0.4481 1.608,0.5176 0.5273,0.0694 1.0891,0.0547 1.6575,-0.1052 0.5686,-0.1599 1.1435,-0.4655 1.5664,-0.8048 0.4229,-0.3396 0.6939,-0.7129 0.8903,-1.114 0.1968,-0.4002 0.3184,-0.8285 0.3952,-1.3277 0.076,-0.4995 0.1066,-1.0701 0.0831,-1.6651 -0.0241,-0.595 -0.1027,-1.2135 -0.2674,-1.885 -0.1646,-0.6713 -0.4155,-1.3955 -0.6882,-2.0597 -0.2727,-0.6644 -0.5669,-1.2688 -0.8192,-1.7697 -0.252,-0.5008 -0.4618,-0.8974 -0.5783,-1.1216 -0.1168,-0.2237 -0.1406,-0.2744 -0.1165,-0.3288 0.0241,-0.055 0.0958,-0.1129 0.3093,-0.2248 0.2137,-0.1123 0.5692,-0.2781 0.9737,-0.5777 0.4045,-0.2997 0.8572,-0.7339 1.1769,-1.2291 0.3192,-0.495 0.5049,-1.0514 0.5658,-1.5687 0.0612,-0.5165 -0.002,-0.9939 -0.1196,-1.4154 -0.1174,-0.4215 -0.2877,-0.7871 -0.5579,-1.1435 -0.2704,-0.356 -0.6403,-0.7032 -1.0732,-0.9963 -0.4322,-0.2929 -0.9272,-0.5321 -1.4663,-0.7076 -0.5392,-0.1749 -1.1228,-0.286 -1.6881,-0.3444 -0.5652,-0.0578 -1.1114,-0.0626 -1.5607,-0.1253 -0.4496,-0.062 -0.8025,-0.1822 -1.0919,-0.3381 -0.2889,-0.1557 -0.5142,-0.3473 -0.6735,-0.5701 -0.1596,-0.2222 -0.2529,-0.4754 -0.2727,-0.7568 -0.0202,-0.2812 0.0334,-0.5908 0.0629,-0.9261 0.0292,-0.3348 0.034,-0.6959 -0.0513,-1.0644 -0.085,-0.3685 -0.2605,-0.7441 -0.661,-1.2994 -0.4014,-0.5548 -1.0285,-1.2889 -1.6158,-1.8063 -0.5876,-0.5176 -1.1358,-0.8183 -1.6172,-1.002 -0.4813,-0.1837 -0.896,-0.2497 -1.2789,-0.2634 -0.3833,-0.0124 -0.7354,0.0278 -1.0463,0.1174 -0.3107,0.0893 -0.5806,0.2271 -0.8518,0.4277 -0.271,0.2007 -0.5437,0.4638 -0.7711,0.7986 -0.2276,0.335 -0.409,0.7409 -0.5473,1.1335 -0.1389,0.3924 -0.2344,0.7708 -0.307,1.1325 -0.0726,0.3614 -0.1222,0.7058 -0.142,0.9938 -0.0207,0.288 -0.0122,0.5188 -0.0185,0.6636 -0.006,0.1454 -0.0283,0.2049 -0.064,0.2341 -0.036,0.0292 -0.0862,0.0278 -0.3393,-0.0643 -0.2532,-0.0921 -0.7095,-0.275 -1.2252,-0.3994 -0.5156,-0.1242 -1.0904,-0.1908 -1.652,-0.1882 -0.5615,0.002 -1.11,0.0725 -1.6104,0.2194 -0.5005,0.1471 -0.953,0.3699 -1.4351,0.6752 -0.4822,0.3053 -0.9939,0.6925 -1.3842,1.1151 -0.39,0.4233 -0.6585,0.8827 -0.8345,1.3539 -0.1758,0.4717 -0.2591,0.9555 -0.2832,1.3813 -0.0241,0.4252 0.0108,0.7928 0.1276,1.1894 0.117,0.3969 0.316,0.8235 0.5386,1.2206 0.2222,0.3971 0.468,0.7651 0.7698,1.0942 0.3019,0.3291 0.6599,0.6193 1.0537,0.8937 0.3934,0.2742 0.8226,0.5315 1.2878,0.7594 0.4651,0.2285 0.966,0.4278 1.4278,0.5959 0.462,0.1681 0.8841,0.305 1.332,0.4425 0.4473,0.1377 0.9195,0.2758 1.4105,0.3869 0.4909,0.1111 1.0001,0.1956 1.3776,0.2358 0.3779,0.0406 0.6234,0.0369 0.813,0.0723 0.1899,0.0355 0.3229,0.1092 0.398,0.216 0.0748,0.1077 0.0907,0.2486 0.216,0.4374 0.125,0.1894 0.3594,0.4261 0.6242,0.6491 0.2647,0.2229 0.5598,0.4315 0.7787,0.5829 0.2191,0.1516 0.3619,0.2454 0.5278,0.3228 0.1658,0.0771 0.3546,0.1378 0.4705,0.2135 0.1157,0.0757 0.1582,0.1672 0.2738,0.5213"
         clip-rule="evenodd"
         id="path282" />
    </clipPath>
    <linearGradient
       x1="0.15000001"
       y1="0"
       x2="0.85000002"
       y2="0"
       gradientUnits="userSpaceOnUse"
       gradientTransform="matrix(-22.05189,31.49336,-31.01573,-21.71745,779.271,533.6991)"
       spreadMethod="pad"
       id="linearGradient286">
      <stop
         style="stop-opacity:1;stop-color:#ceafd8"
         offset="0"
         id="stop288" />
      <stop
         style="stop-opacity:1;stop-color:#ebe5f3"
         offset="1"
         id="stop290" />
    </linearGradient>
    <clipPath
       clipPathUnits="userSpaceOnUse"
       id="clipPath262">
      <path
         inkscape:connector-curvature="0"
         d="m 779.9919,533.1572 c 0.235,0.4402 0.6273,1.2098 1.1109,2.0443 0.4836,0.8345 1.0581,1.7342 1.6512,2.5285 0.593,0.7946 1.2044,1.4842 1.9221,2.1821 0.7175,0.6982 1.5421,1.404 2.4565,1.9644 0.9145,0.5599 1.9197,0.974 2.7644,1.2255 0.845,0.2514 1.5304,0.3398 2.2419,0.3089 0.7115,-0.0309 1.4494,-0.1811 2.162,-0.5244 0.7129,-0.343 1.4006,-0.8799 1.8794,-1.4258 0.479,-0.5462 0.7497,-1.1021 0.9153,-1.6767 0.1661,-0.574 0.2276,-1.1673 0.2123,-1.8437 -0.0159,-0.6763 -0.108,-1.4363 -0.2778,-2.2158 -0.1698,-0.779 -0.4173,-1.5769 -0.7909,-2.4245 -0.3736,-0.8472 -0.8725,-1.7441 -1.387,-2.5571 -0.5145,-0.813 -1.0434,-1.5418 -1.4924,-2.1441 -0.4487,-0.6021 -0.8181,-1.0763 -1.0239,-1.3448 -0.2064,-0.2681 -0.2492,-0.3297 -0.2302,-0.407 0.019,-0.0777 0.1001,-0.1713 0.3561,-0.3683 0.2556,-0.1975 0.6862,-0.4989 1.1497,-0.9887 0.4637,-0.4892 0.9601,-1.1673 1.2668,-1.8949 0.3061,-0.7274 0.4215,-1.5047 0.3818,-2.2011 -0.0397,-0.696 -0.2347,-1.3105 -0.4872,-1.8394 -0.2529,-0.5287 -0.5627,-0.9718 -1.0021,-1.3788 -0.4397,-0.4071 -1.0083,-0.7787 -1.6472,-1.0647 -0.6387,-0.2857 -1.347,-0.4862 -2.0988,-0.5922 -0.7523,-0.1057 -1.5483,-0.1162 -2.3071,-0.0618 -0.7591,0.055 -1.4808,0.1761 -2.0886,0.1979 -0.6077,0.0224 -1.1009,-0.0539 -1.5185,-0.1922 -0.4175,-0.1383 -0.7594,-0.3387 -1.0213,-0.5953 -0.2622,-0.2562 -0.4442,-0.5689 -0.536,-0.9354 -0.0916,-0.3662 -0.0927,-0.7869 -0.1321,-1.2362 -0.0394,-0.4487 -0.1174,-0.9261 -0.315,-1.3921 -0.1987,-0.4663 -0.517,-0.9212 -1.1749,-1.5602 -0.6582,-0.6389 -1.656,-1.4612 -2.5518,-2.0072 -0.8954,-0.5462 -1.6883,-0.8155 -2.3663,-0.9456 -0.6778,-0.1307 -1.2399,-0.1214 -1.7484,-0.0496 -0.5083,0.0722 -0.9638,0.2075 -1.3527,0.3977 -0.3892,0.1899 -0.7132,0.4348 -1.0245,0.7622 -0.3109,0.3283 -0.6094,0.7387 -0.8311,1.2334 -0.2225,0.4946 -0.3674,1.0726 -0.4586,1.6222 -0.0919,0.5499 -0.1302,1.0715 -0.1415,1.5653 -0.0116,0.4941 0.003,0.9601 0.0434,1.3442 0.0399,0.3844 0.1049,0.6868 0.1304,0.8799 0.0249,0.1933 0.0105,0.2769 -0.0301,0.3237 -0.0405,0.0468 -0.1074,0.0564 -0.4629,-0.006 -0.3554,-0.0624 -0.9998,-0.1976 -1.709,-0.2418 -0.7092,-0.044 -1.4825,0.002 -2.2232,0.1357 -0.7401,0.1338 -1.4476,0.3544 -2.0735,0.6645 -0.6259,0.3104 -1.1707,0.7098 -1.7357,1.2246 -0.5652,0.515 -1.1506,1.1446 -1.5667,1.7929 -0.4161,0.6494 -0.6633,1.3178 -0.786,1.9802 -0.1222,0.6634 -0.1194,1.321 -0.0522,1.8876 0.0666,0.5673 0.1984,1.0435 0.445,1.5398 0.2467,0.4964 0.6086,1.0128 0.9944,1.4848 0.3855,0.4723 0.7951,0.9006 1.27,1.2645 0.475,0.3643 1.0148,0.6636 1.5978,0.9338 0.5831,0.2701 1.209,0.5096 1.8757,0.703 0.6667,0.1927 1.3737,0.339 2.0223,0.4532 0.648,0.1143 1.2373,0.197 1.8601,0.2744 0.6219,0.0774 1.2772,0.1497 1.9508,0.182 0.6735,0.0323 1.3648,0.0252 1.8722,-0.009 0.5074,-0.0345 0.8309,-0.096 1.0894,-0.0938 0.2582,0.003 0.4513,0.0689 0.5749,0.1931 0.1236,0.1244 0.1777,0.3061 0.3869,0.5264 0.2089,0.2202 0.5732,0.4784 0.9745,0.7106 0.4006,0.2327 0.8385,0.4391 1.1625,0.5882 0.3243,0.1488 0.5344,0.2395 0.7713,0.3027 0.237,0.0635 0.4998,0.0992 0.6702,0.1724 0.1706,0.0731 0.248,0.1837 0.483,0.6242"
         clip-rule="evenodd"
         id="path264" />
    </clipPath>
    <linearGradient
       x1="0.15000001"
       y1="0"
       x2="0.85000002"
       y2="0"
       gradientUnits="userSpaceOnUse"
       gradientTransform="matrix(-29.07978,41.53023,-41.85973,-29.3105,814.0969,519.4426)"
       spreadMethod="pad"
       id="linearGradient268">
      <stop
         style="stop-opacity:1;stop-color:#b68cc7"
         offset="0"
         id="stop270" />
      <stop
         style="stop-opacity:1;stop-color:#dac8e5"
         offset="1"
         id="stop272" />
    </linearGradient>
    <clipPath
       clipPathUnits="userSpaceOnUse"
       id="clipPath244">
      <path
         inkscape:connector-curvature="0"
         d="m 801.3345,504.2563 c 0.4374,0.3282 1.1832,0.9107 2.0494,1.5151 0.8666,0.6046 1.853,1.2316 2.8095,1.7458 0.9566,0.5145 1.8827,0.9156 2.9182,1.2765 1.0355,0.3608 2.181,0.6797 3.348,0.8127 1.1673,0.1329 2.3565,0.0785 3.3117,-0.063 0.9556,-0.1414 1.6767,-0.371 2.3687,-0.731 0.6922,-0.3603 1.3549,-0.8507 1.9037,-1.5214 0.5485,-0.6707 0.9828,-1.5216 1.205,-2.2856 0.2231,-0.7639 0.2344,-1.4411 0.133,-2.0882 -0.1009,-0.6469 -0.3144,-1.264 -0.6429,-1.9287 -0.3286,-0.6639 -0.7722,-1.3757 -1.3011,-2.0707 -0.5295,-0.6951 -1.1447,-1.3726 -1.9077,-2.041 -0.7631,-0.6684 -1.6739,-1.3274 -2.5606,-1.8964 -0.8869,-0.5692 -1.7495,-1.0479 -2.4741,-1.4377 -0.7242,-0.3898 -1.3104,-0.6899 -1.6392,-0.8612 -0.3286,-0.1706 -0.3997,-0.2117 -0.4167,-0.2973 -0.017,-0.0859 0.0201,-0.2163 0.1828,-0.5307 0.1624,-0.3143 0.4501,-0.8129 0.6837,-1.5137 0.2339,-0.7004 0.413,-1.6032 0.3801,-2.4675 -0.0323,-0.8637 -0.278,-1.6889 -0.6394,-2.3618 -0.3617,-0.6724 -0.84,-1.1923 -1.3355,-1.6005 -0.4954,-0.4079 -1.0082,-0.7038 -1.6327,-0.9048 -0.6248,-0.2004 -1.3618,-0.3061 -2.128,-0.2945 -0.7667,0.0119 -1.5624,0.1411 -2.3578,0.3841 -0.796,0.2432 -1.5911,0.6012 -2.3191,1.0063 -0.7282,0.4062 -1.3886,0.8603 -1.9817,1.1633 -0.5927,0.3036 -1.1179,0.4564 -1.5967,0.5119 -0.4782,0.0562 -0.9105,0.0156 -1.2895,-0.1179 -0.3787,-0.1329 -0.7038,-0.3591 -0.9646,-0.6809 -0.2608,-0.3206 -0.4567,-0.7375 -0.7039,-1.1656 -0.2469,-0.4271 -0.5448,-0.8648 -0.9572,-1.2364 -0.4125,-0.3711 -0.9394,-0.675 -1.8885,-1.0046 -0.949,-0.3297 -2.3201,-0.6843 -3.4622,-0.8116 -1.1415,-0.1276 -2.0537,-0.0278 -2.7867,0.1565 -0.7334,0.1845 -1.2873,0.4535 -1.7587,0.7602 -0.4714,0.307 -0.8611,0.6523 -1.159,1.0214 -0.2982,0.3685 -0.5066,0.7616 -0.6639,1.231 -0.1568,0.4695 -0.2631,1.0151 -0.2543,1.6087 0.009,0.5941 0.1318,1.2351 0.2957,1.823 0.1635,0.5882 0.3668,1.1239 0.5842,1.6191 0.2171,0.4961 0.4476,0.9516 0.6653,1.3144 0.2177,0.3634 0.4226,0.6336 0.5366,0.813 0.1145,0.1806 0.1386,0.2702 0.1202,0.3356 -0.0187,0.0652 -0.0803,0.1058 -0.4621,0.2081 -0.3818,0.1023 -1.0842,0.2665 -1.8088,0.5511 -0.7242,0.2846 -1.4709,0.6885 -2.1438,1.1639 -0.6732,0.4756 -1.2736,1.0218 -1.751,1.6191 -0.4779,0.5981 -0.8339,1.2467 -1.1565,2.0194 -0.3229,0.7727 -0.6123,1.6688 -0.7251,2.5053 -0.1128,0.8373 -0.049,1.6149 0.1363,2.3298 0.1857,0.7146 0.4924,1.3663 0.8218,1.898 0.3291,0.5321 0.68,0.9443 1.1548,1.3224 0.4743,0.3784 1.0729,0.7237 1.6742,1.0137 0.6015,0.2905 1.2064,0.5261 1.8459,0.6675 0.6403,0.1418 1.3153,0.1891 2.0191,0.1874 0.7039,-0.002 1.436,-0.0536 2.1872,-0.1706 0.7512,-0.1174 1.5208,-0.2994 2.2173,-0.4862 0.6962,-0.1865 1.3195,-0.377 1.9735,-0.5885 0.6536,-0.2114 1.3374,-0.4427 2.0211,-0.7228 0.6834,-0.2795 1.3666,-0.6066 1.8544,-0.8759 0.4873,-0.2693 0.7804,-0.4799 1.0378,-0.5973 0.2576,-0.1167 0.4799,-0.1403 0.6602,-0.0745 0.1802,0.066 0.318,0.2217 0.6275,0.3438 0.3093,0.1216 0.7909,0.2092 1.2963,0.2543 0.5057,0.0454 1.0358,0.0479 1.4267,0.0454 0.3906,-0.002 0.6415,-0.009 0.9057,-0.0565 0.2644,-0.0464 0.5422,-0.1329 0.7452,-0.1388 0.2032,-0.007 0.3311,0.0674 0.7682,0.396"
         clip-rule="evenodd"
         id="path246" />
    </clipPath>
    <linearGradient
       x1="0.15000001"
       y1="0"
       x2="0.85000002"
       y2="0"
       gradientUnits="userSpaceOnUse"
       gradientTransform="matrix(-28.59836,40.84269,-44.17384,-30.93085,835.0597,490.2361)"
       spreadMethod="pad"
       id="linearGradient250">
      <stop
         style="stop-opacity:1;stop-color:#670387"
         offset="0"
         id="stop252" />
      <stop
         style="stop-opacity:1;stop-color:#e0cfe8"
         offset="1"
         id="stop254" />
    </linearGradient>
    <clipPath
       clipPathUnits="userSpaceOnUse"
       id="clipPath226">
      <path
         inkscape:connector-curvature="0"
         d="m 783.7557,477.6154 c 0.6905,0.0839 1.8825,0.2512 3.2216,0.3662 1.3391,0.1148 2.825,0.1781 4.2055,0.1361 1.3813,-0.0417 2.6572,-0.1885 4.0274,-0.4499 1.3703,-0.2613 2.8352,-0.638 4.2055,-1.2342 1.3703,-0.5958 2.6464,-1.4125 3.6082,-2.1758 0.9627,-0.7634 1.6115,-1.4749 2.1447,-2.3123 0.5335,-0.8367 0.9519,-1.7988 1.1296,-2.8868 0.1781,-1.0879 0.1151,-2.3017 -0.1258,-3.285 -0.2401,-0.9831 -0.6588,-1.7363 -1.1818,-2.3845 -0.5227,-0.6489 -1.1509,-1.1931 -1.9352,-1.7161 -0.7843,-0.5227 -1.7254,-1.0248 -2.751,-1.4542 -1.0253,-0.4286 -2.1337,-0.7838 -3.3999,-1.0349 -1.2654,-0.2512 -2.6884,-0.398 -4.0272,-0.4607 -1.3393,-0.0626 -2.594,-0.0413 -3.6402,-0.0102 -1.046,0.0315 -1.8828,0.0735 -2.3536,0.0939 -0.4709,0.0212 -0.5749,0.0212 -0.6483,-0.0624 -0.0734,-0.0839 -0.1151,-0.2512 -0.1361,-0.701 -0.0215,-0.4496 -0.0215,-1.1821 -0.2097,-2.1025 -0.188,-0.9204 -0.5647,-2.029 -1.1506,-2.9605 -0.5851,-0.9306 -1.3805,-1.6837 -2.2074,-2.1951 -0.826,-0.5105 -1.6832,-0.7793 -2.4888,-0.9139 -0.8059,-0.1344 -1.5588,-0.1344 -2.3746,0.0417 -0.8158,0.1766 -1.6951,0.5289 -2.5319,1.0295 -0.8368,0.5003 -1.6316,1.1486 -2.3536,1.9225 -0.7217,0.7741 -1.3702,1.6744 -1.9148,2.584 -0.5434,0.9102 -0.9825,1.8309 -1.4428,2.5421 -0.4601,0.7115 -0.9417,1.2135 -1.4335,1.5795 -0.4915,0.3662 -0.9938,0.5961 -1.4958,0.69 -0.5021,0.0949 -1.0041,0.0527 -1.4959,-0.1358 -0.4918,-0.188 -0.9728,-0.5227 -1.5168,-0.8371 -0.5437,-0.3135 -1.1506,-0.606 -1.8414,-0.7529 -0.6905,-0.1465 -1.4641,-0.1465 -2.7193,0.0938 -1.2554,0.2407 -2.9919,0.7223 -4.331,1.3082 -1.3388,0.586 -2.2802,1.2759 -2.9707,1.9455 -0.6905,0.6695 -1.1294,1.3186 -1.4539,1.9561 -0.324,0.6381 -0.5338,1.266 -0.6276,1.8621 -0.0938,0.5961 -0.0734,1.1617 0.0519,1.7788 0.1261,0.6171 0.356,1.2858 0.7429,1.9343 0.3872,0.6492 0.9309,1.2765 1.4854,1.8201 0.5544,0.5443 1.1194,1.0049 1.6738,1.4128 0.5545,0.4079 1.0982,0.7634 1.569,1.0245 0.4709,0.2619 0.8683,0.4294 1.1086,0.5544 0.2407,0.1259 0.3246,0.2095 0.3456,0.2934 0.021,0.0836 -0.021,0.1673 -0.377,0.523 -0.3552,0.356 -1.0247,0.9833 -1.6418,1.7578 -0.6171,0.7741 -1.1824,1.6942 -1.6223,2.6461 -0.4388,0.9519 -0.7526,1.9358 -0.8989,2.8979 -0.1462,0.9626 -0.1258,1.9034 0.0102,2.9605 0.1361,1.0565 0.3872,2.2274 0.7949,3.221 0.4084,0.9941 0.9737,1.8102 1.6321,2.48 0.6594,0.6696 1.412,1.192 2.113,1.5684 0.7007,0.3768 1.3499,0.6075 2.1132,0.7223 0.7637,0.1151 1.6424,0.1151 2.4897,0.0519 0.8473,-0.0627 1.6636,-0.188 2.4582,-0.4388 0.7954,-0.2512 1.5693,-0.6279 2.3434,-1.0778 0.7741,-0.4495 1.5477,-0.9723 2.3012,-1.5794 0.7531,-0.6069 1.4853,-1.2969 2.1336,-1.9457 0.6489,-0.6483 1.2141,-1.2549 1.7997,-1.9038 0.5859,-0.6485 1.192,-1.3385 1.7671,-2.0817 0.5758,-0.7427 1.12,-1.5376 1.486,-2.1445 0.3662,-0.6066 0.5544,-1.0252 0.7633,-1.3186 0.2095,-0.2926 0.4397,-0.4598 0.6798,-0.502 0.2412,-0.0414 0.4921,0.0422 0.9105,-0.0205 0.4184,-0.0626 1.0043,-0.2721 1.5899,-0.5442 0.5862,-0.2716 1.1719,-0.6063 1.6005,-0.8572 0.4294,-0.2512 0.701,-0.4187 0.962,-0.6387 0.262,-0.2196 0.5131,-0.4912 0.7328,-0.6273 0.2197,-0.136 0.4079,-0.136 1.0984,-0.0524"
         clip-rule="evenodd"
         id="path228" />
    </clipPath>
    <linearGradient
       x1="0.14"
       y1="0"
       x2="0.86000001"
       y2="0"
       gradientUnits="userSpaceOnUse"
       gradientTransform="matrix(-39.21865,56.01003,-58.68637,-41.09264,826.8934,464.1242)"
       spreadMethod="pad"
       id="linearGradient232">
      <stop
         style="stop-opacity:1;stop-color:#853a9c"
         offset="0"
         id="stop234" />
      <stop
         style="stop-opacity:1;stop-color:#e0cfe8"
         offset="1"
         id="stop236" />
    </linearGradient>
  </defs>
  <sodipodi:namedview
     id="base"
     pagecolor="#ffffff"
     bordercolor="#666666"
     borderopacity="1.0"
     inkscape:pageopacity="0.0"
     inkscape:pageshadow="2"
     inkscape:zoom="0.35"
     inkscape:cx="167.60115"
     inkscape:cy="64.43936"
     inkscape:document-units="px"
     inkscape:current-layer="layer1"
     showgrid="false"
     fit-margin-top="0"
     fit-margin-left="0"
     fit-margin-right="0"
     fit-margin-bottom="0"
     inkscape:window-width="472"
     inkscape:window-height="383"
     inkscape:window-x="0"
     inkscape:window-y="24"
     inkscape:window-maximized="0" />
  <metadata
     id="metadata3681">
    <rdf:RDF>
      <cc:Work
         rdf:about="">
        <dc:format>image/svg+xml</dc:format>
        <dc:type
           rdf:resource="http://purl.org/dc/dcmitype/StillImage" />
        <dc:title></dc:title>
      </cc:Work>
    </rdf:RDF>
  </metadata>
  <g
     inkscape:label="Layer 1"
     inkscape:groupmode="layer"
     id="layer1"
     transform="translate(-207.39885,-467.92289)">
    <path
       inkscape:connector-curvature="0"
       d="m 210.91872,575.79537 1.198,0 c 3.91038,0 5.31638,2.39313 5.31638,5.3975 0,3.69925 -1.822,5.86275 -5.31638,5.86275 l -1.198,0 0,-11.26025 z m -1.996,12.83025 2.47188,0 c 5.95837,0 8.12162,-3.25512 8.12162,-7.43275 0,-3.22862 -1.51837,-5.05025 -2.931,-5.92825 -0.90925,-0.58287 -2.11012,-1.034 -4.223,-1.034 l -3.4395,0 0,14.395 z"
       style="fill:#5b5b5b;fill-opacity:1;fill-rule:evenodd;stroke:none"
       id="path148" />
    <path
       inkscape:connector-curvature="0"
       d="m 222.1701,588.62562 7.6755,0 0,-1.57 -5.67663,0 0,-5.11475 5.13388,0 0,-1.56825 -5.13388,0 0,-4.57725 5.37875,0 0,-1.56475 -7.37762,0 0,14.395 z"
       style="fill:#5b5b5b;fill-opacity:1;fill-rule:evenodd;stroke:none"
       id="path150" />
    <path
       inkscape:connector-curvature="0"
       d="m 247.49197,586.53725 c -0.817,0.422 -1.81062,0.6615 -2.83462,0.6615 -3.455,0 -5.09063,-2.44975 -5.09063,-6.16813 0,-3.50787 2.36588,-5.38437 4.95388,-5.38437 1.10875,0 2.09837,0.23912 2.97137,0.72637 l 0,-1.77237 c -0.73337,-0.33525 -1.86262,-0.52513 -2.99262,-0.52513 -4.13463,0 -7.021,2.82863 -7.021,7.33138 0,3.89412 2.11,7.363 7.12975,7.363 0.9305,0 1.92375,-0.15875 2.88387,-0.42875 l 0,-1.8035 z"
       style="fill:#5b5b5b;fill-opacity:1;fill-rule:evenodd;stroke:none"
       id="path152" />
    <path
       inkscape:connector-curvature="0"
       d="m 252.56847,583.30362 2.49238,-7.177 0.0568,0 2.424,7.177 -4.97313,0 z m 1.50525,-9.073 -5.31037,14.395 1.98962,0 1.277,-3.75262 6.0395,0 1.26963,3.75262 2.08487,0 -5.17325,-14.395 -2.177,0 z m -0.11662,-0.70762 1.45137,0 2.3255,-2.98875 -2.25712,0 -1.51975,2.98875 z"
       style="fill:#5b5b5b;fill-opacity:1;fill-rule:evenodd;stroke:none"
       id="path154" />
    <path
       inkscape:connector-curvature="0"
       d="m 263.3576,588.62562 1.903,0 0,-11.80337 0.0408,0 5.97762,11.80337 2.47,0 0,-14.395 -1.8995,0 0,11.88388 -0.0529,0 -5.96475,-11.88388 -2.47425,0 0,14.395 z"
       style="fill:#5b5b5b;fill-opacity:1;fill-rule:evenodd;stroke:none"
       id="path156" />
    <path
       inkscape:connector-curvature="0"
       d="m 286.5956,586.53725 c -0.81563,0.422 -1.81875,0.6615 -2.83288,0.6615 -3.45787,0 -5.08675,-2.44975 -5.08675,-6.16813 0,-3.50787 2.36413,-5.38437 4.944,-5.38437 1.1165,0 2.11538,0.23912 2.97525,0.72637 l 3.8e-4,-1.77237 c -0.72213,-0.33525 -1.85913,-0.52513 -2.98775,-0.52513 -4.1375,0 -7.02138,2.82863 -7.02138,7.33138 0,3.89412 2.11075,7.363 7.12913,7.363 0.934,0 1.93362,-0.15875 2.87962,-0.42875 l 3.8e-4,-1.8035 z"
       style="fill:#5b5b5b;fill-opacity:1;fill-rule:evenodd;stroke:none"
       id="path158" />
    <path
       inkscape:connector-curvature="0"
       d="m 289.43272,588.62562 7.6695,0 0,-1.57 -5.66925,0 0,-5.11475 5.12963,0 0,-1.56825 -5.12963,0 0,-4.57725 5.37513,0 0,-1.56475 -7.37538,0 0,14.395 z"
       style="fill:#5b5b5b;fill-opacity:1;fill-rule:evenodd;stroke:none"
       id="path160" />
    <path
       inkscape:connector-curvature="0"
       d="m 301.93885,575.72025 1.58675,0 c 1.7595,0 2.90687,0.74837 2.90687,2.37225 0,1.25325 -0.80925,2.532 -2.95125,2.532 l -1.54237,0 0,-4.90425 z m -1.99813,12.90537 1.99813,0 0,-6.51437 0.91275,0 c 1.49562,0 2.06037,0.45037 2.52037,1.64487 l 1.80988,4.8695 2.15537,0 -2.22412,-5.77875 c -0.31425,-0.82237 -0.765,-1.22662 -1.72313,-1.39987 l 0,-0.0405 c 2.34288,-0.45638 3.13238,-1.918 3.13238,-3.44225 0,-1.0605 -0.36675,-2.05125 -1.18,-2.7465 -0.726,-0.6175 -1.654,-0.98713 -3.32963,-0.98713 l -4.072,0 0,14.395 z"
       style="fill:#5b5b5b;fill-opacity:1;fill-rule:evenodd;stroke:none"
       id="path162" />
    <path
       inkscape:connector-curvature="0"
       d="m 318.94423,575.79537 1.20512,0 c 3.89513,0 5.31313,2.39313 5.31313,5.3975 0,3.69925 -1.81913,5.86275 -5.31313,5.86275 l -1.20512,0 0,-11.26025 z m -1.99588,12.83025 2.47075,0 c 5.94737,0 8.12263,-3.25512 8.12263,-7.43275 0,-3.22862 -1.52013,-5.05025 -2.92038,-5.92825 -0.90813,-0.58287 -2.11363,-1.034 -4.23113,-1.034 l -3.44187,0 0,14.395 z"
       style="fill:#5b5b5b;fill-opacity:1;fill-rule:evenodd;stroke:none"
       id="path164" />
    <path
       inkscape:connector-curvature="0"
       d="m 330.19847,588.62562 7.67413,0 0,-1.57 -5.66925,0 0,-5.11475 5.13175,0 0,-1.56825 -5.13175,0 0,-4.57725 5.37938,0 0,-1.56475 -7.38426,0 0,14.395 z"
       style="fill:#5b5b5b;fill-opacity:1;fill-rule:evenodd;stroke:none"
       id="path166" />
    <path
       inkscape:connector-curvature="0"
       d="m 348.45148,588.62562 2.00587,0 0,-12.83025 3.6245,0 0,-1.56475 -9.25275,0 0,1.56475 3.62238,0 0,12.83025 z"
       style="fill:#5b5b5b;fill-opacity:1;fill-rule:evenodd;stroke:none"
       id="path168" />
    <path
       inkscape:connector-curvature="0"
       d="m 356.2496,588.62562 1.992,0 0,-14.395 -1.992,0 0,14.395 z"
       style="fill:#5b5b5b;fill-opacity:1;fill-rule:evenodd;stroke:none"
       id="path170" />
    <path
       inkscape:connector-curvature="0"
       d="m 363.73835,575.72025 1.58562,0 c 1.74126,0 2.90451,0.74837 2.90451,2.37225 0,1.25325 -0.8245,2.532 -2.947,2.532 l -1.54313,0 0,-4.90425 z m -1.99875,12.90537 1.99875,0 0,-6.51437 0.90712,0 c 1.4935,0 2.06326,0.45037 2.51363,1.64487 l 1.82625,4.8695 2.1465,0 -2.22125,-5.77875 c -0.31825,-0.82237 -0.7675,-1.22662 -1.72888,-1.39987 l 0,-0.0405 c 2.33688,-0.45638 3.1355,-1.918 3.1355,-3.44225 0,-1.0605 -0.36312,-2.05125 -1.17637,-2.7465 -0.73025,-0.6175 -1.66175,-0.98713 -3.33387,-0.98713 l -4.06738,0 0,14.395 z"
       style="fill:#5b5b5b;fill-opacity:1;fill-rule:evenodd;stroke:none"
       id="path172" />
    <path
       inkscape:connector-curvature="0"
       d="m 374.94698,581.56737 c 0,-4.43825 1.77412,-6.002 3.85924,-6.002 2.68238,0 3.67838,2.813 3.67838,5.71713 0,4.44162 -1.78225,6.01875 -3.86575,6.01875 -2.67588,0 -3.67187,-2.81663 -3.67187,-5.73388 z m -2.09101,0 c 0,4.46075 2.24088,7.20213 5.76288,7.20213 3.74312,0 5.94175,-2.51713 5.94175,-7.487 0,-4.46025 -2.23187,-7.20738 -5.75438,-7.20738 -3.74162,0 -5.95025,2.5185 -5.95025,7.49225"
       style="fill:#5b5b5b;fill-opacity:1;fill-rule:evenodd;stroke:none"
       id="path174" />
    <path
       inkscape:connector-curvature="0"
       d="m 387.40447,588.62562 1.99838,0 0,-14.395 -1.99838,0 0,14.395 z"
       style="fill:#5b5b5b;fill-opacity:1;fill-rule:evenodd;stroke:none"
       id="path176" />
    <path
       inkscape:connector-curvature="0"
       d="m 394.67422,575.79537 1.20225,0 c 3.89763,0 5.31188,2.39313 5.31188,5.3975 0,3.69925 -1.81637,5.86275 -5.31188,5.86275 l -1.20225,0 0,-11.26025 z m -2.0055,12.83025 2.47475,0 c 5.95088,0 8.12938,-3.25512 8.12938,-7.43275 0,-3.22862 -1.53213,-5.05025 -2.93213,-5.92825 -0.91062,-0.58287 -2.1075,-1.034 -4.214,-1.034 l -3.458,0 0,14.395 z"
       style="fill:#5b5b5b;fill-opacity:1;fill-rule:evenodd;stroke:none"
       id="path178" />
    <path
       inkscape:connector-curvature="0"
       d="m 405.92073,588.62562 7.67549,0 0,-1.57 -5.67599,0 0,-5.11475 5.13812,0 0,-1.56825 -5.13812,0 0,-4.57725 5.3805,0 0,-1.56475 -7.38,0 0,14.395 z"
       style="fill:#5b5b5b;fill-opacity:1;fill-rule:evenodd;stroke:none"
       id="path180" />
    <path
       inkscape:connector-curvature="0"
       d="m 422.9711,574.5595 c -0.703,-0.27963 -1.8195,-0.48438 -2.85762,-0.48438 -2.40625,0 -4.40438,1.239 -4.40438,3.62225 0,1.85038 0.641,2.74075 3.492,4.30625 2.13725,1.17488 2.46075,1.82188 2.46075,2.92925 0,1.18163 -1.02262,2.26588 -2.8155,2.26588 -0.93475,0 -2.11812,-0.42875 -3.02275,-0.91375 l 0,1.87362 c 0.83688,0.36538 2.04588,0.61088 3.31513,0.61088 3.04225,0 4.61087,-1.78863 4.61087,-4.0815 0,-1.65225 -0.826,-2.91538 -3.269,-4.19388 -2.27025,-1.18237 -2.68662,-1.76237 -2.68662,-2.70037 3.7e-4,-1.21075 0.97687,-2.1475 2.48037,-2.1475 0.97688,0 1.95375,0.24437 2.69675,0.6615 l 0,-1.74825 z"
       style="fill:#5b5b5b;fill-opacity:1;fill-rule:evenodd;stroke:none"
       id="path182" />
    <path
       inkscape:connector-curvature="0"
       d="m 211.3946,562.67199 2.49375,-7.17912 0.0504,0 2.43038,7.17912 -4.9745,0 z m 1.50062,-9.085 -5.31887,14.40176 2.00162,0 1.27238,-3.75201 6.03675,0 1.27587,3.75201 2.08175,0 -5.17037,-14.40176 -2.17913,0 z"
       style="fill:#5b5b5b;fill-opacity:1;fill-rule:evenodd;stroke:none"
       id="path184" />
    <path
       inkscape:connector-curvature="0"
       d="m 228.9021,553.91612 c -0.70763,-0.26675 -1.816,-0.46875 -2.85775,-0.46875 -2.40975,0 -4.40788,1.23525 -4.40788,3.60925 0,1.86237 0.63288,2.75412 3.5005,4.3115 2.12638,1.17 2.45225,1.81312 2.45225,2.93737 0,1.16963 -1.02112,2.26488 -2.8215,2.26488 -0.92762,0 -2.10362,-0.432 -3.01675,-0.93438 l 0,1.89038 c 0.83838,0.36912 2.04163,0.61475 3.31438,0.61475 3.04587,0 4.6155,-1.79113 4.6155,-4.09425 3.7e-4,-1.65125 -0.8245,-2.912 -3.2715,-4.18113 -2.27088,-1.19762 -2.68163,-1.76925 -2.68163,-2.70637 0,-1.2225 0.97238,-2.14838 2.47538,-2.14838 0.97337,0 1.94212,0.24875 2.699,0.66438 l 0,-1.75925 z"
       style="fill:#5b5b5b;fill-opacity:1;fill-rule:evenodd;stroke:none"
       id="path186" />
    <path
       inkscape:connector-curvature="0"
       d="m 234.0636,560.93974 c 0,-4.43487 1.76912,-6.00912 3.85262,-6.00912 2.68688,0 3.684,2.80662 3.684,5.71812 0,4.43238 -1.7755,6.0155 -3.86437,6.0155 -2.67513,0 -3.67225,-2.81512 -3.67225,-5.7245 z m -2.08838,0 c 0,4.45425 2.24288,7.20138 5.76063,7.20138 3.746,0 5.944,-2.51713 5.944,-7.49238 0,-4.46062 -2.24763,-7.19787 -5.76363,-7.19787 -3.741,0 -5.941,2.5165 -5.941,7.48887"
       style="fill:#5b5b5b;fill-opacity:1;fill-rule:evenodd;stroke:none"
       id="path188" />
    <path
       inkscape:connector-curvature="0"
       d="m 256.06122,565.88687 c -0.81325,0.43225 -1.81925,0.6835 -2.83712,0.6835 -3.45125,0 -5.08713,-2.45513 -5.08713,-6.16675 0,-3.50475 2.36225,-5.39263 4.95025,-5.39263 1.11125,0 2.11325,0.23313 2.974,0.72675 l 0,-1.77837 c -0.72962,-0.32313 -1.86275,-0.512 -2.99275,-0.512 -4.1365,0 -7.0115,2.8215 -7.0115,7.32787 0,3.8955 2.10513,7.36588 7.127,7.36588 0.92413,0 1.92588,-0.16475 2.87725,-0.438 l 0,-1.81625 z"
       style="fill:#5b5b5b;fill-opacity:1;fill-rule:evenodd;stroke:none"
       id="path190" />
    <path
       inkscape:connector-curvature="0"
       d="m 259.08747,567.98875 1.99813,0 0,-14.40176 -1.99813,0 0,14.40176 z"
       style="fill:#5b5b5b;fill-opacity:1;fill-rule:evenodd;stroke:none"
       id="path192" />
    <path
       inkscape:connector-curvature="0"
       d="m 267.01072,562.67199 2.49838,-7.17912 0.0475,0 2.4325,7.17912 -4.97838,0 z m 1.50938,-9.085 -5.317,14.40176 1.99275,0 1.27487,-3.75201 6.04063,0 1.27162,3.75201 2.07963,0 -5.16363,-14.40176 -2.17887,0 z"
       style="fill:#5b5b5b;fill-opacity:1;fill-rule:evenodd;stroke:none"
       id="path194" />
    <path
       inkscape:connector-curvature="0"
       d="m 287.34185,565.88687 c -0.81638,0.43225 -1.81838,0.6835 -2.84,0.6835 -3.44263,0 -5.08425,-2.45513 -5.08425,-6.16675 0,-3.50475 2.36162,-5.39263 4.96062,-5.39263 1.0935,0 2.10363,0.23313 2.96363,0.72675 l 0,-1.77837 c -0.726,-0.32313 -1.87013,-0.512 -2.99488,-0.512 -4.13787,0 -7.01812,2.8215 -7.01812,7.32787 0,3.8955 2.11287,7.36588 7.1255,7.36588 0.93087,0 1.92162,-0.16475 2.8875,-0.438 l 0,-1.81625 z"
       style="fill:#5b5b5b;fill-opacity:1;fill-rule:evenodd;stroke:none"
       id="path196" />
    <path
       inkscape:connector-curvature="0"
       d="m 290.36422,567.98875 1.98638,0 0,-14.40176 -1.98638,0 0,14.40176 z"
       style="fill:#5b5b5b;fill-opacity:1;fill-rule:evenodd;stroke:none"
       id="path198" />
    <path
       inkscape:connector-curvature="0"
       d="m 297.47922,560.93974 c 0,-4.43487 1.7625,-6.00912 3.84413,-6.00912 2.69225,0 3.684,2.80662 3.684,5.71812 0,4.43238 -1.7625,6.0155 -3.8565,6.0155 -2.677,0 -3.67163,-2.81512 -3.67163,-5.7245 z m -2.099,0 c 0,4.45425 2.25463,7.20138 5.77063,7.20138 3.74737,0 5.95275,-2.51713 5.95275,-7.49238 0,-4.46062 -2.25075,-7.19787 -5.78025,-7.19787 -3.73963,0 -5.94313,2.5165 -5.94313,7.48887 z m 4.731,-8.048 1.43963,0 2.32512,-2.98587 -2.245,0 -1.51975,2.98587 z"
       style="fill:#5b5b5b;fill-opacity:1;fill-rule:evenodd;stroke:none"
       id="path200" />
    <path
       inkscape:connector-curvature="0"
       d="m 310.12323,567.98875 1.90875,0 0,-11.80063 0.0433,0 5.97674,11.80063 2.46976,0 0,-14.40176 -1.90663,0 0,11.88813 -0.0454,0 -5.96875,-11.88813 -2.47775,0 0,14.40176 z"
       style="fill:#5b5b5b;fill-opacity:1;fill-rule:evenodd;stroke:none"
       id="path202" />
    <path
       inkscape:connector-curvature="0"
       d="m 330.60485,567.98875 7.66987,0 0,-1.56438 -5.6735,0 0,-5.11863 5.1335,0 0,-1.56375 -5.1335,0 0,-4.58075 5.3755,0 0,-1.57425 -7.37187,0 0,14.40176 z"
       style="fill:#5b5b5b;fill-opacity:1;fill-rule:evenodd;stroke:none"
       id="path204" />
    <path
       inkscape:connector-curvature="0"
       d="m 347.83847,553.91612 c -0.70825,-0.26675 -1.811,-0.46875 -2.86225,-0.46875 -2.40162,0 -4.4015,1.23525 -4.4015,3.60925 0,1.86237 0.62888,2.75412 3.4955,4.3115 2.14225,1.17 2.45475,1.81312 2.45475,2.93737 0,1.16963 -1.02475,2.26488 -2.819,2.26488 -0.928,0 -2.10612,-0.432 -3.01537,-0.93438 l 0,1.89038 c 0.838,0.36912 2.04162,0.61475 3.31725,0.61475 3.03912,0 4.60663,-1.79113 4.60663,-4.09425 0,-1.65125 -0.82238,-2.912 -3.27225,-4.18113 -2.26988,-1.19762 -2.68088,-1.76925 -2.68088,-2.70637 0,-1.2225 0.97375,-2.14838 2.47675,-2.14838 0.97588,0 1.952,0.24875 2.70038,0.66438 l 0,-1.75925 z"
       style="fill:#5b5b5b;fill-opacity:1;fill-rule:evenodd;stroke:none"
       id="path206" />
    <path
       inkscape:connector-curvature="0"
       d="m 353.56485,555.07699 1.136,0 c 2.03875,0 3.275,0.78513 3.275,2.769 0,1.6045 -0.89425,2.63163 -3.3215,2.63163 l -1.0895,0 0,-5.40063 z m -1.99912,12.91176 1.99912,0 0,-6.02463 1.3415,0 c 3.35225,0 5.14838,-1.4865 5.14838,-4.286 0,-1.264 -0.44963,-2.27163 -1.24613,-2.9775 -0.83275,-0.7225 -1.83612,-1.11363 -3.43062,-1.11363 l -3.81225,0 0,14.40176 z"
       style="fill:#5b5b5b;fill-opacity:1;fill-rule:evenodd;stroke:none"
       id="path208" />
    <path
       inkscape:connector-curvature="0"
       d="m 364.92185,562.67199 2.50125,-7.17912 0.0443,0 2.4275,7.17912 -4.973,0 z m 1.49875,-9.085 -5.31138,14.40176 1.99601,0 1.28337,-3.75201 6.02788,0 1.27975,3.75201 2.07462,0 -5.1675,-14.40176 -2.18275,0 z"
       style="fill:#5b5b5b;fill-opacity:1;fill-rule:evenodd;stroke:none"
       id="path210" />
    <path
       inkscape:connector-curvature="0"
       d="m 375.9026,567.98875 1.90125,0 0,-11.80063 0.0457,0 5.96875,11.80063 2.481,0 0,-14.40176 -1.90638,0 0,11.88813 -0.0556,0 -5.96262,-11.88813 -2.47213,0 0,14.40176 z m 7.32463,-17.78488 c -0.13426,0.57112 -0.35851,0.88437 -0.77026,0.88437 -0.1545,0 -0.33775,-0.056 -0.79412,-0.2605 -0.90063,-0.412 -1.323,-0.51475 -1.71738,-0.51475 -1.27812,0 -2.0105,0.80363 -2.16925,2.20925 l 1.1835,0 c 0.0734,-0.66687 0.48088,-0.88762 0.88188,-0.88762 0.235,0 0.37137,0.0311 1.07187,0.34475 0.843,0.37525 1.20575,0.43762 1.56788,0.43762 1.07787,0 1.68062,-0.85362 1.9255,-2.21312 l -1.17963,0 z"
       style="fill:#5b5b5b;fill-opacity:1;fill-rule:evenodd;stroke:none"
       id="path212" />
    <path
       inkscape:connector-curvature="0"
       d="m 391.40698,560.93974 c 0,-4.43487 1.77449,-6.00912 3.85475,-6.00912 2.69225,0 3.683,2.80662 3.683,5.71812 0,4.43238 -1.7745,6.0155 -3.86013,6.0155 -2.68163,0 -3.678,-2.81512 -3.678,-5.7245 l 3.8e-4,0 z m -2.08775,0 c 0,4.45425 2.24574,7.20138 5.76537,7.20138 3.75062,0 5.945,-2.51713 5.945,-7.49238 2.5e-4,-4.46062 -2.2465,-7.19787 -5.76787,-7.19787 -3.74388,0 -5.9425,2.5165 -5.9425,7.48887"
       style="fill:#5b5b5b;fill-opacity:1;fill-rule:evenodd;stroke:none"
       id="path214" />
    <path
       inkscape:connector-curvature="0"
       d="m 404.05485,567.98875 7.2,0 0,-1.56438 -5.20475,0 0,-12.83738 -1.99525,0 0,14.40176 z"
       style="fill:#5b5b5b;fill-opacity:1;fill-rule:evenodd;stroke:none"
       id="path216" />
    <path
       inkscape:connector-curvature="0"
       d="m 415.73747,562.67199 2.49375,-7.17912 0.0425,0 2.42725,7.17912 -4.9635,0 z m 1.49601,-9.085 -5.31813,14.40176 2.003,0 1.27162,-3.75201 6.03151,0 1.27487,3.75201 2.08412,0 -5.17112,-14.40176 -2.17587,0 z"
       style="fill:#5b5b5b;fill-opacity:1;fill-rule:evenodd;stroke:none"
       id="path218" />
    <path
       inkscape:connector-curvature="0"
       d="m 212.7216,503.57499 c 3.99187,-3.01362 9.051,-4.96 14.0945,-4.96 7.00512,-2.5e-4 10.30225,2.48 10.30225,9.84863 l -6.57188,0 c -4.968,0 -10.82187,0.43475 -15.34425,2.65687 -4.52025,2.22263 -7.80337,6.21025 -7.80337,13.04213 0,8.69637 7.886,13.57012 15.96962,13.57012 5.40713,0 11.34713,-2.84062 14.09138,-7.89937 0.276,1.4155 0.276,4.43862 0.714,6.8315 l 10.46875,0 c -0.26763,-3.54688 -0.444,-6.73475 -0.53363,-10.19875 -0.0784,-3.37113 -0.1765,-6.8325 -0.1765,-11.4445 l 0,-5.8535 c 0,-13.47388 -5.755,-19.2405 -19.68525,-19.2405 -5.05912,0 -11.26337,1.32512 -15.885,3.45462 l 0.35938,10.19275 z m 6.03737,19.868 c 0,-6.9995 7.88675,-7.88312 13.207,-7.88312 l 5.15238,0 c 0,3.54325 -0.53363,6.82437 -2.48963,9.39112 -1.862,2.48888 -4.70512,4.0855 -8.343,4.0855 -4.252,0 -7.52675,-1.67987 -7.52675,-5.5935 z m 49.29838,-14.09212 c 0.53962,-6.12388 3.90762,-10.73588 10.55525,-10.73588 6.65537,-2.5e-4 9.32062,4.96 9.6625,10.73588 l -20.21775,0 z m 28.20825,15.06975 c -4.43688,2.48875 -9.39538,4.61587 -15.16638,4.61587 -7.36187,0 -12.50225,-4.16625 -13.04187,-11.525 l 31.57725,0 c 0,-15.97 -4.78875,-27.58387 -21.72863,-27.58387 -14.19375,0 -21.20062,10.903 -21.20062,24.126 3.7e-4,14.98287 8.7785,23.67912 23.86275,23.67912 6.38575,0 11.3545,-1.23862 15.6975,-3.64425 l 0,-9.66787 z m 43.36938,-32.99038 c -3.28101,-0.97225 -6.7415,-1.50262 -11.53725,-1.50262 -14.28063,0 -22.08688,10.45662 -22.08688,23.68237 0,13.917 7.54475,24.12275 22.5265,24.12275 4.893,0 8.43775,-0.45 11.8885,-1.51787 l -0.53037,-9.84188 c -2.03638,0.8875 -5.76988,2.13238 -9.141,2.13238 -8.33075,0 -12.32438,-6.47188 -12.32438,-14.89538 0,-8.611 4.702,-14.46412 12.065,-14.46412 3.6305,0 5.94563,0.70725 8.067,1.68475 l 1.07288,-9.40038 z m 11.07537,12.14475 c 3.9905,-3.01362 9.045,-4.96 14.097,-4.96 7.0105,-2.5e-4 10.2895,2.48 10.2895,9.84863 l -6.5655,0 c -4.95987,0 -10.81062,0.43475 -15.34212,2.65687 -4.52688,2.22263 -7.79988,6.21025 -7.79988,13.04213 0,8.69637 7.88988,13.57012 15.96125,13.57012 5.40638,0 11.35238,-2.84062 14.10338,-7.89937 0.27925,1.4155 0.27925,4.43862 0.709,6.8315 l 10.46337,0 c -0.2625,-3.54688 -0.44325,-6.73475 -0.52788,-10.19875 -0.084,-3.37113 -0.173,-6.8325 -0.173,-11.4445 l 3.8e-4,-5.8535 c 0,-13.47388 -5.76562,-19.2405 -19.698,-19.2405 -5.053,0 -11.26375,1.32512 -15.87288,3.45462 l 0.35538,10.19275 z m 6.02925,19.868 c 0,-6.9995 7.89775,-7.88312 13.21938,-7.88312 l 5.13812,0 c 0,3.54325 -0.52787,6.82437 -2.47775,9.39112 -1.86525,2.48888 -4.69987,4.0855 -8.34312,4.0855 -4.26188,0 -7.53663,-1.67987 -7.53663,-5.5935 z m 44.78463,-0.52512 c 0,9.0415 5.14587,14.81487 14.456,14.81487 3.5535,0 6.30425,-0.36025 8.78737,-1.06787 l -0.3565,-9.40438 c -1.24262,0.80975 -3.2825,1.24488 -5.406,1.24488 -4.52937,0 -5.6005,-3.63513 -5.6005,-7.537 l 0,-21.295 10.56288,0 0,-8.68463 -10.56288,0 0,-12.955 -11.88037,3.81088 0,9.14412 -8.786,0 0,8.68463 8.786,0 0,23.2445 z"
       style="fill:#5b5b5b;fill-opacity:1;fill-rule:evenodd;stroke:none"
       id="path220" />
    <g
       transform="matrix(1.25,0,0,-1.25,-484.20265,1159.0209)"
       id="g222">
      <g
         id="g224"
         clip-path="url(#clipPath226)">
        <g
           id="g230">
          <path
             inkscape:connector-curvature="0"
             d="m 783.7557,477.6154 c 0.6905,0.0839 1.8825,0.2512 3.2216,0.3662 1.3391,0.1148 2.825,0.1781 4.2055,0.1361 1.3813,-0.0417 2.6572,-0.1885 4.0274,-0.4499 1.3703,-0.2613 2.8352,-0.638 4.2055,-1.2342 1.3703,-0.5958 2.6464,-1.4125 3.6082,-2.1758 0.9627,-0.7634 1.6115,-1.4749 2.1447,-2.3123 0.5335,-0.8367 0.9519,-1.7988 1.1296,-2.8868 0.1781,-1.0879 0.1151,-2.3017 -0.1258,-3.285 -0.2401,-0.9831 -0.6588,-1.7363 -1.1818,-2.3845 -0.5227,-0.6489 -1.1509,-1.1931 -1.9352,-1.7161 -0.7843,-0.5227 -1.7254,-1.0248 -2.751,-1.4542 -1.0253,-0.4286 -2.1337,-0.7838 -3.3999,-1.0349 -1.2654,-0.2512 -2.6884,-0.398 -4.0272,-0.4607 -1.3393,-0.0626 -2.594,-0.0413 -3.6402,-0.0102 -1.046,0.0315 -1.8828,0.0735 -2.3536,0.0939 -0.4709,0.0212 -0.5749,0.0212 -0.6483,-0.0624 -0.0734,-0.0839 -0.1151,-0.2512 -0.1361,-0.701 -0.0215,-0.4496 -0.0215,-1.1821 -0.2097,-2.1025 -0.188,-0.9204 -0.5647,-2.029 -1.1506,-2.9605 -0.5851,-0.9306 -1.3805,-1.6837 -2.2074,-2.1951 -0.826,-0.5105 -1.6832,-0.7793 -2.4888,-0.9139 -0.8059,-0.1344 -1.5588,-0.1344 -2.3746,0.0417 -0.8158,0.1766 -1.6951,0.5289 -2.5319,1.0295 -0.8368,0.5003 -1.6316,1.1486 -2.3536,1.9225 -0.7217,0.7741 -1.3702,1.6744 -1.9148,2.584 -0.5434,0.9102 -0.9825,1.8309 -1.4428,2.5421 -0.4601,0.7115 -0.9417,1.2135 -1.4335,1.5795 -0.4915,0.3662 -0.9938,0.5961 -1.4958,0.69 -0.5021,0.0949 -1.0041,0.0527 -1.4959,-0.1358 -0.4918,-0.188 -0.9728,-0.5227 -1.5168,-0.8371 -0.5437,-0.3135 -1.1506,-0.606 -1.8414,-0.7529 -0.6905,-0.1465 -1.4641,-0.1465 -2.7193,0.0938 -1.2554,0.2407 -2.9919,0.7223 -4.331,1.3082 -1.3388,0.586 -2.2802,1.2759 -2.9707,1.9455 -0.6905,0.6695 -1.1294,1.3186 -1.4539,1.9561 -0.324,0.6381 -0.5338,1.266 -0.6276,1.8621 -0.0938,0.5961 -0.0734,1.1617 0.0519,1.7788 0.1261,0.6171 0.356,1.2858 0.7429,1.9343 0.3872,0.6492 0.9309,1.2765 1.4854,1.8201 0.5544,0.5443 1.1194,1.0049 1.6738,1.4128 0.5545,0.4079 1.0982,0.7634 1.569,1.0245 0.4709,0.2619 0.8683,0.4294 1.1086,0.5544 0.2407,0.1259 0.3246,0.2095 0.3456,0.2934 0.021,0.0836 -0.021,0.1673 -0.377,0.523 -0.3552,0.356 -1.0247,0.9833 -1.6418,1.7578 -0.6171,0.7741 -1.1824,1.6942 -1.6223,2.6461 -0.4388,0.9519 -0.7526,1.9358 -0.8989,2.8979 -0.1462,0.9626 -0.1258,1.9034 0.0102,2.9605 0.1361,1.0565 0.3872,2.2274 0.7949,3.221 0.4084,0.9941 0.9737,1.8102 1.6321,2.48 0.6594,0.6696 1.412,1.192 2.113,1.5684 0.7007,0.3768 1.3499,0.6075 2.1132,0.7223 0.7637,0.1151 1.6424,0.1151 2.4897,0.0519 0.8473,-0.0627 1.6636,-0.188 2.4582,-0.4388 0.7954,-0.2512 1.5693,-0.6279 2.3434,-1.0778 0.7741,-0.4495 1.5477,-0.9723 2.3012,-1.5794 0.7531,-0.6069 1.4853,-1.2969 2.1336,-1.9457 0.6489,-0.6483 1.2141,-1.2549 1.7997,-1.9038 0.5859,-0.6485 1.192,-1.3385 1.7671,-2.0817 0.5758,-0.7427 1.12,-1.5376 1.486,-2.1445 0.3662,-0.6066 0.5544,-1.0252 0.7633,-1.3186 0.2095,-0.2926 0.4397,-0.4598 0.6798,-0.502 0.2412,-0.0414 0.4921,0.0422 0.9105,-0.0205 0.4184,-0.0626 1.0043,-0.2721 1.5899,-0.5442 0.5862,-0.2716 1.1719,-0.6063 1.6005,-0.8572 0.4294,-0.2512 0.701,-0.4187 0.962,-0.6387 0.262,-0.2196 0.5131,-0.4912 0.7328,-0.6273 0.2197,-0.136 0.4079,-0.136 1.0984,-0.0524"
             style="fill:url(#linearGradient232);fill-rule:evenodd;stroke:none"
             id="path238" />
        </g>
      </g>
    </g>
    <g
       transform="matrix(1.25,0,0,-1.25,-484.20265,1159.0209)"
       id="g240">
      <g
         id="g242"
         clip-path="url(#clipPath244)">
        <g
           id="g248">
          <path
             inkscape:connector-curvature="0"
             d="m 801.3345,504.2563 c 0.4374,0.3282 1.1832,0.9107 2.0494,1.5151 0.8666,0.6046 1.853,1.2316 2.8095,1.7458 0.9566,0.5145 1.8827,0.9156 2.9182,1.2765 1.0355,0.3608 2.181,0.6797 3.348,0.8127 1.1673,0.1329 2.3565,0.0785 3.3117,-0.063 0.9556,-0.1414 1.6767,-0.371 2.3687,-0.731 0.6922,-0.3603 1.3549,-0.8507 1.9037,-1.5214 0.5485,-0.6707 0.9828,-1.5216 1.205,-2.2856 0.2231,-0.7639 0.2344,-1.4411 0.133,-2.0882 -0.1009,-0.6469 -0.3144,-1.264 -0.6429,-1.9287 -0.3286,-0.6639 -0.7722,-1.3757 -1.3011,-2.0707 -0.5295,-0.6951 -1.1447,-1.3726 -1.9077,-2.041 -0.7631,-0.6684 -1.6739,-1.3274 -2.5606,-1.8964 -0.8869,-0.5692 -1.7495,-1.0479 -2.4741,-1.4377 -0.7242,-0.3898 -1.3104,-0.6899 -1.6392,-0.8612 -0.3286,-0.1706 -0.3997,-0.2117 -0.4167,-0.2973 -0.017,-0.0859 0.0201,-0.2163 0.1828,-0.5307 0.1624,-0.3143 0.4501,-0.8129 0.6837,-1.5137 0.2339,-0.7004 0.413,-1.6032 0.3801,-2.4675 -0.0323,-0.8637 -0.278,-1.6889 -0.6394,-2.3618 -0.3617,-0.6724 -0.84,-1.1923 -1.3355,-1.6005 -0.4954,-0.4079 -1.0082,-0.7038 -1.6327,-0.9048 -0.6248,-0.2004 -1.3618,-0.3061 -2.128,-0.2945 -0.7667,0.0119 -1.5624,0.1411 -2.3578,0.3841 -0.796,0.2432 -1.5911,0.6012 -2.3191,1.0063 -0.7282,0.4062 -1.3886,0.8603 -1.9817,1.1633 -0.5927,0.3036 -1.1179,0.4564 -1.5967,0.5119 -0.4782,0.0562 -0.9105,0.0156 -1.2895,-0.1179 -0.3787,-0.1329 -0.7038,-0.3591 -0.9646,-0.6809 -0.2608,-0.3206 -0.4567,-0.7375 -0.7039,-1.1656 -0.2469,-0.4271 -0.5448,-0.8648 -0.9572,-1.2364 -0.4125,-0.3711 -0.9394,-0.675 -1.8885,-1.0046 -0.949,-0.3297 -2.3201,-0.6843 -3.4622,-0.8116 -1.1415,-0.1276 -2.0537,-0.0278 -2.7867,0.1565 -0.7334,0.1845 -1.2873,0.4535 -1.7587,0.7602 -0.4714,0.307 -0.8611,0.6523 -1.159,1.0214 -0.2982,0.3685 -0.5066,0.7616 -0.6639,1.231 -0.1568,0.4695 -0.2631,1.0151 -0.2543,1.6087 0.009,0.5941 0.1318,1.2351 0.2957,1.823 0.1635,0.5882 0.3668,1.1239 0.5842,1.6191 0.2171,0.4961 0.4476,0.9516 0.6653,1.3144 0.2177,0.3634 0.4226,0.6336 0.5366,0.813 0.1145,0.1806 0.1386,0.2702 0.1202,0.3356 -0.0187,0.0652 -0.0803,0.1058 -0.4621,0.2081 -0.3818,0.1023 -1.0842,0.2665 -1.8088,0.5511 -0.7242,0.2846 -1.4709,0.6885 -2.1438,1.1639 -0.6732,0.4756 -1.2736,1.0218 -1.751,1.6191 -0.4779,0.5981 -0.8339,1.2467 -1.1565,2.0194 -0.3229,0.7727 -0.6123,1.6688 -0.7251,2.5053 -0.1128,0.8373 -0.049,1.6149 0.1363,2.3298 0.1857,0.7146 0.4924,1.3663 0.8218,1.898 0.3291,0.5321 0.68,0.9443 1.1548,1.3224 0.4743,0.3784 1.0729,0.7237 1.6742,1.0137 0.6015,0.2905 1.2064,0.5261 1.8459,0.6675 0.6403,0.1418 1.3153,0.1891 2.0191,0.1874 0.7039,-0.002 1.436,-0.0536 2.1872,-0.1706 0.7512,-0.1174 1.5208,-0.2994 2.2173,-0.4862 0.6962,-0.1865 1.3195,-0.377 1.9735,-0.5885 0.6536,-0.2114 1.3374,-0.4427 2.0211,-0.7228 0.6834,-0.2795 1.3666,-0.6066 1.8544,-0.8759 0.4873,-0.2693 0.7804,-0.4799 1.0378,-0.5973 0.2576,-0.1167 0.4799,-0.1403 0.6602,-0.0745 0.1802,0.066 0.318,0.2217 0.6275,0.3438 0.3093,0.1216 0.7909,0.2092 1.2963,0.2543 0.5057,0.0454 1.0358,0.0479 1.4267,0.0454 0.3906,-0.002 0.6415,-0.009 0.9057,-0.0565 0.2644,-0.0464 0.5422,-0.1329 0.7452,-0.1388 0.2032,-0.007 0.3311,0.0674 0.7682,0.396"
             style="fill:url(#linearGradient250);fill-rule:evenodd;stroke:none"
             id="path256" />
        </g>
      </g>
    </g>
    <g
       transform="matrix(1.25,0,0,-1.25,-484.20265,1159.0209)"
       id="g258">
      <g
         id="g260"
         clip-path="url(#clipPath262)">
        <g
           id="g266">
          <path
             inkscape:connector-curvature="0"
             d="m 779.9919,533.1572 c 0.235,0.4402 0.6273,1.2098 1.1109,2.0443 0.4836,0.8345 1.0581,1.7342 1.6512,2.5285 0.593,0.7946 1.2044,1.4842 1.9221,2.1821 0.7175,0.6982 1.5421,1.404 2.4565,1.9644 0.9145,0.5599 1.9197,0.974 2.7644,1.2255 0.845,0.2514 1.5304,0.3398 2.2419,0.3089 0.7115,-0.0309 1.4494,-0.1811 2.162,-0.5244 0.7129,-0.343 1.4006,-0.8799 1.8794,-1.4258 0.479,-0.5462 0.7497,-1.1021 0.9153,-1.6767 0.1661,-0.574 0.2276,-1.1673 0.2123,-1.8437 -0.0159,-0.6763 -0.108,-1.4363 -0.2778,-2.2158 -0.1698,-0.779 -0.4173,-1.5769 -0.7909,-2.4245 -0.3736,-0.8472 -0.8725,-1.7441 -1.387,-2.5571 -0.5145,-0.813 -1.0434,-1.5418 -1.4924,-2.1441 -0.4487,-0.6021 -0.8181,-1.0763 -1.0239,-1.3448 -0.2064,-0.2681 -0.2492,-0.3297 -0.2302,-0.407 0.019,-0.0777 0.1001,-0.1713 0.3561,-0.3683 0.2556,-0.1975 0.6862,-0.4989 1.1497,-0.9887 0.4637,-0.4892 0.9601,-1.1673 1.2668,-1.8949 0.3061,-0.7274 0.4215,-1.5047 0.3818,-2.2011 -0.0397,-0.696 -0.2347,-1.3105 -0.4872,-1.8394 -0.2529,-0.5287 -0.5627,-0.9718 -1.0021,-1.3788 -0.4397,-0.4071 -1.0083,-0.7787 -1.6472,-1.0647 -0.6387,-0.2857 -1.347,-0.4862 -2.0988,-0.5922 -0.7523,-0.1057 -1.5483,-0.1162 -2.3071,-0.0618 -0.7591,0.055 -1.4808,0.1761 -2.0886,0.1979 -0.6077,0.0224 -1.1009,-0.0539 -1.5185,-0.1922 -0.4175,-0.1383 -0.7594,-0.3387 -1.0213,-0.5953 -0.2622,-0.2562 -0.4442,-0.5689 -0.536,-0.9354 -0.0916,-0.3662 -0.0927,-0.7869 -0.1321,-1.2362 -0.0394,-0.4487 -0.1174,-0.9261 -0.315,-1.3921 -0.1987,-0.4663 -0.517,-0.9212 -1.1749,-1.5602 -0.6582,-0.6389 -1.656,-1.4612 -2.5518,-2.0072 -0.8954,-0.5462 -1.6883,-0.8155 -2.3663,-0.9456 -0.6778,-0.1307 -1.2399,-0.1214 -1.7484,-0.0496 -0.5083,0.0722 -0.9638,0.2075 -1.3527,0.3977 -0.3892,0.1899 -0.7132,0.4348 -1.0245,0.7622 -0.3109,0.3283 -0.6094,0.7387 -0.8311,1.2334 -0.2225,0.4946 -0.3674,1.0726 -0.4586,1.6222 -0.0919,0.5499 -0.1302,1.0715 -0.1415,1.5653 -0.0116,0.4941 0.003,0.9601 0.0434,1.3442 0.0399,0.3844 0.1049,0.6868 0.1304,0.8799 0.0249,0.1933 0.0105,0.2769 -0.0301,0.3237 -0.0405,0.0468 -0.1074,0.0564 -0.4629,-0.006 -0.3554,-0.0624 -0.9998,-0.1976 -1.709,-0.2418 -0.7092,-0.044 -1.4825,0.002 -2.2232,0.1357 -0.7401,0.1338 -1.4476,0.3544 -2.0735,0.6645 -0.6259,0.3104 -1.1707,0.7098 -1.7357,1.2246 -0.5652,0.515 -1.1506,1.1446 -1.5667,1.7929 -0.4161,0.6494 -0.6633,1.3178 -0.786,1.9802 -0.1222,0.6634 -0.1194,1.321 -0.0522,1.8876 0.0666,0.5673 0.1984,1.0435 0.445,1.5398 0.2467,0.4964 0.6086,1.0128 0.9944,1.4848 0.3855,0.4723 0.7951,0.9006 1.27,1.2645 0.475,0.3643 1.0148,0.6636 1.5978,0.9338 0.5831,0.2701 1.209,0.5096 1.8757,0.703 0.6667,0.1927 1.3737,0.339 2.0223,0.4532 0.648,0.1143 1.2373,0.197 1.8601,0.2744 0.6219,0.0774 1.2772,0.1497 1.9508,0.182 0.6735,0.0323 1.3648,0.0252 1.8722,-0.009 0.5074,-0.0345 0.8309,-0.096 1.0894,-0.0938 0.2582,0.003 0.4513,0.0689 0.5749,0.1931 0.1236,0.1244 0.1777,0.3061 0.3869,0.5264 0.2089,0.2202 0.5732,0.4784 0.9745,0.7106 0.4006,0.2327 0.8385,0.4391 1.1625,0.5882 0.3243,0.1488 0.5344,0.2395 0.7713,0.3027 0.237,0.0635 0.4998,0.0992 0.6702,0.1724 0.1706,0.0731 0.248,0.1837 0.483,0.6242"
             style="fill:url(#linearGradient268);fill-rule:evenodd;stroke:none"
             id="path274" />
        </g>
      </g>
    </g>
    <g
       transform="matrix(1.25,0,0,-1.25,-484.20265,1159.0209)"
       id="g276">
      <g
         id="g278"
         clip-path="url(#clipPath280)">
        <g
           id="g284">
          <path
             inkscape:connector-curvature="0"
             d="m 753.0678,543.7259 c 0.116,0.3543 0.3045,0.9708 0.5519,1.6472 0.2475,0.6763 0.5531,1.4119 0.8862,2.0727 0.3327,0.661 0.6927,1.2472 1.1298,1.8535 0.4372,0.6064 0.9522,1.2323 1.5517,1.7626 0.5998,0.5304 1.2847,0.9649 1.8735,1.2595 0.5884,0.2945 1.0811,0.4481 1.608,0.5176 0.5273,0.0694 1.0891,0.0547 1.6575,-0.1052 0.5686,-0.1599 1.1435,-0.4655 1.5664,-0.8048 0.4229,-0.3396 0.6939,-0.7129 0.8903,-1.114 0.1968,-0.4002 0.3184,-0.8285 0.3952,-1.3277 0.076,-0.4995 0.1066,-1.0701 0.0831,-1.6651 -0.0241,-0.595 -0.1027,-1.2135 -0.2674,-1.885 -0.1646,-0.6713 -0.4155,-1.3955 -0.6882,-2.0597 -0.2727,-0.6644 -0.5669,-1.2688 -0.8192,-1.7697 -0.252,-0.5008 -0.4618,-0.8974 -0.5783,-1.1216 -0.1168,-0.2237 -0.1406,-0.2744 -0.1165,-0.3288 0.0241,-0.055 0.0958,-0.1129 0.3093,-0.2248 0.2137,-0.1123 0.5692,-0.2781 0.9737,-0.5777 0.4045,-0.2997 0.8572,-0.7339 1.1769,-1.2291 0.3192,-0.495 0.5049,-1.0514 0.5658,-1.5687 0.0612,-0.5165 -0.002,-0.9939 -0.1196,-1.4154 -0.1174,-0.4215 -0.2877,-0.7871 -0.5579,-1.1435 -0.2704,-0.356 -0.6403,-0.7032 -1.0732,-0.9963 -0.4322,-0.2929 -0.9272,-0.5321 -1.4663,-0.7076 -0.5392,-0.1749 -1.1228,-0.286 -1.6881,-0.3444 -0.5652,-0.0578 -1.1114,-0.0626 -1.5607,-0.1253 -0.4496,-0.062 -0.8025,-0.1822 -1.0919,-0.3381 -0.2889,-0.1557 -0.5142,-0.3473 -0.6735,-0.5701 -0.1596,-0.2222 -0.2529,-0.4754 -0.2727,-0.7568 -0.0202,-0.2812 0.0334,-0.5908 0.0629,-0.9261 0.0292,-0.3348 0.034,-0.6959 -0.0513,-1.0644 -0.085,-0.3685 -0.2605,-0.7441 -0.661,-1.2994 -0.4014,-0.5548 -1.0285,-1.2889 -1.6158,-1.8063 -0.5876,-0.5176 -1.1358,-0.8183 -1.6172,-1.002 -0.4813,-0.1837 -0.896,-0.2497 -1.2789,-0.2634 -0.3833,-0.0124 -0.7354,0.0278 -1.0463,0.1174 -0.3107,0.0893 -0.5806,0.2271 -0.8518,0.4277 -0.271,0.2007 -0.5437,0.4638 -0.7711,0.7986 -0.2276,0.335 -0.409,0.7409 -0.5473,1.1335 -0.1389,0.3924 -0.2344,0.7708 -0.307,1.1325 -0.0726,0.3614 -0.1222,0.7058 -0.142,0.9938 -0.0207,0.288 -0.0122,0.5188 -0.0185,0.6636 -0.006,0.1454 -0.0283,0.2049 -0.064,0.2341 -0.036,0.0292 -0.0862,0.0278 -0.3393,-0.0643 -0.2532,-0.0921 -0.7095,-0.275 -1.2252,-0.3994 -0.5156,-0.1242 -1.0904,-0.1908 -1.652,-0.1882 -0.5615,0.002 -1.11,0.0725 -1.6104,0.2194 -0.5005,0.1471 -0.953,0.3699 -1.4351,0.6752 -0.4822,0.3053 -0.9939,0.6925 -1.3842,1.1151 -0.39,0.4233 -0.6585,0.8827 -0.8345,1.3539 -0.1758,0.4717 -0.2591,0.9555 -0.2832,1.3813 -0.0241,0.4252 0.0108,0.7928 0.1276,1.1894 0.117,0.3969 0.316,0.8235 0.5386,1.2206 0.2222,0.3971 0.468,0.7651 0.7698,1.0942 0.3019,0.3291 0.6599,0.6193 1.0537,0.8937 0.3934,0.2742 0.8226,0.5315 1.2878,0.7594 0.4651,0.2285 0.966,0.4278 1.4278,0.5959 0.462,0.1681 0.8841,0.305 1.332,0.4425 0.4473,0.1377 0.9195,0.2758 1.4105,0.3869 0.4909,0.1111 1.0001,0.1956 1.3776,0.2358 0.3779,0.0406 0.6234,0.0369 0.813,0.0723 0.1899,0.0355 0.3229,0.1092 0.398,0.216 0.0748,0.1077 0.0907,0.2486 0.216,0.4374 0.125,0.1894 0.3594,0.4261 0.6242,0.6491 0.2647,0.2229 0.5598,0.4315 0.7787,0.5829 0.2191,0.1516 0.3619,0.2454 0.5278,0.3228 0.1658,0.0771 0.3546,0.1378 0.4705,0.2135 0.1157,0.0757 0.1582,0.1672 0.2738,0.5213"
             style="fill:url(#linearGradient286);fill-rule:evenodd;stroke:none"
             id="path292" />
        </g>
      </g>
    </g>
  </g>
</svg>
