<?xml version="1.0" encoding="UTF-8" standalone="no"?>
<!-- Created with Inkscape (http://www.inkscape.org/) -->

<svg
   xmlns:dc="http://purl.org/dc/elements/1.1/"
   xmlns:cc="http://creativecommons.org/ns#"
   xmlns:rdf="http://www.w3.org/1999/02/22-rdf-syntax-ns#"
   xmlns:svg="http://www.w3.org/2000/svg"
   xmlns="http://www.w3.org/2000/svg"
   xmlns:sodipodi="http://sodipodi.sourceforge.net/DTD/sodipodi-0.dtd"
   xmlns:inkscape="http://www.inkscape.org/namespaces/inkscape"
   width="1000.355"
   height="195.11792"
   id="svg8301"
   version="1.1"
   inkscape:version="0.48.4 r9939"
   sodipodi:docname="pumpkin-flags.svg">
  <defs
     id="defs8303" />
  <sodipodi:namedview
     id="base"
     pagecolor="#ffffff"
     bordercolor="#666666"
     borderopacity="1.0"
     inkscape:pageopacity="0.0"
     inkscape:pageshadow="2"
     inkscape:zoom="0.35"
     inkscape:cx="486.78353"
     inkscape:cy="-167.45332"
     inkscape:document-units="px"
     inkscape:current-layer="layer1"
     showgrid="false"
     fit-margin-top="0"
     fit-margin-left="0"
     fit-margin-right="0"
     fit-margin-bottom="0"
     inkscape:window-width="1920"
     inkscape:window-height="1056"
     inkscape:window-x="0"
     inkscape:window-y="24"
     inkscape:window-maximized="1" />
  <metadata
     id="metadata8306">
    <rdf:RDF>
      <cc:Work
         rdf:about="">
        <dc:format>image/svg+xml</dc:format>
        <dc:type
           rdf:resource="http://purl.org/dc/dcmitype/StillImage" />
        <dc:title></dc:title>
      </cc:Work>
    </rdf:RDF>
  </metadata>
  <g
     inkscape:label="Layer 1"
     inkscape:groupmode="layer"
     id="layer1"
     transform="translate(111.78353,-169.79093)">
    <g
       id="g808"
       transform="matrix(1.25,0,0,-1.25,17.596771,238.40381)">
      <path
         inkscape:connector-curvature="0"
         d="m 0,0 -2,-0.027 -0.397,29.558 2,0.027 L 0,0 z"
         style="fill:#000000;fill-opacity:1;fill-rule:nonzero;stroke:none"
         id="path810" />
    </g>
    <g
       id="g812"
       transform="matrix(1.25,0,0,-1.25,65.687071,289.12106)">
      <path
         inkscape:connector-curvature="0"
         d="m 0,0 c -5.477,-22.125 -27.849,-35.62 -49.975,-30.143 -22.125,5.477 -35.621,27.852 -30.145,49.977 5.478,22.123 27.855,35.62 49.978,30.143 C -8.015,44.499 5.477,22.124 0,0"
         style="fill:#1c1b1d;fill-opacity:1;fill-rule:nonzero;stroke:none"
         id="path814" />
    </g>
    <g
       id="g816"
       transform="matrix(1.25,0,0,-1.25,17.867171,230.71106)">
      <path
         inkscape:connector-curvature="0"
         d="M 0,0 0.071,1.413 C 1.978,1.317 3.898,1.074 5.782,0.693 L 5.502,-0.694 C 3.688,-0.325 1.836,-0.092 0,0 m 15.893,-4.48 c -1.616,0.882 -3.316,1.651 -5.053,2.283 l 0.485,1.329 c 1.801,-0.656 3.567,-1.454 5.246,-2.37 L 15.893,-4.48 z m -26.89,3.358 -0.355,1.37 c 1.857,0.48 3.76,0.822 5.665,1.015 l 0.143,-1.406 c -1.833,-0.188 -3.667,-0.518 -5.453,-0.979 m 35.687,-10.07 c -1.285,1.327 -2.678,2.569 -4.144,3.69 l 0.86,1.123 c 1.52,-1.162 2.969,-2.451 4.302,-3.831 l -1.018,-0.982 z m -45.858,5.729 -0.743,1.203 c 1.629,1.008 3.349,1.899 5.112,2.651 l 0.554,-1.3 c -1.695,-0.725 -3.352,-1.585 -4.923,-2.554 m 52.263,-14.748 c -0.833,1.649 -1.797,3.248 -2.863,4.751 l 1.153,0.817 c 1.109,-1.559 2.109,-3.218 2.972,-4.929 l -1.262,-0.639 z m -60.702,7.594 -1.066,0.931 c 1.257,1.441 2.639,2.803 4.103,4.043 l 0.915,-1.079 c -1.411,-1.195 -2.739,-2.504 -3.952,-3.895 m 64.154,-18.098 c -0.305,1.818 -0.753,3.627 -1.329,5.38 l 1.344,0.443 c 0.599,-1.822 1.064,-3.701 1.38,-5.587 l -1.395,-0.236 z m -70.079,8.758 -1.295,0.568 c 0.772,1.758 1.683,3.467 2.706,5.084 l 1.197,-0.759 c -0.987,-1.554 -1.865,-3.202 -2.608,-4.893 m 70.245,-19.814 c 0.251,1.831 0.365,3.692 0.338,5.533 l 1.415,0.022 c 0.029,-1.912 -0.09,-3.844 -0.351,-5.747 l -1.402,0.192 z m -74.537,9.299 c 0.188,1.625 0.484,3.259 0.879,4.856 0.067,0.267 0.135,0.532 0.205,0.795 l 1.366,-0.367 c -0.067,-0.255 -0.134,-0.51 -0.198,-0.768 -0.381,-1.538 -0.666,-3.112 -0.845,-4.679 l -1.407,0.163 z m 73.369,-19.002 -1.308,0.539 c 0.702,1.701 1.284,3.474 1.729,5.27 l 1.372,-0.34 c -0.461,-1.864 -1.065,-3.705 -1.793,-5.469 M -39.4,-43.95 c -0.362,1.882 -0.579,3.808 -0.648,5.723 l 1.413,0.052 c 0.068,-1.845 0.278,-3.698 0.622,-5.51 L -39.4,-43.95 z m 67.002,-17.358 -1.086,0.907 c 1.184,1.421 2.268,2.942 3.221,4.517 l 1.211,-0.731 c -0.99,-1.638 -2.115,-3.216 -3.346,-4.693 m -63.187,6.53 c -0.901,1.694 -1.681,3.465 -2.318,5.27 l 1.335,0.472 c 0.614,-1.738 1.364,-3.446 2.233,-5.076 l -1.25,-0.666 z m 54.587,-14.147 -0.768,1.19 c 1.549,1.002 3.036,2.131 4.418,3.354 l 0.938,-1.059 c -1.436,-1.271 -2.978,-2.443 -4.588,-3.485 M -28.735,-64 c -1.358,1.349 -2.627,2.812 -3.771,4.354 l 1.135,0.843 c 1.102,-1.484 2.325,-2.894 3.632,-4.191 L -28.735,-64 z m 37.277,-9.658 -0.385,1.363 c 1.778,0.501 3.529,1.141 5.21,1.902 l 0.582,-1.29 c -1.745,-0.79 -3.564,-1.454 -5.407,-1.975 m -27.993,2.887 c -1.704,0.885 -3.353,1.905 -4.901,3.035 l 0.836,1.143 c 1.488,-1.087 3.076,-2.069 4.716,-2.922 l -0.651,-1.256 z m 16.597,-4.295 0.042,1.414 c 1.841,-0.054 3.705,0.034 5.538,0.262 L 2.9,-74.793 c -1.905,-0.238 -3.841,-0.328 -5.754,-0.273 m -8.143,1.113 c -1.06,0.263 -2.121,0.573 -3.156,0.925 l 0.453,1.339 c 1.755,-0.596 3.575,-1.065 5.372,-1.39 l -0.253,-1.391 c -0.805,0.146 -1.61,0.317 -2.416,0.517"
         style="fill:#f8aa2a;fill-opacity:1;fill-rule:nonzero;stroke:none"
         id="path818" />
    </g>
    <g
       id="g820"
       transform="matrix(1.25,0,0,-1.25,-6.2465286,286.55144)">
      <path
         inkscape:connector-curvature="0"
         d="M 0,0 C 0.102,3.022 0.27,5.653 0.497,7.893 1.555,7.653 2.311,6.78 2.766,5.277 2.95,4.663 3.094,3.944 3.202,3.127 3.309,2.31 3.366,1.622 3.372,1.06 3.379,0.499 3.364,-0.261 3.331,-1.222 3.298,-2.18 2.972,-3.211 2.352,-4.311 1.73,-5.415 0.833,-6.091 -0.342,-6.34 l 0.08,2.342 -0.043,0.256 L 0,0 z M 1.589,24.314 C 3.003,24.117 3.636,21.845 3.488,17.497 3.341,13.152 2.354,10.967 0.525,10.95 l 0.266,7.77 c 0.096,2.852 0.363,4.718 0.798,5.594 M -2.445,4.911 -3.33,-6.186 c -0.006,-0.694 0.05,-1.29 0.168,-1.786 0.18,-0.647 0.635,-0.98 1.362,-0.994 2.128,-0.038 3.849,0.593 5.161,1.896 0.595,0.599 1.109,1.311 1.544,2.137 0.417,0.826 0.725,1.694 0.926,2.61 0.2,0.913 0.312,1.845 0.336,2.796 0.024,0.952 0.03,1.767 0.019,2.446 -0.101,2.994 -0.806,5.156 -2.111,6.487 0.797,1.073 1.376,2.242 1.742,3.5 0.364,1.259 0.582,2.975 0.656,5.149 C 6.548,20.23 6.1,22.173 5.126,23.89 4.631,24.768 3.943,25.458 3.067,25.968 2.188,26.477 1.279,26.74 0.341,26.757 -0.596,26.773 -1.187,26.572 -1.43,26.151 -1.673,25.732 -1.807,25.156 -1.831,24.427 L -1.84,24.146 -1.653,21.441 -2.445,4.911 z"
         style="fill:#f2f6fa;fill-opacity:1;fill-rule:nonzero;stroke:none"
         id="path822" />
    </g>
    <g
       id="g824"
       transform="matrix(1.25,0,0,-1.25,9.4919714,264.72768)">
      <path
         inkscape:connector-curvature="0"
         d="M 0,0 C 0.056,1.647 0.263,3.029 0.622,4.143 1.057,5.478 1.865,6.135 3.048,6.115 4.282,6.092 5.279,5.575 6.04,4.567 6.8,3.559 7.174,2.417 7.165,1.144 L 7.134,0.228 c -0.044,-1.326 0,-3.341 0.136,-6.045 0.137,-2.704 0.184,-4.711 0.138,-6.018 -0.044,-1.306 -0.182,-2.885 -0.416,-4.732 -0.136,-1.068 -0.314,-2.071 -0.532,-2.997 -0.235,-0.949 -0.516,-1.851 -0.84,-2.701 -0.324,-0.851 -0.75,-1.528 -1.273,-2.029 -0.525,-0.5 -1.1,-0.743 -1.724,-0.732 -0.765,0.403 -1.54,1.709 -2.326,3.916 -0.684,3.767 -0.941,8.174 -0.769,13.217 l 0.418,4.81 L 0,0 z m -3.094,-17.888 c 0.151,-1.973 0.676,-3.987 1.57,-6.043 0.94,-2.142 2.365,-3.23 4.275,-3.265 4.614,-0.085 7.09,4.876 7.43,14.878 l 0.1,5.911 0.013,0.382 C 10.411,-2.594 10.069,0.301 9.272,2.66 7.89,6.764 5.186,8.852 1.165,8.925 0.693,8.936 0.204,8.714 -0.302,8.264 -0.807,7.814 -1.356,6.617 -1.946,4.675 -2.65,2.376 -3.095,-1.506 -3.281,-6.975 l -0.031,-0.942 c 0.05,-0.001 0.072,-0.086 0.066,-0.256 l -0.119,-1.986 c -0.072,-2.174 0.017,-4.751 0.271,-7.729"
         style="fill:#f2f6fa;fill-opacity:1;fill-rule:nonzero;stroke:none"
         id="path826" />
    </g>
    <g
       id="g828"
       transform="matrix(1.25,0,0,-1.25,30.116271,265.10494)">
      <path
         inkscape:connector-curvature="0"
         d="M 0,0 C 0.056,1.648 0.264,3.029 0.623,4.144 1.059,5.479 1.866,6.137 3.05,6.114 4.282,6.091 5.28,5.575 6.039,4.569 6.8,3.56 7.175,2.418 7.167,1.145 L 7.136,0.227 c -0.047,-1.325 -0.001,-3.339 0.135,-6.043 0.136,-2.704 0.182,-4.711 0.138,-6.018 -0.045,-1.307 -0.182,-2.885 -0.414,-4.732 -0.139,-1.069 -0.317,-2.07 -0.534,-2.998 -0.234,-0.948 -0.516,-1.849 -0.838,-2.7 -0.326,-0.853 -0.751,-1.53 -1.276,-2.03 -0.525,-0.5 -1.098,-0.744 -1.723,-0.732 -0.766,0.403 -1.541,1.708 -2.327,3.917 -0.684,3.767 -0.941,8.173 -0.767,13.216 L -0.054,-3.082 0,0 z m -3.094,-17.887 c 0.153,-1.974 0.676,-3.988 1.571,-6.043 0.941,-2.142 2.365,-3.231 4.275,-3.265 4.613,-0.084 7.089,4.875 7.43,14.877 l 0.1,5.911 0.012,0.383 C 10.413,-2.595 10.07,0.302 9.272,2.66 7.889,6.764 5.188,8.853 1.167,8.926 0.694,8.935 0.204,8.713 -0.302,8.265 -0.808,7.816 -1.355,6.619 -1.945,4.676 -2.649,2.377 -3.094,-1.506 -3.281,-6.975 l -0.032,-0.942 c 0.051,-0.002 0.074,-0.085 0.067,-0.257 l -0.116,-1.986 c -0.076,-2.173 0.015,-4.748 0.268,-7.727"
         style="fill:#f2f6fa;fill-opacity:1;fill-rule:nonzero;stroke:none"
         id="path830" />
    </g>
    <g
       id="g832"
       transform="matrix(1.25,0,0,-1.25,138.40497,258.43443)">
      <path
         inkscape:connector-curvature="0"
         d="m 0,0 -2.001,-0.027 -0.397,30.558 2,0.027 L 0,0 z"
         style="fill:#000000;fill-opacity:1;fill-rule:nonzero;stroke:none"
         id="path834" />
    </g>
    <g
       id="g836"
       transform="matrix(1.25,0,0,-1.25,185.54847,307.13743)">
      <path
         inkscape:connector-curvature="0"
         d="m 0,0 c -4.151,-22.596 -25.828,-37.543 -48.422,-33.393 -22.593,4.15 -37.544,25.827 -33.393,48.422 4.15,22.591 25.829,37.542 48.422,33.391 C -10.799,44.27 4.149,22.59 0,0"
         style="fill:#432e80;fill-opacity:1;fill-rule:nonzero;stroke:none"
         id="path838" />
    </g>
    <g
       id="g840"
       transform="matrix(1.25,0,0,-1.25,133.85527,251.31956)">
      <path
         inkscape:connector-curvature="0"
         d="m 0,0 -0.017,1.424 c 1.925,0.022 3.87,-0.103 5.79,-0.37 L 5.574,-0.359 C 3.726,-0.102 1.85,0.019 0,0 m 16.262,-3.53 c -1.681,0.788 -3.438,1.456 -5.225,1.986 l 0.405,1.365 c 1.855,-0.548 3.68,-1.242 5.425,-2.062 L 16.262,-3.53 z m -27.258,1.726 -0.44,1.357 c 1.837,0.597 3.732,1.056 5.635,1.368 l 0.232,-1.407 c -1.832,-0.3 -3.659,-0.744 -5.427,-1.318 m 36.517,-7.939 c -1.372,1.259 -2.851,2.422 -4.394,3.458 l 0.795,1.183 c 1.602,-1.075 3.138,-2.282 4.563,-3.59 l -0.964,-1.051 z m -46.48,2.948 -0.822,1.167 c 1.577,1.111 3.252,2.113 4.978,2.978 l 0.64,-1.275 c -1.662,-0.832 -3.277,-1.8 -4.796,-2.87 M 32.52,-18.42 c -0.939,1.608 -2.008,3.156 -3.172,4.601 l 1.11,0.896 c 1.21,-1.502 2.319,-3.109 3.292,-4.779 l -1.23,-0.718 z m -61.528,3.909 -1.131,0.869 c 1.176,1.528 2.481,2.984 3.877,4.322 l 0.987,-1.03 c -1.345,-1.288 -2.6,-2.688 -3.733,-4.161 m 65.647,-14.265 c -0.419,1.811 -0.98,3.605 -1.667,5.331 l 1.322,0.527 c 0.717,-1.793 1.298,-3.655 1.733,-5.533 l -1.388,-0.325 z m -71.033,4.506 -1.339,0.49 c 0.667,1.816 1.478,3.592 2.411,5.281 l 1.248,-0.688 c -0.897,-1.626 -1.677,-3.338 -2.32,-5.083 m 71.878,-15.617 c 0.14,1.858 0.14,3.738 10e-4,5.587 l 1.422,0.11 c 0.145,-1.923 0.146,-3.874 -10e-4,-5.804 l -1.422,0.107 z m -75.551,4.774 c 0.09,1.647 0.287,3.309 0.588,4.94 0.049,0.271 0.099,0.543 0.156,0.812 l 1.397,-0.286 c -0.052,-0.26 -0.105,-0.522 -0.153,-0.783 -0.288,-1.571 -0.48,-3.172 -0.564,-4.761 l -1.424,0.078 z m 74.972,-14.607 -1.348,0.463 c 0.602,1.755 1.077,3.574 1.414,5.408 l 1.403,-0.258 c -0.35,-1.904 -0.843,-3.794 -1.469,-5.613 m -73.841,3.087 c -0.478,1.871 -0.815,3.795 -1.004,5.718 l 1.419,0.138 c 0.181,-1.849 0.507,-3.702 0.964,-5.506 l -1.379,-0.35 z m 68.469,-13.343 -1.151,0.847 c 1.106,1.5 2.103,3.095 2.964,4.739 l 1.264,-0.659 c -0.896,-1.71 -1.931,-3.366 -3.077,-4.927 m -63.966,2.687 c -1.011,1.647 -1.903,3.382 -2.655,5.157 l 1.315,0.556 c 0.723,-1.709 1.582,-3.381 2.556,-4.968 l -1.216,-0.745 z m 55.783,-10.875 -0.847,1.147 c 1.497,1.104 2.922,2.329 4.236,3.645 l 1.01,-1.006 c -1.365,-1.368 -2.845,-2.642 -4.399,-3.786 m -48.327,2.019 c -1.447,1.273 -2.813,2.667 -4.061,4.148 l 1.091,0.918 c 1.201,-1.426 2.519,-2.768 3.912,-3.993 l -0.942,-1.073 z m 38.093,-7.424 -0.47,1.346 c 1.755,0.613 3.481,1.363 5.123,2.231 l 0.667,-1.26 c -1.707,-0.901 -3.498,-1.682 -5.32,-2.317 m -28.335,1.183 c -1.769,0.786 -3.49,1.71 -5.115,2.751 l 0.769,1.201 c 1.565,-1 3.219,-1.894 4.923,-2.647 l -0.577,-1.305 z m 16.958,-3.302 -0.044,1.426 c 1.855,0.058 3.724,0.263 5.556,0.602 l 0.258,-1.399 c -1.899,-0.356 -3.841,-0.567 -5.77,-0.629 m -8.258,0.621 c -1.082,0.199 -2.17,0.445 -3.232,0.736 l 0.374,1.376 c 1.802,-0.495 3.659,-0.853 5.488,-1.069 l -0.168,-1.415 c -0.819,0.096 -1.641,0.221 -2.462,0.372"
         style="fill:#f26f2f;fill-opacity:1;fill-rule:nonzero;stroke:none"
         id="path842" />
    </g>
    <g
       id="g844"
       transform="matrix(1.25,0,0,-1.25,142.19577,280.17693)">
      <path
         inkscape:connector-curvature="0"
         d="m 0,0 c -1.032,-0.163 -2.318,0.951 -1.831,3.233 0,0 0.319,1.494 1.651,1.875 C 1.155,5.49 2.167,3.475 1.977,2.009 1.79,0.544 1.032,0.162 0,0 m -4.06,-9.796 c -1.486,0.06 -2.623,1.696 -2.542,3.653 0.083,1.955 1.353,3.49 2.838,3.428 1.486,-0.062 2.622,-1.699 2.542,-3.654 -0.082,-1.955 -1.353,-3.489 -2.838,-3.427 m -4.24,9.74 c -1.009,0.271 -1.723,0.734 -1.753,2.21 -0.03,1.475 1.193,3.37 2.477,2.85 C -6.294,4.483 -6.135,2.966 -6.135,2.966 -5.893,0.642 -7.292,-0.327 -8.3,-0.056 M 11.284,-18.38 C 15.02,-8.875 27.16,-6.57 22.071,-1.023 18.198,3.198 14.307,-2.617 10.82,-7.001 8.922,-9.389 4.579,-9.415 5.84,-1.864 7.106,5.684 4.645,17.67 -6.628,15.195 c -10.764,-2.364 -6.161,-15.778 -7.908,-19.906 -1.746,-4.124 -6.215,-2.318 -9.17,0.902 -1.972,2.148 -4.824,4.588 -7.45,1.691 -1.59,-1.754 -1.482,-4.788 4.319,-9.259 5.519,-4.255 5.061,-7.137 -0.221,-8.878 -11.495,-3.792 -2.501,-14.176 5.833,-19.171 8.335,-4.995 15.432,-4.386 15.432,-4.386 18.329,0.465 14.835,19.725 17.077,25.432"
         style="fill:#eef2ee;fill-opacity:1;fill-rule:nonzero;stroke:none"
         id="path846" />
    </g>
    <g
       id="g848"
       transform="matrix(1.25,0,0,-1.25,169.78497,281.45618)">
      <path
         inkscape:connector-curvature="0"
         d="m 0,0 c -0.207,0.227 -0.413,0.417 -0.62,0.587 0.353,-2.935 -3.781,-6.36 -7.976,-10.449 -4.194,-4.091 -4.566,-7.769 -7.295,-19.317 -2.729,-11.549 -17.237,-10.604 -25.266,-6.902 -7.956,3.67 -13.11,12.437 -13.201,12.596 -1.471,-4.731 4.967,-11.266 11.062,-14.917 8.335,-4.996 15.432,-4.387 15.432,-4.387 18.328,0.466 14.834,19.725 17.076,25.432 C -7.051,-7.852 5.088,-5.547 0,0"
         style="fill:#d3d7d3;fill-opacity:1;fill-rule:nonzero;stroke:none"
         id="path850" />
    </g>
    <g
       id="g852"
       transform="matrix(1.25,0,0,-1.25,261.68857,269.32668)">
      <path
         inkscape:connector-curvature="0"
         d="m 0,0 -1.999,-0.027 -0.398,29.558 2,0.028 L 0,0 z"
         style="fill:#000000;fill-opacity:1;fill-rule:nonzero;stroke:none"
         id="path854" />
    </g>
    <g
       id="g856"
       transform="matrix(1.25,0,0,-1.25,308.99757,310.04993)">
      <path
         inkscape:connector-curvature="0"
         d="m 0,0 c 0.307,-22.791 -17.917,-41.514 -40.707,-41.82 -22.79,-0.308 -41.515,17.918 -41.821,40.709 -0.307,22.791 17.922,41.514 40.71,41.82 C -19.027,41.016 -0.307,22.79 0,0"
         style="fill:#1c1b1d;fill-opacity:1;fill-rule:nonzero;stroke:none"
         id="path858" />
    </g>
    <g
       id="g860"
       transform="matrix(1.25,0,0,-1.25,247.93977,265.66219)">
      <path
         inkscape:connector-curvature="0"
         d="m 0,0 -0.289,1.385 c 1.87,0.39 3.788,0.644 5.708,0.752 L 5.5,0.723 C 3.648,0.621 1.801,0.377 0,0 M 16.509,-0.305 C 14.724,0.137 12.882,0.45 11.044,0.622 l 0.13,1.409 c 1.912,-0.179 3.822,-0.502 5.678,-0.965 l -0.343,-1.371 z m -26.863,-3.564 -0.689,1.233 c 1.672,0.936 3.428,1.749 5.221,2.419 l 0.496,-1.325 C -7.05,-2.189 -8.743,-2.97 -10.354,-3.869 m 37.073,-0.704 c -1.577,0.962 -3.24,1.809 -4.94,2.522 l 0.545,1.304 c 1.765,-0.738 3.493,-1.619 5.131,-2.617 l -0.736,-1.209 z m -45.81,-6.073 -1.025,0.977 c 1.322,1.385 2.759,2.683 4.274,3.857 l 0.867,-1.116 c -1.459,-1.131 -2.843,-2.382 -4.116,-3.718 m 54.292,-1.027 c -1.225,1.384 -2.56,2.685 -3.972,3.87 l 0.907,1.083 c 1.468,-1.228 2.855,-2.58 4.124,-4.015 l -1.059,-0.938 z m -60.644,-8.032 -1.266,0.628 c 0.85,1.715 1.842,3.382 2.943,4.953 l 1.158,-0.813 c -1.06,-1.512 -2.014,-3.116 -2.835,-4.768 m 66.646,-1.255 c -0.756,1.681 -1.648,3.318 -2.648,4.867 l 1.187,0.768 c 1.039,-1.607 1.966,-3.309 2.75,-5.053 l -1.289,-0.582 z m -70.011,-9.281 -1.397,0.22 c 0.303,1.896 0.749,3.783 1.331,5.604 l 1.348,-0.431 c -0.56,-1.754 -0.991,-3.57 -1.282,-5.393 m 72.973,-1.372 c -0.222,1.834 -0.584,3.664 -1.076,5.438 l 1.362,0.379 c 0.514,-1.843 0.889,-3.743 1.117,-5.648 l -1.403,-0.169 z m -74.461,-9.889 c -0.23,1.62 -0.357,3.275 -0.38,4.921 -0.004,0.275 -0.005,0.548 -0.003,0.822 l 1.415,-0.009 c -0.001,-0.265 0,-0.528 0.003,-0.794 0.021,-1.584 0.143,-3.181 0.367,-4.74 l -1.402,-0.2 z m 75.788,0.206 -1.402,0.191 c 0.247,1.821 0.361,3.686 0.337,5.535 l 1.414,0.019 c 0.026,-1.919 -0.092,-3.853 -0.349,-5.745 m -72.47,-11.201 c -0.826,1.73 -1.525,3.537 -2.077,5.372 l 1.354,0.407 c 0.532,-1.764 1.205,-3.506 1.998,-5.172 l -1.275,-0.607 z m 69.213,0.184 -1.281,0.602 c 0.785,1.673 1.447,3.418 1.971,5.185 l 1.358,-0.401 c -0.544,-1.836 -1.233,-3.647 -2.048,-5.386 m -62.779,-9.692 c -1.301,1.41 -2.504,2.928 -3.577,4.511 l 1.172,0.793 c 1.034,-1.526 2.191,-2.988 3.445,-4.345 l -1.04,-0.959 z m 56.39,0.144 -1.045,0.955 c 1.244,1.363 2.396,2.831 3.423,4.365 l 1.174,-0.787 c -1.066,-1.593 -2.26,-3.118 -3.552,-4.533 m -47.43,-7.328 c -1.654,0.959 -3.251,2.054 -4.751,3.255 l 0.886,1.104 c 1.443,-1.155 2.979,-2.211 4.576,-3.134 l -0.711,-1.225 z m 38.507,0.101 -0.716,1.219 c 1.59,0.935 3.125,1.997 4.557,3.158 l 0.892,-1.099 c -1.488,-1.206 -3.081,-2.309 -4.733,-3.278 m -27.809,-4.3 c -1.873,0.425 -3.727,0.993 -5.509,1.694 l 0.518,1.317 c 1.715,-0.674 3.498,-1.223 5.301,-1.631 l -0.31,-1.38 z m 17.143,0.049 -0.318,1.379 c 1.795,0.415 3.576,0.972 5.292,1.656 l 0.524,-1.314 c -1.783,-0.711 -3.633,-1.29 -5.498,-1.721 M 8.098,-74.325 C 7.007,-74.339 5.9,-74.308 4.811,-74.23 l 0.1,1.411 c 1.849,-0.133 3.728,-0.126 5.548,0.018 l 0.108,-1.412 c -0.816,-0.063 -1.639,-0.1 -2.469,-0.112"
         style="fill:#f8aa2a;fill-opacity:1;fill-rule:nonzero;stroke:none"
         id="path862" />
    </g>
    <g
       id="g864"
       transform="matrix(1.25,0,0,-1.25,241.43527,311.29569)">
      <path
         inkscape:connector-curvature="0"
         d="m 0,0 c -0.503,-0.007 -0.76,0.319 -0.768,0.976 -0.051,3.773 -0.185,7.262 -0.402,10.471 -0.533,0.09 -1.032,0.133 -1.497,0.126 -0.463,-0.007 -0.879,-0.09 -1.244,-0.249 0.014,-1.103 0.119,-2.77 0.314,-5.002 0.194,-2.232 0.3,-3.919 0.315,-5.06 C -3.28,1.068 -3.335,0.889 -3.449,0.723 -3.564,0.556 -3.716,0.473 -3.91,0.47 -4.451,0.453 -4.871,2.145 -5.168,5.546 c -0.401,4.609 -0.645,10.188 -0.733,16.736 -0.005,0.357 0.162,0.538 0.501,0.543 0.183,0.003 0.382,-0.045 0.596,-0.144 0.214,-0.099 0.366,-0.205 0.454,-0.321 -0.058,-0.707 -0.082,-1.452 -0.071,-2.235 l 0.285,-6.105 -0.013,-1.118 c 0.003,-0.281 0.025,-0.536 0.067,-0.768 l 2.885,0.256 -0.248,9.749 -0.011,0.782 c 0.755,0.011 1.21,-0.322 1.364,-0.997 0.071,-0.328 0.117,-1.164 0.136,-2.508 0.017,-1.345 0.15,-4.195 0.397,-8.549 C 0.687,6.512 0.827,3.251 0.855,1.085 0.859,0.824 0.78,0.579 0.619,0.349 0.457,0.12 0.251,0.003 0,0"
         style="fill:#ffffff;fill-opacity:1;fill-rule:nonzero;stroke:none"
         id="path866" />
    </g>
    <g
       id="g868"
       transform="matrix(1.25,0,0,-1.25,251.43777,298.45519)">
      <path
         inkscape:connector-curvature="0"
         d="m 0,0 c -0.198,1.753 -0.378,3.424 -0.539,5.014 -0.162,1.589 -0.245,2.55 -0.25,2.884 -0.004,0.334 -0.002,0.524 0.007,0.574 C -1.087,8.148 -1.51,6.366 -2.052,3.129 -2.594,-0.11 -2.878,-2.16 -2.905,-3.02 c 0.825,-0.213 1.515,-0.315 2.072,-0.308 0.555,0.008 0.95,0.043 1.181,0.104 C 0.313,-2.828 0.197,-1.753 0,0 M 1.378,-9.682 C 0.769,-9.69 0.46,-9.438 0.453,-8.925 l -0.052,3.873 c -0.283,0.19 -0.79,0.348 -1.522,0.474 -0.732,0.124 -1.384,0.203 -1.955,0.235 -0.198,-0.352 -0.359,-0.857 -0.48,-1.516 -0.122,-0.66 -0.249,-1.325 -0.38,-1.993 -0.132,-0.669 -0.31,-1.199 -0.537,-1.589 -0.774,-0.011 -1.212,0.182 -1.314,0.577 0.266,0.39 0.679,2.374 1.241,5.951 0.561,3.578 1.024,6.377 1.388,8.399 0.365,2.022 0.765,3.722 1.201,5.102 0.436,1.38 0.862,2.072 1.278,2.078 0.416,0.005 0.737,-0.077 0.961,-0.248 C 0.292,11.712 0.511,9.804 0.939,6.695 1.369,3.586 1.59,1.574 1.602,0.661 1.614,-0.253 1.738,-1.771 1.975,-3.892 2.211,-6.012 2.336,-7.604 2.351,-8.667 2.359,-9.335 2.036,-9.672 1.378,-9.682"
         style="fill:#ffffff;fill-opacity:1;fill-rule:nonzero;stroke:none"
         id="path870" />
    </g>
    <g
       id="g872"
       transform="matrix(1.25,0,0,-1.25,258.60147,295.79218)">
      <path
         inkscape:connector-curvature="0"
         d="m 0,0 c 1.491,1.433 2.222,3.121 2.196,5.065 l 0,0.015 C 2.181,6.191 2.035,6.968 1.759,7.41 1.62,7.62 1.509,7.786 1.425,7.905 1.341,8.025 1.173,8.185 0.918,8.385 0.615,8.622 0.15,8.96 -0.474,9.396 -0.459,8.352 -0.38,6.786 -0.236,4.698 -0.092,2.611 -0.013,1.044 0,0 m -1.246,-10.943 0.004,10.607 c -0.063,4.662 -0.367,8.193 -0.912,10.595 0.303,0.449 0.682,0.677 1.137,0.682 0.735,0.011 1.407,-0.146 2.016,-0.465 C 1.608,10.155 2.104,9.727 2.489,9.19 3.288,8.069 3.697,6.783 3.716,5.331 3.736,3.881 3.44,2.559 2.826,1.366 2.213,0.173 1.302,-0.761 0.093,-1.435 l 0.356,-9.253 c 0.012,-0.822 -0.313,-1.238 -0.969,-1.246 -0.243,-0.004 -0.422,0.098 -0.541,0.304 -0.12,0.206 -0.181,0.435 -0.185,0.687"
         style="fill:#ffffff;fill-opacity:1;fill-rule:nonzero;stroke:none"
         id="path874" />
    </g>
    <g
       id="g876"
       transform="matrix(1.25,0,0,-1.25,267.57907,295.67131)">
      <path
         inkscape:connector-curvature="0"
         d="m 0,0 c 1.489,1.432 2.222,3.121 2.195,5.065 l 0,0.015 C 2.181,6.191 2.035,6.968 1.758,7.41 1.619,7.62 1.508,7.786 1.424,7.905 1.34,8.025 1.172,8.185 0.917,8.384 0.614,8.622 0.15,8.96 -0.475,9.396 -0.46,8.352 -0.381,6.786 -0.237,4.698 -0.093,2.61 -0.014,1.044 0,0 m -1.246,-10.944 0.003,10.608 c -0.063,4.662 -0.366,8.193 -0.911,10.595 0.302,0.449 0.681,0.676 1.136,0.683 0.735,0.009 1.407,-0.147 2.017,-0.466 C 1.607,10.155 2.104,9.726 2.488,9.189 3.287,8.068 3.696,6.783 3.716,5.332 3.735,3.881 3.438,2.559 2.826,1.366 2.213,0.173 1.302,-0.761 0.092,-1.436 l 0.357,-9.252 c 0.011,-0.823 -0.313,-1.238 -0.97,-1.247 -0.242,-0.003 -0.422,0.099 -0.541,0.305 -0.12,0.207 -0.181,0.435 -0.184,0.686"
         style="fill:#ffffff;fill-opacity:1;fill-rule:nonzero;stroke:none"
         id="path878" />
    </g>
    <g
       id="g880"
       transform="matrix(1.25,0,0,-1.25,277.29217,309.79731)">
      <path
         inkscape:connector-curvature="0"
         d="m 0,0 0.068,5.747 c -0.008,0.58 -0.114,1.437 -0.318,2.571 -0.204,1.134 -0.31,2.047 -0.319,2.739 -0.01,0.691 -0.14,1.531 -0.39,2.519 -0.251,0.989 -0.526,1.877 -0.827,2.666 -0.792,2.069 -1.197,3.839 -1.217,5.31 -0.003,0.145 0.081,0.268 0.248,0.373 0.168,0.103 0.343,0.156 0.527,0.158 0.184,0.003 0.383,-0.221 0.598,-0.672 0.214,-0.453 0.412,-1.031 0.595,-1.734 0.185,-0.704 0.356,-1.408 0.515,-2.112 0.16,-0.704 0.306,-1.386 0.441,-2.046 0.135,-0.662 0.233,-1.089 0.294,-1.281 0.036,0.175 0.077,0.589 0.121,1.242 0.044,0.654 0.095,1.324 0.154,2.011 0.068,0.698 0.155,1.396 0.263,2.094 0.239,1.6 0.622,2.403 1.149,2.41 C 2.43,22.001 2.694,21.898 2.697,21.686 2.712,20.574 2.497,18.912 2.053,16.7 1.609,14.489 1.395,12.812 1.41,11.671 L 1.337,10.64 1.342,10.19 1.609,2.314 1.73,0.836 1.738,0.169 C 1.742,-0.092 1.646,-0.305 1.45,-0.467 1.254,-0.629 1.039,-0.712 0.807,-0.715 0.575,-0.718 0.383,-0.65 0.232,-0.512 0.08,-0.374 0.003,-0.203 0,0"
         style="fill:#ffffff;fill-opacity:1;fill-rule:nonzero;stroke:none"
         id="path882" />
    </g>
    <g
       id="g884"
       transform="matrix(1.25,0,0,-1.25,227.37157,334.41894)">
      <path
         inkscape:connector-curvature="0"
         d="M 0,0 C -0.385,-0.005 -0.581,0.244 -0.588,0.747 -0.626,3.634 -0.729,6.305 -0.896,8.761 -1.303,8.829 -1.685,8.861 -2.04,8.856 -2.396,8.851 -2.713,8.788 -2.993,8.666 -2.981,7.822 -2.901,6.546 -2.752,4.838 -2.603,3.13 -2.523,1.839 -2.511,0.966 -2.509,0.818 -2.552,0.68 -2.639,0.553 -2.727,0.426 -2.844,0.362 -2.992,0.359 -3.407,0.346 -3.728,1.641 -3.955,4.244 c -0.307,3.528 -0.493,7.797 -0.561,12.807 -0.003,0.274 0.124,0.413 0.384,0.416 0.14,0.002 0.292,-0.035 0.456,-0.11 0.163,-0.075 0.28,-0.158 0.348,-0.246 C -3.373,16.57 -3.391,16 -3.383,15.4 l 0.218,-4.671 -0.011,-0.855 c 0.004,-0.215 0.021,-0.411 0.052,-0.588 l 2.207,0.197 -0.188,7.459 -0.009,0.599 c 0.578,0.008 0.926,-0.247 1.044,-0.764 0.055,-0.25 0.09,-0.89 0.103,-1.919 C 0.047,13.83 0.149,11.648 0.338,8.316 0.527,4.983 0.633,2.489 0.655,0.831 0.658,0.631 0.597,0.442 0.474,0.267 0.351,0.091 0.192,0.002 0,0"
         style="fill:#ffffff;fill-opacity:1;fill-rule:nonzero;stroke:none"
         id="path886" />
    </g>
    <g
       id="g888"
       transform="matrix(1.25,0,0,-1.25,235.02607,324.59281)">
      <path
         inkscape:connector-curvature="0"
         d="M 0,0 C -0.151,1.342 -0.289,2.621 -0.413,3.836 -0.537,5.053 -0.6,5.789 -0.603,6.044 -0.606,6.299 -0.605,6.445 -0.598,6.482 -0.832,6.235 -1.156,4.872 -1.57,2.394 c -0.415,-2.478 -0.632,-4.047 -0.653,-4.706 0.631,-0.162 1.16,-0.239 1.586,-0.234 0.425,0.006 0.727,0.032 0.903,0.079 C 0.24,-2.164 0.151,-1.341 0,0 M 1.054,-7.409 C 0.588,-7.415 0.353,-7.223 0.347,-6.83 l -0.04,2.965 c -0.216,0.145 -0.604,0.265 -1.165,0.362 -0.56,0.096 -1.059,0.155 -1.496,0.179 -0.151,-0.269 -0.274,-0.655 -0.367,-1.16 -0.093,-0.504 -0.19,-1.013 -0.29,-1.525 -0.101,-0.512 -0.238,-0.918 -0.412,-1.216 -0.592,-0.008 -0.927,0.139 -1.005,0.441 0.203,0.3 0.519,1.818 0.949,4.555 0.43,2.738 0.784,4.88 1.063,6.427 0.279,1.548 0.584,2.849 0.919,3.906 0.333,1.055 0.66,1.585 0.978,1.589 C -0.201,9.697 0.043,9.634 0.216,9.503 0.224,8.963 0.392,7.502 0.72,5.124 1.048,2.744 1.216,1.205 1.225,0.505 1.235,-0.194 1.331,-1.355 1.511,-2.978 1.692,-4.6 1.789,-5.819 1.799,-6.633 1.806,-7.143 1.558,-7.402 1.054,-7.409"
         style="fill:#ffffff;fill-opacity:1;fill-rule:nonzero;stroke:none"
         id="path890" />
    </g>
    <g
       id="g892"
       transform="matrix(1.25,0,0,-1.25,240.64067,323.05231)">
      <path
         inkscape:connector-curvature="0"
         d="M 0,0 0.032,-0.722 0.034,-0.821 C 0.11,-2.139 0.167,-4.114 0.203,-6.749 L 0.21,-7.327 1.942,-7.303 C 2.271,-7.521 2.437,-7.729 2.439,-7.929 2.442,-8.129 2.388,-8.295 2.28,-8.425 2.17,-8.557 2.056,-8.623 1.938,-8.624 1.819,-8.627 1.683,-8.602 1.526,-8.552 1.4,-8.584 1.257,-8.601 1.094,-8.603 l -0.733,0.024 c -0.153,-0.188 -0.347,-0.282 -0.58,-0.285 -0.234,-0.004 -0.431,0.066 -0.592,0.208 -0.161,0.142 -0.242,0.309 -0.245,0.502 l 0.131,1.001 c -0.023,1.725 -0.134,4.309 -0.332,7.752 -0.198,3.443 -0.308,6.027 -0.332,7.752 -0.002,0.141 0.052,0.254 0.162,0.341 0.11,0.086 0.249,0.131 0.415,0.134 0.167,0.002 0.319,-0.059 0.458,-0.183 0.137,-0.124 0.208,-0.279 0.211,-0.464 L 0,0 z"
         style="fill:#ffffff;fill-opacity:1;fill-rule:nonzero;stroke:none"
         id="path894" />
    </g>
    <g
       id="g896"
       transform="matrix(1.25,0,0,-1.25,246.60807,322.97169)">
      <path
         inkscape:connector-curvature="0"
         d="m 0,0 0.033,-0.722 0,-0.099 C 0.111,-2.139 0.168,-4.114 0.203,-6.75 L 0.21,-7.327 1.942,-7.303 C 2.27,-7.521 2.437,-7.729 2.439,-7.93 2.442,-8.129 2.389,-8.295 2.279,-8.426 2.169,-8.557 2.056,-8.623 1.938,-8.625 1.819,-8.627 1.683,-8.602 1.525,-8.552 1.4,-8.585 1.256,-8.601 1.093,-8.603 L 0.36,-8.579 c -0.153,-0.188 -0.345,-0.283 -0.578,-0.286 -0.234,-0.003 -0.431,0.067 -0.592,0.208 -0.161,0.143 -0.243,0.31 -0.246,0.503 l 0.131,1.001 c -0.023,1.724 -0.134,4.308 -0.332,7.752 -0.198,3.443 -0.308,6.027 -0.331,7.751 -0.003,0.141 0.052,0.255 0.162,0.342 0.109,0.086 0.247,0.131 0.414,0.133 0.166,0.003 0.319,-0.058 0.457,-0.183 0.139,-0.123 0.21,-0.278 0.213,-0.463 L 0,0 z"
         style="fill:#ffffff;fill-opacity:1;fill-rule:nonzero;stroke:none"
         id="path898" />
    </g>
    <g
       id="g900"
       transform="matrix(1.25,0,0,-1.25,255.37207,314.63006)">
      <path
         inkscape:connector-curvature="0"
         d="M 0,0 C -0.156,0.387 -0.349,0.684 -0.577,0.892 -0.806,1.1 -1.032,1.202 -1.254,1.199 -1.476,1.197 -1.658,1.116 -1.8,0.958 -1.942,0.801 -2.061,0.579 -2.157,0.292 -2.254,0.006 -2.338,-0.3 -2.412,-0.627 -2.485,-0.953 -2.539,-1.33 -2.574,-1.756 -2.609,-2.182 -2.639,-2.57 -2.664,-2.918 -2.681,-3.259 -2.695,-3.636 -2.704,-4.051 -2.71,-4.739 -2.713,-5.276 -2.716,-5.661 l 0.001,-0.1 c 0.014,-1.014 0.106,-2.107 0.279,-3.278 0.17,-1.17 0.344,-2.128 0.52,-2.874 0.177,-0.746 0.41,-1.377 0.698,-1.896 0.288,-0.517 0.606,-0.774 0.954,-0.769 0.304,0.004 0.555,0.292 0.755,0.865 0.199,0.58 0.338,1.293 0.415,2.138 0.128,1.512 0.189,2.573 0.185,3.183 -0.005,0.611 -0.01,1.058 -0.018,1.339 -0.007,0.281 -0.025,0.689 -0.05,1.226 C 0.998,-5.291 0.959,-4.789 0.908,-4.318 0.858,-3.849 0.793,-3.33 0.716,-2.762 0.637,-2.191 0.538,-1.687 0.417,-1.243 0.297,-0.801 0.157,-0.387 0,0 m 2.128,-8.294 -0.161,-2.878 10e-4,-0.101 c -0.09,-0.422 -0.132,-0.878 -0.126,-1.367 0.007,-0.488 -0.072,-0.962 -0.236,-1.419 -0.164,-0.458 -0.418,-0.864 -0.761,-1.22 -0.344,-0.357 -0.722,-0.538 -1.137,-0.544 -0.414,-0.004 -0.794,0.131 -1.139,0.408 -0.342,0.276 -0.629,0.633 -0.857,1.071 -0.228,0.437 -0.431,0.96 -0.61,1.568 -0.178,0.608 -0.317,1.203 -0.417,1.782 -0.101,0.579 -0.185,1.192 -0.253,1.834 -0.102,0.984 -0.155,1.747 -0.159,2.292 -0.004,0.544 -0.011,1.01 -0.024,1.398 -0.013,0.389 -0.025,0.738 -0.036,1.05 -0.002,0.155 -0.005,0.328 -0.007,0.516 -0.003,0.189 -0.006,0.39 -0.009,0.605 0.002,0.437 0.01,0.829 0.024,1.177 0.013,0.348 0.041,0.724 0.084,1.128 0.043,0.404 0.099,0.761 0.17,1.068 0.069,0.309 0.165,0.611 0.286,0.909 0.13,0.306 0.274,0.556 0.434,0.75 0.365,0.434 0.787,0.655 1.269,0.662 C -1.055,2.4 -0.643,2.32 -0.3,2.151 0.043,1.981 0.333,1.705 0.572,1.324 0.81,0.942 1.019,0.571 1.197,0.21 1.376,-0.15 1.52,-0.653 1.629,-1.299 1.736,-1.946 1.823,-2.468 1.889,-2.867 1.953,-3.274 2.001,-3.854 2.034,-4.608 2.077,-5.623 2.103,-6.414 2.11,-6.984 l 0.018,-1.31 z"
         style="fill:#ffffff;fill-opacity:1;fill-rule:nonzero;stroke:none"
         id="path902" />
    </g>
    <g
       id="g904"
       transform="matrix(1.25,0,0,-1.25,268.61797,332.83681)">
      <path
         inkscape:connector-curvature="0"
         d="M 0,0 C 0.003,-0.23 -0.052,-0.419 -0.165,-0.569 -0.278,-0.718 -0.445,-0.795 -0.667,-0.797 -1.215,-0.805 -1.942,2.099 -2.849,7.913 -2.979,8.769 -3.06,9.264 -3.092,9.397 -3.346,7.372 -3.537,5.625 -3.665,4.154 -3.793,2.683 -3.848,1.225 -3.829,-0.218 c 0.003,-0.163 -0.064,-0.31 -0.199,-0.442 -0.136,-0.131 -0.284,-0.198 -0.447,-0.199 -0.555,-0.008 -0.841,0.565 -0.856,1.72 -0.009,0.711 -0.357,3.303 -1.043,7.776 -0.686,4.473 -1.117,6.92 -1.293,7.339 0.188,0.365 0.456,0.551 0.804,0.555 0.348,0.005 0.674,-0.78 0.981,-2.352 0.305,-1.573 0.576,-3.481 0.809,-5.724 0.235,-2.245 0.355,-3.381 0.362,-3.411 0.021,0.208 0.087,0.848 0.203,1.919 0.115,1.071 0.205,1.933 0.27,2.586 0.196,1.971 0.288,3.372 0.277,4.201 l -0.006,0.433 c -0.002,0.163 0.057,0.321 0.177,0.474 0.121,0.154 0.258,0.231 0.414,0.233 0.54,0.007 0.813,-0.211 0.819,-0.656 l 0.004,-0.343 c 0.021,-1.466 0.389,-3.582 1.108,-6.348 0.312,-1.211 0.536,-2.181 0.672,-2.912 0.07,0.838 0.202,2.05 0.395,3.636 0.42,3.456 0.617,6.116 0.592,7.982 -0.004,0.333 0.048,0.576 0.157,0.729 0.108,0.153 0.289,0.231 0.541,0.235 0.251,0.004 0.45,-0.053 0.596,-0.17 0.146,-0.115 0.22,-0.267 0.223,-0.452 C 1.733,16.406 1.658,16.235 1.504,16.078 1.534,13.872 1.283,11.194 0.752,8.044 0.221,4.894 -0.03,2.213 0,0"
         style="fill:#ffffff;fill-opacity:1;fill-rule:nonzero;stroke:none"
         id="path906" />
    </g>
    <g
       id="g908"
       transform="matrix(1.25,0,0,-1.25,275.38307,322.93144)">
      <path
         inkscape:connector-curvature="0"
         d="m 0,0 -0.567,0.014 c -0.222,-0.003 -0.376,-0.06 -0.464,-0.173 l 0.095,-7.016 c 0.777,0.055 1.198,0.082 1.265,0.084 0.866,0.011 1.302,-0.183 1.307,-0.583 L 1.637,-7.751 C 1.536,-7.961 1.361,-8.122 1.11,-8.236 0.861,-8.351 0.639,-8.417 0.446,-8.433 0.254,-8.451 0.007,-8.462 -0.297,-8.466 l -0.71,-0.01 c -0.563,-0.007 -0.913,0.1 -1.048,0.319 -0.061,0.103 -0.093,0.24 -0.094,0.41 L -2.328,5.465 c -0.003,0.259 -0.061,0.643 -0.171,1.152 -0.11,0.509 -0.167,0.898 -0.17,1.164 l -0.002,0.078 c 0.246,0.418 0.431,0.687 0.556,0.807 l 1.684,0.223 C -0.201,8.891 0.031,8.826 0.266,8.692 0.501,8.559 0.62,8.38 0.623,8.159 0.629,7.707 0.289,7.477 -0.4,7.467 L -1.055,7.481 C -1.166,7.479 -1.248,7.475 -1.3,7.466 L -1.071,3.717 C -1.067,3.413 -1.08,2.971 -1.109,2.389 -1.138,1.807 -1.151,1.383 -1.148,1.116 c 0.082,0.017 0.192,0.044 0.333,0.083 0.309,0.086 0.551,0.13 0.725,0.132 C 0.084,1.333 0.24,1.272 0.379,1.148 0.517,1.024 0.587,0.874 0.59,0.696 0.593,0.518 0.539,0.359 0.431,0.216 0.321,0.074 0.178,0.002 0,0"
         style="fill:#ffffff;fill-opacity:1;fill-rule:nonzero;stroke:none"
         id="path910" />
    </g>
    <g
       id="g912"
       transform="matrix(1.25,0,0,-1.25,281.72517,322.84606)">
      <path
         inkscape:connector-curvature="0"
         d="M 0,0 -0.566,0.013 C -0.789,0.011 -0.943,-0.046 -1.03,-0.159 l 0.094,-7.017 c 0.776,0.055 1.198,0.083 1.264,0.084 0.867,0.013 1.302,-0.182 1.307,-0.582 L 1.637,-7.752 C 1.536,-7.96 1.36,-8.121 1.11,-8.236 0.86,-8.35 0.639,-8.417 0.447,-8.434 0.255,-8.452 0.006,-8.462 -0.297,-8.466 l -0.71,-0.009 c -0.563,-0.008 -0.912,0.098 -1.048,0.318 -0.061,0.102 -0.092,0.24 -0.095,0.41 L -2.327,5.464 c -0.004,0.26 -0.061,0.644 -0.172,1.153 -0.11,0.51 -0.167,0.897 -0.171,1.164 l 0,0.077 c 0.245,0.419 0.43,0.688 0.555,0.808 L -0.43,8.889 C -0.201,8.892 0.032,8.826 0.266,8.692 0.501,8.558 0.621,8.381 0.623,8.158 0.629,7.707 0.288,7.477 -0.4,7.467 L -1.056,7.481 C -1.167,7.48 -1.249,7.474 -1.3,7.466 l 0.228,-3.75 C -1.068,3.413 -1.08,2.97 -1.109,2.388 -1.139,1.807 -1.151,1.382 -1.148,1.116 c 0.081,0.017 0.192,0.044 0.333,0.083 0.309,0.085 0.551,0.13 0.725,0.132 C 0.084,1.333 0.24,1.272 0.379,1.148 0.517,1.025 0.588,0.874 0.591,0.696 0.593,0.518 0.54,0.358 0.43,0.216 0.321,0.074 0.178,0.002 0,0"
         style="fill:#ffffff;fill-opacity:1;fill-rule:nonzero;stroke:none"
         id="path914" />
    </g>
    <g
       id="g916"
       transform="matrix(1.25,0,0,-1.25,284.87097,318.32081)">
      <path
         inkscape:connector-curvature="0"
         d="M 0,0 0.099,4.176 0.097,4.321 C 0.087,5.076 0.249,5.455 0.582,5.46 0.885,5.464 1.301,4.766 1.832,3.367 2.798,0.826 3.972,-3.374 5.354,-9.233 L 5.378,-9.344 5.36,-1.416 5.27,5.312 C 5.353,5.691 5.598,5.883 6.006,5.889 6.413,5.894 6.621,5.601 6.628,5.008 L 6.63,4.875 C 6.544,4.689 6.503,4.466 6.506,4.207 l -0.031,-8.406 0.092,-6.95 c 0.004,-0.23 -0.055,-0.457 -0.178,-0.68 -0.123,-0.224 -0.277,-0.337 -0.462,-0.34 -0.318,-0.003 -0.961,1.548 -1.928,4.655 -0.968,3.108 -1.927,6.45 -2.878,10.028 l 0.1,-7.461 c 0.01,-0.726 0.077,-1.806 0.205,-3.24 0.127,-1.435 0.195,-2.514 0.205,-3.24 10e-4,-0.14 -0.082,-0.259 -0.251,-0.353 -0.17,-0.095 -0.385,-0.144 -0.648,-0.147 -0.263,-0.004 -0.396,0.112 -0.399,0.349 l 0.089,1.634 c -0.01,0.785 -0.075,2.056 -0.196,3.817 -0.12,1.76 -0.182,2.837 -0.187,3.229 L 0,0 z"
         style="fill:#ffffff;fill-opacity:1;fill-rule:nonzero;stroke:none"
         id="path918" />
    </g>
    <g
       id="g920"
       transform="matrix(1.25,0,0,-1.25,384.44917,273.60106)">
      <path
         inkscape:connector-curvature="0"
         d="m 0,0 -2,-0.027 -0.397,29.558 2,0.028 L 0,0 z"
         style="fill:#000000;fill-opacity:1;fill-rule:nonzero;stroke:none"
         id="path922" />
    </g>
    <g
       id="g924"
       transform="matrix(1.25,0,0,-1.25,431.59277,322.30406)">
      <path
         inkscape:connector-curvature="0"
         d="m 0,0 c -4.151,-22.595 -25.828,-37.542 -48.422,-33.392 -22.592,4.15 -37.544,25.826 -33.393,48.422 4.15,22.591 25.829,37.542 48.421,33.391 C -10.799,44.271 4.149,22.592 0,0"
         style="fill:#432e80;fill-opacity:1;fill-rule:nonzero;stroke:none"
         id="path926" />
    </g>
    <g
       id="g928"
       transform="matrix(1.25,0,0,-1.25,379.89967,266.48556)">
      <path
         inkscape:connector-curvature="0"
         d="M 0,0 -0.017,1.425 C 1.908,1.447 3.854,1.321 5.772,1.053 L 5.574,-0.359 C 3.726,-0.101 1.851,0.019 0,0 m 16.263,-3.53 c -1.681,0.789 -3.439,1.457 -5.225,1.987 l 0.403,1.365 c 1.856,-0.549 3.681,-1.242 5.425,-2.062 l -0.603,-1.29 z m -27.26,1.727 -0.439,1.355 c 1.838,0.598 3.732,1.057 5.634,1.37 l 0.232,-1.408 c -1.83,-0.3 -3.658,-0.743 -5.427,-1.317 m 36.519,-7.939 c -1.374,1.257 -2.852,2.422 -4.395,3.458 l 0.795,1.183 c 1.601,-1.075 3.138,-2.283 4.563,-3.59 l -0.963,-1.051 z m -46.482,2.947 -0.821,1.167 c 1.577,1.11 3.252,2.114 4.978,2.978 l 0.639,-1.275 c -1.662,-0.832 -3.276,-1.799 -4.796,-2.87 M 32.521,-18.42 c -0.941,1.607 -2.009,3.156 -3.173,4.601 l 1.11,0.897 c 1.21,-1.503 2.318,-3.109 3.292,-4.78 l -1.229,-0.718 z m -61.53,3.909 -1.13,0.868 c 1.176,1.53 2.481,2.985 3.877,4.323 l 0.987,-1.029 c -1.345,-1.289 -2.6,-2.69 -3.734,-4.162 m 65.648,-14.265 c -0.418,1.811 -0.981,3.605 -1.667,5.332 l 1.322,0.526 c 0.716,-1.794 1.298,-3.654 1.733,-5.534 l -1.388,-0.324 z m -71.034,4.505 -1.338,0.492 c 0.667,1.815 1.478,3.59 2.41,5.28 l 1.249,-0.689 c -0.898,-1.626 -1.677,-3.336 -2.321,-5.083 m 71.878,-15.616 c 0.141,1.858 0.141,3.738 0,5.587 l 1.424,0.11 c 0.146,-1.922 0.147,-3.874 -0.002,-5.803 l -1.422,0.106 z m -75.549,4.774 c 0.088,1.647 0.287,3.309 0.587,4.94 0.049,0.271 0.1,0.543 0.155,0.813 l 1.398,-0.287 c -0.053,-0.259 -0.105,-0.522 -0.154,-0.783 -0.288,-1.571 -0.479,-3.173 -0.563,-4.761 l -1.423,0.078 z m 74.97,-14.607 -1.347,0.463 c 0.601,1.755 1.077,3.574 1.413,5.408 l 1.403,-0.258 c -0.348,-1.905 -0.841,-3.793 -1.469,-5.613 m -73.84,3.088 c -0.479,1.87 -0.816,3.794 -1.004,5.717 l 1.418,0.138 c 0.183,-1.849 0.507,-3.703 0.966,-5.505 l -1.38,-0.35 z m 68.468,-13.344 -1.15,0.847 c 1.105,1.5 2.101,3.095 2.964,4.74 l 1.263,-0.66 c -0.895,-1.71 -1.93,-3.367 -3.077,-4.927 m -63.966,2.687 c -1.009,1.647 -1.902,3.382 -2.653,5.158 l 1.313,0.556 c 0.723,-1.71 1.584,-3.383 2.557,-4.969 l -1.217,-0.745 z m 55.783,-10.876 -0.846,1.149 c 1.495,1.102 2.922,2.328 4.236,3.644 l 1.011,-1.006 c -1.367,-1.368 -2.845,-2.642 -4.401,-3.787 m -48.326,2.02 c -1.447,1.273 -2.813,2.667 -4.06,4.149 l 1.09,0.917 c 1.202,-1.426 2.519,-2.769 3.911,-3.993 l -0.941,-1.073 z m 38.093,-7.424 -0.471,1.346 c 1.755,0.613 3.482,1.364 5.123,2.231 l 0.668,-1.26 c -1.707,-0.901 -3.497,-1.682 -5.32,-2.317 m -28.335,1.183 c -1.769,0.787 -3.489,1.711 -5.116,2.752 l 0.769,1.2 c 1.566,-1.001 3.221,-1.893 4.924,-2.649 l -0.577,-1.303 z m 16.958,-3.302 -0.045,1.425 c 1.856,0.059 3.724,0.264 5.556,0.604 l 0.259,-1.4 c -1.898,-0.355 -3.841,-0.567 -5.77,-0.629 m -8.259,0.622 c -1.082,0.198 -2.169,0.444 -3.231,0.735 l 0.374,1.375 c 1.802,-0.494 3.659,-0.852 5.488,-1.068 l -0.168,-1.415 c -0.819,0.096 -1.641,0.222 -2.463,0.373"
         style="fill:#f26f2f;fill-opacity:1;fill-rule:nonzero;stroke:none"
         id="path930" />
    </g>
    <g
       id="g932"
       transform="matrix(1.25,0,0,-1.25,388.24007,295.34231)">
      <path
         inkscape:connector-curvature="0"
         d="m 0,0 c -1.031,-0.163 -2.318,0.95 -1.831,3.233 0,0 0.319,1.494 1.651,1.875 C 1.155,5.49 2.168,3.475 1.976,2.01 1.79,0.544 1.031,0.162 0,0 m -4.06,-9.796 c -1.486,0.06 -2.623,1.696 -2.542,3.653 0.084,1.955 1.353,3.49 2.838,3.428 1.485,-0.062 2.623,-1.7 2.543,-3.654 -0.083,-1.956 -1.353,-3.489 -2.839,-3.427 m -4.241,9.74 c -1.007,0.271 -1.722,0.734 -1.752,2.209 -0.03,1.476 1.192,3.371 2.477,2.85 1.283,-0.521 1.441,-2.037 1.441,-2.037 0.242,-2.324 -1.157,-3.293 -2.166,-3.022 M 11.284,-18.38 C 15.021,-8.875 27.16,-6.57 22.071,-1.024 18.198,3.198 14.306,-2.618 10.82,-7.001 8.923,-9.389 4.579,-9.415 5.84,-1.864 7.107,5.685 4.646,17.67 -6.628,15.194 c -10.764,-2.362 -6.161,-15.777 -7.908,-19.905 -1.745,-4.124 -6.214,-2.319 -9.17,0.901 -1.973,2.149 -4.825,4.589 -7.45,1.692 -1.59,-1.754 -1.483,-4.788 4.32,-9.259 5.518,-4.256 5.06,-7.137 -0.222,-8.878 -11.495,-3.792 -2.5,-14.176 5.833,-19.171 8.334,-4.995 15.433,-4.386 15.433,-4.386 18.328,0.465 14.834,19.725 17.076,25.432"
         style="fill:#eef2ee;fill-opacity:1;fill-rule:nonzero;stroke:none"
         id="path934" />
    </g>
    <g
       id="g936"
       transform="matrix(1.25,0,0,-1.25,415.82857,296.62231)">
      <path
         inkscape:connector-curvature="0"
         d="m 0,0 c -0.207,0.227 -0.412,0.418 -0.619,0.587 0.352,-2.934 -3.782,-6.361 -7.977,-10.448 -4.192,-4.091 -4.567,-7.771 -7.294,-19.318 -2.73,-11.549 -17.238,-10.605 -25.267,-6.902 -7.956,3.671 -13.11,12.438 -13.2,12.596 -1.471,-4.731 4.967,-11.266 11.061,-14.917 8.335,-4.995 15.433,-4.386 15.433,-4.386 18.328,0.465 14.834,19.725 17.076,25.432 C -7.05,-7.851 5.089,-5.546 0,0"
         style="fill:#d3d7d3;fill-opacity:1;fill-rule:nonzero;stroke:none"
         id="path938" />
    </g>
    <g
       id="g940"
       transform="matrix(1.25,0,0,-1.25,506.47317,271.95856)">
      <path
         inkscape:connector-curvature="0"
         d="m 0,0 -1.999,-0.027 -0.4,31.559 2,0.026 L 0,0 z"
         style="fill:#000000;fill-opacity:1;fill-rule:nonzero;stroke:none"
         id="path942" />
    </g>
    <g
       id="g944"
       transform="matrix(1.25,0,0,-1.25,554.56397,322.67569)">
      <path
         inkscape:connector-curvature="0"
         d="m 0,0 c -5.477,-22.125 -27.85,-35.62 -49.976,-30.143 -22.125,5.477 -35.62,27.852 -30.144,49.977 5.477,22.124 27.853,35.619 49.978,30.142 C -8.017,44.499 5.476,22.123 0,0"
         style="fill:#1c1b1d;fill-opacity:1;fill-rule:nonzero;stroke:none"
         id="path946" />
    </g>
    <g
       id="g948"
       transform="matrix(1.25,0,0,-1.25,506.74297,264.26568)">
      <path
         inkscape:connector-curvature="0"
         d="M 0,0 0.071,1.413 C 1.977,1.317 3.899,1.074 5.782,0.693 L 5.502,-0.695 C 3.689,-0.324 1.836,-0.092 0,0 m 15.893,-4.48 c -1.617,0.881 -3.317,1.651 -5.052,2.283 l 0.484,1.328 c 1.802,-0.655 3.568,-1.453 5.246,-2.37 L 15.893,-4.48 z m -26.889,3.358 -0.355,1.37 c 1.856,0.479 3.758,0.821 5.664,1.015 l 0.142,-1.407 c -1.832,-0.187 -3.667,-0.517 -5.451,-0.978 m 35.685,-10.071 c -1.283,1.328 -2.677,2.57 -4.142,3.69 l 0.857,1.124 c 1.522,-1.162 2.972,-2.452 4.304,-3.831 l -1.019,-0.983 z m -45.857,5.73 -0.742,1.203 c 1.629,1.008 3.348,1.899 5.111,2.651 l 0.555,-1.301 c -1.696,-0.724 -3.353,-1.585 -4.924,-2.553 m 52.263,-14.748 c -0.834,1.648 -1.796,3.247 -2.864,4.75 l 1.154,0.818 c 1.109,-1.559 2.108,-3.219 2.971,-4.93 l -1.261,-0.638 z m -60.702,7.594 -1.066,0.93 c 1.256,1.442 2.639,2.803 4.103,4.043 l 0.915,-1.078 c -1.412,-1.195 -2.739,-2.505 -3.952,-3.895 m 64.154,-18.098 c -0.304,1.817 -0.753,3.627 -1.329,5.379 l 1.344,0.444 c 0.599,-1.822 1.063,-3.702 1.38,-5.587 l -1.395,-0.236 z m -70.078,8.757 -1.297,0.57 c 0.773,1.757 1.684,3.466 2.707,5.082 l 1.195,-0.758 c -0.985,-1.555 -1.862,-3.202 -2.605,-4.894 m 70.245,-19.813 c 0.249,1.831 0.363,3.692 0.338,5.533 l 1.415,0.022 c 0.027,-1.912 -0.091,-3.846 -0.352,-5.747 l -1.401,0.192 z m -74.537,9.298 c 0.186,1.625 0.483,3.261 0.88,4.857 0.064,0.266 0.132,0.533 0.204,0.795 l 1.367,-0.366 c -0.068,-0.256 -0.137,-0.512 -0.199,-0.769 -0.382,-1.538 -0.666,-3.112 -0.846,-4.679 l -1.406,0.162 z m 73.37,-19.001 -1.311,0.539 c 0.703,1.701 1.287,3.474 1.73,5.268 l 1.372,-0.339 c -0.461,-1.862 -1.065,-3.705 -1.791,-5.468 M -39.4,-43.95 c -0.362,1.881 -0.579,3.808 -0.649,5.722 l 1.413,0.053 c 0.069,-1.844 0.279,-3.698 0.624,-5.51 L -39.4,-43.95 z m 67.002,-17.357 -1.085,0.907 c 1.183,1.42 2.267,2.941 3.22,4.517 l 1.213,-0.731 c -0.992,-1.639 -2.117,-3.218 -3.348,-4.693 m -63.186,6.528 c -0.902,1.694 -1.682,3.467 -2.318,5.271 l 1.335,0.471 c 0.614,-1.738 1.363,-3.445 2.233,-5.076 l -1.25,-0.666 z m 54.587,-14.146 -0.768,1.19 c 1.549,1.002 3.033,2.131 4.417,3.354 l 0.938,-1.059 c -1.436,-1.271 -2.979,-2.443 -4.587,-3.485 M -28.735,-64 c -1.358,1.348 -2.627,2.812 -3.771,4.354 l 1.136,0.843 c 1.101,-1.484 2.324,-2.895 3.631,-4.191 L -28.735,-64 z m 37.277,-9.657 -0.385,1.362 c 1.778,0.501 3.529,1.14 5.209,1.901 l 0.585,-1.29 c -1.747,-0.79 -3.566,-1.453 -5.409,-1.973 m -27.992,2.886 c -1.705,0.885 -3.354,1.906 -4.902,3.035 l 0.836,1.144 c 1.489,-1.088 3.076,-2.071 4.716,-2.923 l -0.65,-1.256 z m 16.596,-4.296 0.043,1.414 c 1.84,-0.053 3.704,0.035 5.537,0.263 L 2.9,-74.794 c -1.904,-0.237 -3.841,-0.327 -5.754,-0.273 m -8.142,1.114 c -1.062,0.262 -2.122,0.573 -3.158,0.925 l 0.454,1.339 c 1.756,-0.596 3.576,-1.066 5.372,-1.39 l -0.253,-1.391 c -0.805,0.145 -1.61,0.317 -2.415,0.517"
         style="fill:#f8aa2a;fill-opacity:1;fill-rule:nonzero;stroke:none"
         id="path950" />
    </g>
    <g
       id="g952"
       transform="matrix(1.25,0,0,-1.25,482.63047,320.10618)">
      <path
         inkscape:connector-curvature="0"
         d="M 0,0 C 0.1,3.023 0.268,5.653 0.497,7.892 1.554,7.653 2.311,6.78 2.766,5.277 2.948,4.662 3.094,3.944 3.201,3.127 3.308,2.31 3.365,1.622 3.37,1.06 3.378,0.499 3.363,-0.261 3.331,-1.223 3.298,-2.179 2.971,-3.21 2.351,-4.312 1.729,-5.415 0.831,-6.091 -0.342,-6.34 l 0.079,2.343 -0.043,0.255 L 0,0 z M 1.589,24.314 C 3.002,24.117 3.634,21.844 3.488,17.498 3.34,13.151 2.351,10.967 0.524,10.95 l 0.266,7.77 c 0.096,2.853 0.363,4.717 0.799,5.594 M -2.445,4.911 -3.331,-6.186 c -0.007,-0.695 0.05,-1.291 0.169,-1.786 0.179,-0.648 0.634,-0.979 1.36,-0.994 2.128,-0.038 3.85,0.594 5.162,1.895 0.593,0.599 1.109,1.312 1.544,2.137 0.416,0.826 0.726,1.695 0.927,2.611 0.2,0.913 0.311,1.845 0.335,2.796 C 6.19,1.424 6.195,2.24 6.185,2.919 6.084,5.912 5.38,8.075 4.074,9.407 c 0.797,1.072 1.377,2.241 1.742,3.499 0.363,1.259 0.581,2.975 0.656,5.149 0.076,2.174 -0.373,4.119 -1.347,5.835 -0.495,0.877 -1.183,1.568 -2.059,2.078 -0.88,0.509 -1.788,0.772 -2.726,0.79 -0.937,0.015 -1.529,-0.186 -1.771,-0.607 -0.242,-0.419 -0.378,-0.995 -0.401,-1.724 L -1.84,24.146 -1.653,21.441 -2.445,4.911 z"
         style="fill:#f2f6fa;fill-opacity:1;fill-rule:nonzero;stroke:none"
         id="path954" />
    </g>
    <g
       id="g956"
       transform="matrix(1.25,0,0,-1.25,498.36897,298.28181)">
      <path
         inkscape:connector-curvature="0"
         d="M 0,0 C 0.057,1.646 0.261,3.028 0.622,4.142 1.057,5.477 1.863,6.134 3.047,6.115 4.28,6.091 5.278,5.574 6.038,4.566 6.799,3.558 7.173,2.417 7.165,1.144 L 7.134,0.227 c -0.044,-1.325 0,-3.34 0.136,-6.045 0.135,-2.705 0.184,-4.71 0.137,-6.018 -0.044,-1.306 -0.181,-2.885 -0.415,-4.732 -0.137,-1.068 -0.313,-2.07 -0.534,-2.997 -0.233,-0.949 -0.514,-1.849 -0.838,-2.701 -0.325,-0.851 -0.751,-1.528 -1.274,-2.028 -0.525,-0.501 -1.099,-0.744 -1.724,-0.733 -0.763,0.403 -1.54,1.709 -2.327,3.916 -0.684,3.767 -0.94,8.175 -0.767,13.217 l 0.417,4.81 L 0,0 z m -3.095,-17.89 c 0.152,-1.972 0.676,-3.985 1.571,-6.042 0.939,-2.142 2.365,-3.23 4.274,-3.265 4.613,-0.085 7.089,4.877 7.431,14.878 l 0.099,5.912 0.015,0.382 C 10.411,-2.595 10.067,0.301 9.271,2.66 7.89,6.763 5.186,8.852 1.164,8.924 0.691,8.934 0.203,8.713 -0.303,8.263 -0.81,7.814 -1.356,6.617 -1.946,4.675 -2.65,2.375 -3.096,-1.507 -3.282,-6.976 l -0.031,-0.942 c 0.049,-10e-4 0.073,-0.086 0.066,-0.256 l -0.119,-1.986 c -0.072,-2.174 0.017,-4.75 0.271,-7.73"
         style="fill:#f2f6fa;fill-opacity:1;fill-rule:nonzero;stroke:none"
         id="path958" />
    </g>
    <g
       id="g960"
       transform="matrix(1.25,0,0,-1.25,518.99267,298.65894)">
      <path
         inkscape:connector-curvature="0"
         d="M 0,0 C 0.056,1.647 0.264,3.028 0.621,4.143 1.06,5.478 1.865,6.136 3.05,6.113 4.281,6.091 5.279,5.575 6.039,4.568 6.801,3.559 7.175,2.417 7.167,1.144 L 7.137,0.227 C 7.089,-1.099 7.134,-3.112 7.27,-5.817 c 0.136,-2.704 0.182,-4.71 0.138,-6.018 -0.045,-1.307 -0.181,-2.884 -0.414,-4.732 -0.139,-1.068 -0.316,-2.069 -0.532,-2.998 -0.236,-0.948 -0.518,-1.849 -0.84,-2.699 -0.325,-0.854 -0.75,-1.53 -1.275,-2.03 -0.525,-0.501 -1.1,-0.744 -1.725,-0.733 -0.765,0.403 -1.539,1.709 -2.326,3.917 -0.684,3.767 -0.941,8.173 -0.766,13.217 L -0.055,-3.082 0,0 z m -3.094,-17.888 c 0.153,-1.974 0.676,-3.987 1.571,-6.043 0.941,-2.142 2.365,-3.231 4.275,-3.265 4.613,-0.084 7.09,4.876 7.431,14.876 l 0.098,5.913 0.013,0.382 C 10.414,-2.596 10.069,0.301 9.271,2.659 7.889,6.764 5.188,8.852 1.168,8.925 0.695,8.934 0.203,8.713 -0.303,8.265 -0.808,7.816 -1.355,6.618 -1.945,4.676 -2.649,2.377 -3.094,-1.507 -3.282,-6.976 l -0.031,-0.942 c 0.051,-10e-4 0.074,-0.085 0.067,-0.256 l -0.118,-1.987 c -0.075,-2.173 0.016,-4.748 0.27,-7.727"
         style="fill:#f2f6fa;fill-opacity:1;fill-rule:nonzero;stroke:none"
         id="path962" />
    </g>
    <g
       id="g964"
       transform="matrix(1.25,0,0,-1.25,750.99707,241.44344)">
      <path
         inkscape:connector-curvature="0"
         d="M 0,0 -1.976,-0.318 -6.67,29.868 -4.693,30.186 0,0 z"
         style="fill:#000000;fill-opacity:1;fill-rule:nonzero;stroke:none"
         id="path966" />
    </g>
    <g
       id="g968"
       transform="matrix(1.25,0,0,-1.25,803.72527,274.85168)">
      <path
         inkscape:connector-curvature="0"
         d="m 0,0 c 3.62,-22.504 -11.685,-43.678 -34.189,-47.298 -22.502,-3.619 -43.678,11.688 -47.298,34.192 -3.62,22.504 11.689,43.678 34.19,47.298 C -24.791,37.812 -3.618,22.504 0,0"
         style="fill:#1c1b1d;fill-opacity:1;fill-rule:nonzero;stroke:none"
         id="path970" />
    </g>
    <g
       id="g972"
       transform="matrix(1.25,0,0,-1.25,736.85897,239.81993)">
      <path
         inkscape:connector-curvature="0"
         d="M 0,0 -0.487,1.329 C 1.306,1.987 3.168,2.517 5.052,2.904 L 5.336,1.515 C 3.522,1.145 1.726,0.635 0,0 M 16.379,2.101 C 14.548,2.278 12.681,2.32 10.837,2.222 l -0.075,1.414 c 1.916,0.101 3.853,0.059 5.756,-0.129 L 16.379,2.101 z m -26.059,-7.435 -0.863,1.119 c 1.522,1.17 3.139,2.23 4.815,3.153 L -5.045,-2.3 C -6.657,-3.191 -8.217,-4.21 -9.68,-5.334 m 36.781,4.698 C 25.4,0.086 23.632,0.682 21.846,1.14 l 0.351,1.369 c 1.854,-0.473 3.69,-1.094 5.456,-1.842 l -0.552,-1.303 z m -44.439,-12.674 -1.157,0.817 c 1.106,1.563 2.341,3.057 3.667,4.438 l 1.021,-0.978 c -1.277,-1.33 -2.466,-2.77 -3.531,-4.277 m 53.863,6.883 c -1.413,1.191 -2.925,2.285 -4.494,3.252 l 0.742,1.203 c 1.63,-1.002 3.2,-2.138 4.662,-3.373 l -0.91,-1.082 z m -58.829,-16.77 -1.344,0.438 c 0.59,1.82 1.329,3.613 2.19,5.328 l 1.263,-0.635 c -0.828,-1.652 -1.537,-3.377 -2.109,-5.131 m 66.118,8.456 c -0.992,1.553 -2.115,3.042 -3.328,4.43 l 1.064,0.932 c 1.262,-1.438 2.426,-2.988 3.456,-4.6 l -1.192,-0.762 z m -67.914,-19.37 -1.415,0.015 c 0.023,1.92 0.192,3.851 0.501,5.738 l 1.397,-0.23 c -0.299,-1.816 -0.461,-3.676 -0.483,-5.523 m 72.394,9.261 c -0.486,1.783 -1.109,3.54 -1.855,5.223 l 1.291,0.574 c 0.777,-1.748 1.425,-3.574 1.929,-5.426 l -1.365,-0.371 z m -72.23,-20.618 c -0.461,1.569 -0.829,3.189 -1.089,4.813 -0.046,0.271 -0.087,0.542 -0.124,0.813 l 1.401,0.198 c 0.037,-0.263 0.076,-0.524 0.119,-0.786 0.251,-1.563 0.605,-3.126 1.053,-4.636 l -1.36,-0.402 z m 74.953,11.231 -1.414,-0.016 c -0.021,1.839 -0.18,3.699 -0.472,5.526 l 1.396,0.225 c 0.304,-1.895 0.469,-3.826 0.49,-5.735 m -70.07,-21.627 c -1.069,1.592 -2.022,3.279 -2.837,5.013 l 1.281,0.599 c 0.784,-1.667 1.703,-3.292 2.73,-4.826 l -1.174,-0.786 z m 68.45,10.253 -1.354,0.409 c 0.534,1.769 0.936,3.592 1.195,5.417 l 1.403,-0.199 c -0.272,-1.895 -0.689,-3.788 -1.244,-5.627 m -60.702,-18.722 c -1.491,1.204 -2.904,2.531 -4.194,3.941 l 1.044,0.957 c 1.245,-1.36 2.603,-2.639 4.041,-3.799 l -0.891,-1.099 z m 55.77,8.346 -1.173,0.793 c 1.033,1.529 1.96,3.149 2.751,4.817 l 1.277,-0.609 c -0.823,-1.73 -1.782,-3.413 -2.855,-5.001 M -1.396,-70.138 c -1.774,0.708 -3.513,1.559 -5.17,2.53 l 0.714,1.221 c 1.595,-0.933 3.269,-1.754 4.984,-2.436 l -0.528,-1.315 z m 38.086,5.703 -0.886,1.101 c 1.436,1.158 2.8,2.432 4.049,3.788 l 1.043,-0.958 c -1.298,-1.409 -2.712,-2.732 -4.206,-3.931 m -26.888,-8.3 c -1.915,0.147 -3.832,0.44 -5.698,0.874 l 0.322,1.379 c 1.794,-0.417 3.639,-0.702 5.482,-0.843 l -0.106,-1.41 z m 16.954,2.542 -0.516,1.319 c 1.716,0.671 3.395,1.481 4.995,2.407 l 0.71,-1.223 c -1.662,-0.963 -3.407,-1.805 -5.189,-2.503 m -7.929,-2.162 c -1.079,-0.173 -2.178,-0.303 -3.267,-0.385 l -0.107,1.411 c 1.849,0.137 3.708,0.417 5.486,0.825 l 0.315,-1.381 c -0.799,-0.183 -1.609,-0.338 -2.427,-0.47"
         style="fill:#f8aa2a;fill-opacity:1;fill-rule:nonzero;stroke:none"
         id="path974" />
    </g>
    <g
       id="g976"
       transform="matrix(1.25,0,0,-1.25,737.06277,285.91368)">
      <path
         inkscape:connector-curvature="0"
         d="m 0,0 c -0.496,-0.081 -0.797,0.205 -0.901,0.854 -0.6,3.725 -1.241,7.158 -1.921,10.301 -0.542,0.012 -1.04,-0.019 -1.499,-0.093 C -4.779,10.987 -5.178,10.846 -5.516,10.634 -5.342,9.546 -4.994,7.912 -4.478,5.732 -3.962,3.551 -3.611,1.897 -3.431,0.771 -3.4,0.58 -3.428,0.394 -3.517,0.213 -3.606,0.032 -3.745,-0.073 -3.937,-0.104 -4.469,-0.2 -5.131,1.414 -5.919,4.735 -6.985,9.236 -8.04,14.72 -9.08,21.186 c -0.056,0.353 0.082,0.556 0.416,0.61 0.181,0.03 0.386,0.011 0.611,-0.055 0.227,-0.067 0.394,-0.151 0.496,-0.252 0.045,-0.708 0.13,-1.448 0.254,-2.222 l 1.172,-5.999 0.149,-1.107 c 0.043,-0.277 0.104,-0.527 0.179,-0.75 l 2.818,0.674 -1.665,9.608 -0.124,0.773 c 0.744,0.119 1.243,-0.144 1.494,-0.788 0.118,-0.315 0.286,-1.135 0.499,-2.463 0.214,-1.327 0.757,-4.127 1.638,-8.4 C -0.267,6.543 0.346,3.337 0.688,1.199 0.731,0.941 0.688,0.686 0.561,0.435 0.436,0.185 0.247,0.04 0,0"
         style="fill:#ffffff;fill-opacity:1;fill-rule:nonzero;stroke:none"
         id="path978" />
    </g>
    <g
       id="g980"
       transform="matrix(1.25,0,0,-1.25,745.09127,271.75468)">
      <path
         inkscape:connector-curvature="0"
         d="M 0,0 C -0.45,1.706 -0.873,3.333 -1.263,4.882 -1.655,6.43 -1.877,7.37 -1.93,7.699 -1.982,8.029 -2.007,8.218 -2.007,8.267 -2.261,7.903 -2.421,6.079 -2.484,2.797 c -0.065,-3.283 -0.05,-5.353 0.048,-6.209 0.848,-0.089 1.547,-0.089 2.096,-10e-4 0.547,0.088 0.935,0.18 1.152,0.274 C 0.723,-2.752 0.452,-1.706 0,0 M 2.771,-9.378 C 2.17,-9.475 1.828,-9.27 1.748,-8.764 l -0.615,3.825 c -0.309,0.146 -0.833,0.228 -1.576,0.246 -0.743,0.018 -1.4,0 -1.968,-0.052 -0.145,-0.376 -0.23,-0.899 -0.254,-1.57 -0.025,-0.67 -0.054,-1.346 -0.085,-2.026 -0.034,-0.681 -0.136,-1.232 -0.301,-1.651 -0.765,-0.123 -1.226,0.004 -1.384,0.38 0.206,0.426 0.327,2.448 0.362,6.068 0.035,3.622 0.084,6.458 0.151,8.512 0.066,2.053 0.216,3.794 0.447,5.223 0.23,1.428 0.55,2.175 0.96,2.241 0.411,0.066 0.742,0.031 0.988,-0.105 0.112,-0.698 0.606,-2.554 1.483,-5.567 0.876,-3.014 1.387,-4.971 1.531,-5.873 0.147,-0.904 0.491,-2.387 1.034,-4.45 0.542,-2.062 0.896,-3.62 1.065,-4.67 0.105,-0.66 -0.164,-1.04 -0.815,-1.145"
         style="fill:#ffffff;fill-opacity:1;fill-rule:nonzero;stroke:none"
         id="path982" />
    </g>
    <g
       id="g984"
       transform="matrix(1.25,0,0,-1.25,751.79177,268.07731)">
      <path
         inkscape:connector-curvature="0"
         d="M 0,0 C 1.267,1.634 1.744,3.411 1.436,5.33 L 1.434,5.345 C 1.258,6.442 0.999,7.19 0.661,7.586 0.494,7.774 0.358,7.923 0.26,8.029 0.158,8.135 -0.03,8.27 -0.311,8.429 -0.646,8.62 -1.153,8.886 -1.836,9.228 -1.671,8.196 -1.364,6.658 -0.919,4.614 -0.47,2.569 -0.166,1.031 0,0 M 0.36,-11.008 -1.181,-0.513 C -1.92,4.089 -2.735,7.54 -3.625,9.836 c 0.235,0.489 0.578,0.769 1.026,0.841 0.726,0.116 1.413,0.061 2.063,-0.168 C 0.111,10.281 0.667,9.928 1.126,9.454 2.079,8.461 2.671,7.247 2.9,5.816 3.131,4.383 3.03,3.031 2.597,1.762 2.165,0.493 1.4,-0.563 0.3,-1.407 l 1.699,-9.103 c 0.131,-0.811 -0.127,-1.27 -0.779,-1.373 -0.239,-0.038 -0.432,0.036 -0.578,0.222 -0.148,0.187 -0.243,0.404 -0.282,0.653"
         style="fill:#ffffff;fill-opacity:1;fill-rule:nonzero;stroke:none"
         id="path986" />
    </g>
    <g
       id="g988"
       transform="matrix(1.25,0,0,-1.25,760.65657,266.65156)">
      <path
         inkscape:connector-curvature="0"
         d="M 0,0 C 1.264,1.634 1.743,3.411 1.435,5.331 L 1.433,5.345 C 1.255,6.442 0.996,7.19 0.661,7.587 0.493,7.774 0.357,7.922 0.261,8.029 0.158,8.135 -0.032,8.268 -0.314,8.429 -0.648,8.62 -1.155,8.886 -1.837,9.227 -1.671,8.196 -1.365,6.658 -0.918,4.613 -0.472,2.569 -0.166,1.032 0,0 m 0.359,-11.008 -1.541,10.494 c -0.74,4.604 -1.553,8.054 -2.444,10.35 0.236,0.489 0.578,0.768 1.026,0.841 0.725,0.117 1.413,0.06 2.064,-0.168 C 0.111,10.28 0.665,9.928 1.126,9.454 2.079,8.461 2.671,7.248 2.9,5.815 3.131,4.383 3.029,3.032 2.598,1.762 2.165,0.492 1.399,-0.564 0.3,-1.407 L 2,-10.509 c 0.13,-0.812 -0.13,-1.271 -0.779,-1.375 -0.239,-0.038 -0.434,0.036 -0.579,0.223 -0.15,0.186 -0.243,0.404 -0.283,0.653"
         style="fill:#ffffff;fill-opacity:1;fill-rule:nonzero;stroke:none"
         id="path990" />
    </g>
    <g
       id="g992"
       transform="matrix(1.25,0,0,-1.25,772.32157,279.21444)">
      <path
         inkscape:connector-curvature="0"
         d="m 0,0 -0.771,5.696 c -0.091,0.573 -0.321,1.406 -0.687,2.497 -0.366,1.093 -0.604,1.98 -0.715,2.664 -0.109,0.682 -0.36,1.494 -0.753,2.435 -0.39,0.941 -0.792,1.781 -1.204,2.518 -1.085,1.931 -1.744,3.623 -1.977,5.076 -0.023,0.142 0.04,0.277 0.192,0.404 0.149,0.127 0.315,0.206 0.497,0.234 0.182,0.03 0.413,-0.162 0.69,-0.579 0.278,-0.416 0.557,-0.958 0.841,-1.629 0.283,-0.669 0.556,-1.34 0.817,-2.013 0.261,-0.674 0.504,-1.327 0.735,-1.962 0.228,-0.634 0.387,-1.042 0.476,-1.223 0.01,0.177 -0.011,0.593 -0.061,1.246 -0.052,0.654 -0.099,1.324 -0.142,2.012 -0.032,0.701 -0.047,1.404 -0.044,2.109 0.004,1.619 0.266,2.469 0.787,2.552 0.52,0.084 0.796,0.02 0.832,-0.188 0.175,-1.1 0.207,-2.775 0.087,-5.028 -0.115,-2.252 -0.085,-3.943 0.097,-5.07 L -0.226,10.722 -0.154,10.276 1.252,2.524 1.589,1.079 1.693,0.419 C 1.737,0.162 1.673,-0.062 1.502,-0.251 1.332,-0.439 1.133,-0.553 0.902,-0.59 0.672,-0.627 0.474,-0.587 0.304,-0.473 0.132,-0.358 0.031,-0.201 0,0"
         style="fill:#ffffff;fill-opacity:1;fill-rule:nonzero;stroke:none"
         id="path994" />
    </g>
    <g
       id="g996"
       transform="matrix(1.25,0,0,-1.25,726.51467,310.83731)">
      <path
         inkscape:connector-curvature="0"
         d="M 0,0 C -0.38,-0.061 -0.609,0.157 -0.69,0.654 -1.149,3.504 -1.639,6.131 -2.16,8.537 -2.574,8.546 -2.957,8.522 -3.309,8.465 -3.659,8.408 -3.964,8.3 -4.223,8.138 -4.09,7.304 -3.824,6.055 -3.427,4.387 -3.032,2.717 -2.765,1.452 -2.626,0.591 -2.602,0.444 -2.624,0.302 -2.692,0.163 -2.76,0.024 -2.866,-0.056 -3.012,-0.079 -3.421,-0.153 -3.927,1.082 -4.53,3.623 c -0.818,3.445 -1.625,7.642 -2.419,12.59 -0.043,0.27 0.063,0.426 0.318,0.467 0.139,0.023 0.295,0.009 0.468,-0.042 0.173,-0.051 0.301,-0.116 0.379,-0.193 0.035,-0.541 0.101,-1.108 0.195,-1.7 l 0.897,-4.591 0.114,-0.847 c 0.033,-0.213 0.079,-0.404 0.137,-0.574 l 2.154,0.515 -1.272,7.353 -0.096,0.591 c 0.57,0.092 0.952,-0.109 1.144,-0.603 0.091,-0.24 0.22,-0.868 0.381,-1.884 0.163,-1.016 0.582,-3.159 1.254,-6.428 C -0.202,5.008 0.264,2.554 0.527,0.918 0.56,0.721 0.525,0.525 0.431,0.333 0.332,0.141 0.189,0.031 0,0"
         style="fill:#ffffff;fill-opacity:1;fill-rule:nonzero;stroke:none"
         id="path998" />
    </g>
    <g
       id="g1000"
       transform="matrix(1.25,0,0,-1.25,732.65847,300.00181)">
      <path
         inkscape:connector-curvature="0"
         d="M 0,0 C -0.346,1.305 -0.669,2.551 -0.968,3.736 -1.267,4.921 -1.436,5.64 -1.476,5.892 -1.517,6.144 -1.536,6.288 -1.536,6.326 -1.731,6.047 -1.852,4.653 -1.904,2.14 c -0.048,-2.512 -0.035,-4.096 0.041,-4.751 0.647,-0.068 1.181,-0.068 1.602,-10e-4 0.419,0.068 0.715,0.137 0.882,0.21 C 0.552,-2.106 0.343,-1.305 0,0 m 2.121,-7.177 c -0.46,-0.074 -0.722,0.083 -0.785,0.47 L 0.864,-3.78 c -0.233,0.112 -0.635,0.175 -1.203,0.189 -0.57,0.013 -1.07,0 -1.507,-0.04 -0.111,-0.288 -0.176,-0.688 -0.195,-1.201 -0.019,-0.513 -0.041,-1.03 -0.065,-1.551 -0.026,-0.522 -0.102,-0.942 -0.231,-1.263 -0.584,-0.094 -0.936,0.003 -1.057,0.291 0.156,0.325 0.248,1.873 0.275,4.644 0.026,2.77 0.065,4.942 0.117,6.513 0.05,1.572 0.164,2.904 0.341,3.997 0.176,1.093 0.423,1.664 0.737,1.715 0.313,0.051 0.566,0.024 0.755,-0.08 C -1.085,8.899 -0.705,7.48 -0.034,5.174 0.636,2.868 1.027,1.369 1.14,0.678 1.25,-0.012 1.513,-1.147 1.927,-2.726 2.343,-4.305 2.615,-5.497 2.744,-6.301 2.825,-6.805 2.618,-7.098 2.121,-7.177"
         style="fill:#ffffff;fill-opacity:1;fill-rule:nonzero;stroke:none"
         id="path1002" />
    </g>
    <g
       id="g1004"
       transform="matrix(1.25,0,0,-1.25,737.99047,297.66106)">
      <path
         inkscape:connector-curvature="0"
         d="m 0,0 0.136,-0.71 0.015,-0.098 c 0.268,-1.291 0.611,-3.238 1.03,-5.839 l 0.092,-0.571 1.709,0.276 C 3.338,-7.11 3.533,-7.293 3.565,-7.49 3.597,-7.687 3.568,-7.859 3.479,-8.004 3.39,-8.149 3.287,-8.232 3.171,-8.25 3.054,-8.269 2.915,-8.266 2.753,-8.24 2.634,-8.289 2.494,-8.326 2.331,-8.352 L 1.603,-8.436 C 1.479,-8.642 1.302,-8.765 1.07,-8.801 0.84,-8.839 0.635,-8.799 0.457,-8.682 0.276,-8.565 0.17,-8.411 0.14,-8.221 l -0.017,1.01 c -0.272,1.703 -0.759,4.243 -1.455,7.622 -0.697,3.377 -1.183,5.918 -1.457,7.619 -0.023,0.139 0.017,0.261 0.11,0.362 0.098,0.102 0.226,0.166 0.392,0.192 C -2.122,8.611 -1.965,8.573 -1.808,8.47 -1.653,8.368 -1.56,8.225 -1.53,8.043 L 0,0 z"
         style="fill:#ffffff;fill-opacity:1;fill-rule:nonzero;stroke:none"
         id="path1006" />
    </g>
    <g
       id="g1008"
       transform="matrix(1.25,0,0,-1.25,743.88047,296.71381)">
      <path
         inkscape:connector-curvature="0"
         d="m 0,0 0.139,-0.709 0.015,-0.099 c 0.266,-1.291 0.61,-3.238 1.029,-5.839 l 0.09,-0.57 1.71,0.275 C 3.343,-7.11 3.535,-7.292 3.568,-7.49 3.599,-7.687 3.569,-7.858 3.48,-8.003 3.391,-8.15 3.289,-8.231 3.172,-8.25 3.056,-8.269 2.915,-8.266 2.754,-8.239 2.635,-8.289 2.494,-8.325 2.333,-8.352 L 1.606,-8.435 C 1.48,-8.642 1.304,-8.765 1.073,-8.802 0.844,-8.838 0.638,-8.799 0.458,-8.681 0.277,-8.565 0.173,-8.41 0.143,-8.22 l -0.018,1.01 c -0.274,1.702 -0.758,4.243 -1.455,7.621 -0.698,3.377 -1.183,5.918 -1.456,7.62 -0.024,0.14 0.012,0.259 0.11,0.362 0.096,0.101 0.227,0.166 0.39,0.192 0.164,0.026 0.325,-0.011 0.479,-0.114 C -1.65,8.368 -1.56,8.225 -1.529,8.043 L 0,0 z"
         style="fill:#ffffff;fill-opacity:1;fill-rule:nonzero;stroke:none"
         id="path1010" />
    </g>
    <g
       id="g1012"
       transform="matrix(1.25,0,0,-1.25,751.33897,287.18443)">
      <path
         inkscape:connector-curvature="0"
         d="M 0,0 C -0.211,0.359 -0.446,0.626 -0.701,0.798 -0.961,0.97 -1.197,1.038 -1.416,1.004 -1.635,0.969 -1.803,0.862 -1.92,0.686 -2.04,0.51 -2.126,0.273 -2.178,-0.025 -2.231,-0.321 -2.272,-0.638 -2.296,-0.971 -2.32,-1.304 -2.32,-1.685 -2.293,-2.112 c 0.027,-0.427 0.054,-0.814 0.08,-1.162 0.032,-0.34 0.074,-0.716 0.125,-1.127 0.096,-0.682 0.17,-1.214 0.224,-1.595 l 0.014,-0.099 c 0.161,-1.002 0.413,-2.069 0.753,-3.202 0.339,-1.134 0.651,-2.056 0.934,-2.768 0.283,-0.713 0.605,-1.304 0.966,-1.774 0.36,-0.47 0.712,-0.678 1.056,-0.623 0.299,0.049 0.505,0.37 0.62,0.967 0.113,0.602 0.146,1.328 0.102,2.174 C 2.487,-9.806 2.392,-8.747 2.299,-8.143 2.205,-7.54 2.136,-7.1 2.085,-6.823 2.038,-6.545 1.962,-6.143 1.859,-5.616 1.756,-5.09 1.645,-4.598 1.526,-4.141 1.406,-3.684 1.268,-3.18 1.108,-2.628 0.95,-2.076 0.776,-1.59 0.592,-1.17 0.409,-0.75 0.212,-0.36 0,0 m 3.31,-7.897 0.26,-2.87 0.016,-0.099 c -0.028,-0.432 -0.003,-0.889 0.075,-1.372 0.077,-0.483 0.067,-0.962 -0.027,-1.438 -0.097,-0.476 -0.289,-0.916 -0.576,-1.318 -0.288,-0.403 -0.636,-0.637 -1.045,-0.703 -0.41,-0.065 -0.805,0.013 -1.185,0.237 -0.383,0.223 -0.717,0.536 -1.007,0.935 -0.288,0.4 -0.567,0.887 -0.832,1.462 -0.264,0.578 -0.487,1.144 -0.674,1.703 -0.18,0.56 -0.352,1.153 -0.513,1.779 -0.245,0.957 -0.409,1.706 -0.491,2.244 -0.084,0.537 -0.159,0.997 -0.227,1.38 -0.069,0.382 -0.131,0.726 -0.189,1.032 -0.026,0.153 -0.054,0.323 -0.083,0.51 -0.029,0.187 -0.06,0.386 -0.095,0.598 -0.063,0.432 -0.111,0.821 -0.149,1.168 -0.037,0.345 -0.064,0.722 -0.082,1.128 -0.014,0.406 -0.011,0.767 0.013,1.081 0.024,0.316 0.075,0.63 0.152,0.942 0.085,0.32 0.193,0.589 0.321,0.805 0.297,0.482 0.684,0.762 1.159,0.839 0.473,0.076 0.893,0.056 1.259,-0.063 C -0.248,1.966 0.081,1.735 0.372,1.392 0.664,1.049 0.925,0.713 1.153,0.381 1.381,0.051 1.597,-0.426 1.8,-1.049 2,-1.673 2.161,-2.177 2.284,-2.562 2.406,-2.955 2.541,-3.522 2.682,-4.264 2.871,-5.26 3.014,-6.04 3.102,-6.602 L 3.31,-7.897 z"
         style="fill:#ffffff;fill-opacity:1;fill-rule:nonzero;stroke:none"
         id="path1014" />
    </g>
    <g
       id="g1016"
       transform="matrix(1.25,0,0,-1.25,767.08957,303.27019)">
      <path
         inkscape:connector-curvature="0"
         d="m 0,0 c 0.037,-0.228 0.011,-0.422 -0.078,-0.586 -0.092,-0.165 -0.246,-0.265 -0.463,-0.3 -0.541,-0.088 -1.686,2.679 -3.429,8.3 -0.254,0.829 -0.405,1.306 -0.455,1.433 0.043,-2.04 0.108,-3.797 0.195,-5.271 0.088,-1.474 0.247,-2.924 0.475,-4.348 0.028,-0.162 -0.017,-0.316 -0.133,-0.467 -0.115,-0.15 -0.252,-0.237 -0.412,-0.262 -0.549,-0.089 -0.914,0.436 -1.097,1.577 -0.114,0.701 -0.834,3.216 -2.163,7.542 -1.331,4.325 -2.113,6.683 -2.348,7.072 0.132,0.388 0.371,0.611 0.714,0.667 0.344,0.054 0.782,-0.673 1.312,-2.184 0.532,-1.512 1.077,-3.361 1.636,-5.546 0.557,-2.187 0.842,-3.293 0.853,-3.321 -0.011,0.207 -0.037,0.85 -0.079,1.927 -0.041,1.077 -0.077,1.942 -0.107,2.597 -0.093,1.979 -0.207,3.378 -0.34,4.197 l -0.068,0.428 c -0.027,0.16 0.008,0.325 0.107,0.494 0.097,0.17 0.222,0.267 0.374,0.29 0.533,0.087 0.836,-0.09 0.906,-0.528 l 0.055,-0.339 c 0.233,-1.449 0.904,-3.488 2.018,-6.12 0.487,-1.152 0.848,-2.079 1.09,-2.784 -0.053,0.84 -0.099,2.058 -0.139,3.657 -0.087,3.479 -0.279,6.14 -0.575,7.982 -0.052,0.328 -0.037,0.577 0.049,0.744 0.085,0.168 0.253,0.271 0.502,0.312 0.246,0.04 0.454,0.013 0.615,-0.082 0.161,-0.093 0.256,-0.232 0.285,-0.414 0.03,-0.183 -0.02,-0.364 -0.15,-0.542 0.351,-2.178 0.492,-4.863 0.426,-8.057 C -0.493,4.874 -0.352,2.185 0,0"
         style="fill:#ffffff;fill-opacity:1;fill-rule:nonzero;stroke:none"
         id="path1018" />
    </g>
    <path
       inkscape:connector-curvature="0"
       d="m 772.34467,292.48706 -0.7025,0.085 c -0.275,0.045 -0.4575,0.14375 -0.545,0.29875 l 1.3925,8.65875 c 0.9513,-0.20875 1.4688,-0.32 1.5513,-0.3325 1.0687,-0.1725 1.6412,-0.0125 1.72,0.4825 l 0.015,0.095 c -0.085,0.2775 -0.2738,0.5075 -0.5625,0.69625 -0.2863,0.18625 -0.5488,0.3075 -0.785,0.36375 -0.235,0.0575 -0.5375,0.11625 -0.9125,0.17625 l -0.8775,0.14125 c -0.695,0.11125 -1.1463,0.0425 -1.355,-0.205 -0.094,-0.11625 -0.1538,-0.27875 -0.19,-0.48875 l -2.6213,-16.3075 c -0.051,-0.32 -0.195,-0.78375 -0.4237,-1.39375 -0.2275,-0.61 -0.3688,-1.07875 -0.42,-1.4075 l -0.016,-0.0962 c 0.2262,-0.56125 0.4062,-0.92875 0.5387,-1.09875 l 2.0438,-0.5825 c 0.2825,-0.045 0.5825,-0.006 0.8987,0.11625 0.3113,0.12375 0.4925,0.32 0.5375,0.59625 0.09,0.555 -0.2887,0.9025 -1.14,1.04 l -0.8137,0.1025 c -0.1375,0.0213 -0.2375,0.0425 -0.3,0.0613 l 0.965,4.5975 c 0.061,0.37375 0.125,0.92375 0.1937,1.64875 0.07,0.72375 0.1325,1.25125 0.1875,1.58 0.096,-0.035 0.2263,-0.0887 0.3938,-0.1625 0.3675,-0.1625 0.6587,-0.26125 0.8737,-0.295 0.215,-0.0337 0.4175,0.0125 0.6113,0.14125 0.195,0.1275 0.3112,0.3 0.345,0.52 0.037,0.21875 -10e-4,0.4275 -0.11,0.6225 -0.1113,0.195 -0.2738,0.31 -0.4925,0.34625"
       style="fill:#ffffff;fill-opacity:1;fill-rule:nonzero;stroke:none"
       id="path1022" />
    <g
       id="g1024"
       transform="matrix(1.25,0,0,-1.25,778.60567,291.48006)">
      <path
         inkscape:connector-curvature="0"
         d="m 0,0 -0.561,-0.068 c -0.22,-0.036 -0.365,-0.114 -0.437,-0.238 l 1.116,-6.928 c 0.761,0.168 1.174,0.255 1.239,0.266 0.855,0.138 1.315,0.009 1.377,-0.386 L 2.745,-7.431 C 2.677,-7.651 2.527,-7.837 2.297,-7.986 2.066,-8.135 1.857,-8.233 1.669,-8.278 1.482,-8.324 1.238,-8.37 0.937,-8.419 L 0.236,-8.531 c -0.555,-0.09 -0.918,-0.034 -1.083,0.163 -0.074,0.093 -0.124,0.223 -0.151,0.391 l -2.1,13.046 C -3.139,5.325 -3.25,5.697 -3.435,6.185 -3.618,6.672 -3.732,7.047 -3.772,7.311 l -0.014,0.076 c 0.183,0.449 0.326,0.743 0.434,0.88 L -1.72,8.732 C -1.494,8.769 -1.255,8.738 -1.001,8.64 -0.749,8.541 -0.606,8.382 -0.57,8.164 -0.499,7.717 -0.802,7.44 -1.482,7.331 L -2.134,7.249 C -2.243,7.232 -2.324,7.214 -2.372,7.199 l 0.771,-3.678 c 0.049,-0.299 0.1,-0.739 0.156,-1.318 0.054,-0.58 0.105,-1.001 0.147,-1.265 0.078,0.028 0.184,0.071 0.316,0.13 0.295,0.13 0.528,0.208 0.7,0.237 C -0.11,1.332 0.052,1.295 0.207,1.191 0.361,1.089 0.454,0.951 0.483,0.775 0.512,0.6 0.482,0.434 0.395,0.277 0.306,0.122 0.177,0.029 0,0"
         style="fill:#ffffff;fill-opacity:1;fill-rule:nonzero;stroke:none"
         id="path1026" />
    </g>
    <g
       id="g1028"
       transform="matrix(1.25,0,0,-1.25,781.06057,286.54469)">
      <path
         inkscape:connector-curvature="0"
         d="M 0,0 -0.51,4.147 -0.533,4.289 C -0.654,5.035 -0.548,5.434 -0.221,5.486 0.081,5.535 0.594,4.905 1.322,3.598 2.646,1.225 4.42,-2.759 6.639,-8.356 L 6.681,-8.462 5.508,-0.621 4.44,6.022 C 4.468,6.41 4.683,6.636 5.084,6.7 5.486,6.765 5.734,6.505 5.829,5.92 L 5.85,5.788 C 5.792,5.592 5.783,5.365 5.824,5.11 l 1.194,-8.322 1.101,-6.863 c 0.037,-0.226 0.012,-0.46 -0.078,-0.698 -0.089,-0.24 -0.225,-0.374 -0.407,-0.403 C 7.319,-11.227 6.457,-9.785 5.048,-6.852 3.64,-3.919 2.204,-0.751 0.743,2.65 l 1.183,-7.367 c 0.116,-0.716 0.342,-1.775 0.675,-3.176 0.334,-1.4 0.557,-2.458 0.673,-3.174 0.024,-0.139 -0.044,-0.269 -0.196,-0.387 -0.153,-0.119 -0.36,-0.198 -0.617,-0.239 -0.262,-0.043 -0.409,0.053 -0.448,0.287 l -0.149,1.63 C 1.739,-9.002 1.49,-7.753 1.115,-6.028 0.739,-4.304 0.521,-3.248 0.459,-2.861 L 0,0 z"
         style="fill:#ffffff;fill-opacity:1;fill-rule:nonzero;stroke:none"
         id="path1030" />
    </g>
    <g
       id="g1032"
       transform="matrix(1.25,0,0,-1.25,630.28297,260.38206)">
      <path
         inkscape:connector-curvature="0"
         d="M 0,0 -1.993,-0.174 -4.567,31.275 -2.575,31.449 0,0 z"
         style="fill:#000000;fill-opacity:1;fill-rule:nonzero;stroke:none"
         id="path1034" />
    </g>
    <g
       id="g1036"
       transform="matrix(1.25,0,0,-1.25,680.88477,305.47968)">
      <path
         inkscape:connector-curvature="0"
         d="m 0,0 c -2.477,-22.841 -22.994,-39.344 -45.833,-36.869 -22.837,2.476 -39.345,22.992 -36.869,45.831 2.476,22.836 22.995,39.343 45.834,36.867 C -14.031,43.354 2.474,22.834 0,0"
         style="fill:#432e80;fill-opacity:1;fill-rule:nonzero;stroke:none"
         id="path1038" />
    </g>
    <g
       id="g1040"
       transform="matrix(1.25,0,0,-1.25,625.22067,253.62118)">
      <path
         inkscape:connector-curvature="0"
         d="M 0,0 -0.121,1.419 C 1.795,1.583 3.745,1.601 5.678,1.476 L 5.584,0.052 C 3.723,0.174 1.843,0.154 0,0 m 16.478,-2.322 c -1.735,0.661 -3.538,1.2 -5.358,1.595 l 0.304,1.392 c 1.89,-0.41 3.762,-0.968 5.562,-1.657 l -0.508,-1.33 z m -27.311,-0.287 -0.54,1.32 c 1.789,0.732 3.645,1.33 5.519,1.781 l 0.335,-1.386 c -1.804,-0.434 -3.595,-1.012 -5.314,-1.715 M 26.17,-7.836 c -1.463,1.153 -3.023,2.205 -4.639,3.125 l 0.708,1.239 c 1.676,-0.956 3.295,-2.047 4.813,-3.245 L 26.17,-7.836 z m -46.572,-0.484 -0.906,1.102 c 1.492,1.225 3.087,2.348 4.745,3.338 l 0.733,-1.224 c -1.597,-0.952 -3.137,-2.037 -4.572,-3.216 m 54.19,-7.656 c -1.055,1.535 -2.234,3.001 -3.503,4.356 l 1.041,0.975 c 1.318,-1.409 2.542,-2.93 3.635,-4.523 l -1.173,-0.808 z m -61.649,-0.631 -1.194,0.782 c 1.063,1.612 2.256,3.158 3.551,4.596 l 1.06,-0.954 c -1.246,-1.383 -2.397,-2.873 -3.417,-4.424 M 38.658,-26 c -0.551,1.775 -1.243,3.523 -2.056,5.194 l 1.281,0.623 c 0.845,-1.735 1.563,-3.549 2.136,-5.391 L 38.658,-26 z m -71.173,-0.737 -1.37,0.391 c 0.531,1.86 1.21,3.69 2.014,5.444 l 1.296,-0.595 c -0.774,-1.688 -1.425,-3.452 -1.94,-5.24 m 72.833,-10.282 c 0.005,1.864 -0.133,3.739 -0.411,5.573 l 1.412,0.214 c 0.286,-1.906 0.431,-3.852 0.424,-5.788 l -1.425,0.001 z m -75.696,-0.801 c -0.032,1.649 0.043,3.32 0.221,4.969 0.03,0.274 0.059,0.549 0.097,0.822 l 1.414,-0.183 c -0.033,-0.263 -0.065,-0.528 -0.094,-0.792 -0.172,-1.589 -0.245,-3.2 -0.212,-4.79 l -1.426,-0.026 z m 75.844,-9.047 -1.38,0.362 c 0.473,1.794 0.812,3.645 1.014,5.497 l 1.418,-0.154 c -0.208,-1.923 -0.561,-3.844 -1.052,-5.705 m -73.868,-2.36 c -0.616,1.831 -1.093,3.726 -1.422,5.629 l 1.405,0.242 c 0.316,-1.83 0.777,-3.655 1.367,-5.419 l -1.35,-0.452 z m 69.265,-8.264 -1.21,0.76 c 0.993,1.577 1.869,3.241 2.608,4.945 l 1.307,-0.565 c -0.765,-1.771 -1.675,-3.499 -2.705,-5.14 m -63.989,-2.031 c -1.129,1.569 -2.147,3.233 -3.027,4.948 l 1.269,0.652 c 0.847,-1.652 1.827,-3.257 2.916,-4.767 l -1.158,-0.833 z m 56.432,-6.737 -0.931,1.082 c 1.411,1.21 2.744,2.537 3.959,3.946 l 1.081,-0.929 c -1.263,-1.465 -2.644,-2.843 -4.109,-4.099 m -48.345,-1.545 c -1.536,1.162 -3.002,2.451 -4.354,3.837 l 1.019,0.996 c 1.305,-1.334 2.718,-2.575 4.195,-3.694 l -0.86,-1.139 z m 38.536,-4.599 -0.568,1.307 c 1.706,0.741 3.37,1.616 4.944,2.603 l 0.759,-1.208 c -1.636,-1.025 -3.364,-1.935 -5.135,-2.702 M -9.847,-73.31 c -1.823,0.654 -3.606,1.449 -5.305,2.367 l 0.677,1.254 c 1.636,-0.883 3.351,-1.651 5.108,-2.278 l -0.48,-1.343 z m 17.155,-2.045 -0.15,1.419 c 1.847,0.195 3.695,0.537 5.495,1.01 l 0.365,-1.377 c -1.871,-0.493 -3.789,-0.847 -5.71,-1.052 m -8.283,0.012 c -1.092,0.118 -2.195,0.284 -3.276,0.496 l 0.273,1.399 c 1.833,-0.36 3.71,-0.58 5.55,-0.661 l -0.063,-1.424 c -0.823,0.036 -1.652,0.1 -2.484,0.19"
         style="fill:#f26f2f;fill-opacity:1;fill-rule:nonzero;stroke:none"
         id="path1042" />
    </g>
    <g
       id="g1044"
       transform="matrix(1.25,0,0,-1.25,635.66257,281.78581)">
      <path
         inkscape:connector-curvature="0"
         d="m 0,0 c -1.016,-0.237 -2.383,0.777 -2.064,3.089 0,0 0.208,1.514 1.508,1.992 C 0.748,5.56 1.906,3.625 1.824,2.15 1.746,0.674 1.018,0.237 0,0 m -3.327,-10.068 c -1.486,-0.05 -2.74,1.498 -2.803,3.456 -0.061,1.956 1.091,3.58 2.575,3.627 1.486,0.048 2.743,-1.501 2.807,-3.456 0.062,-1.957 -1.094,-3.58 -2.579,-3.627 m -4.946,9.401 c -1.026,0.195 -1.773,0.605 -1.911,2.074 -0.138,1.47 0.942,3.45 2.261,3.026 1.318,-0.426 1.588,-1.928 1.588,-1.928 0.41,-2.298 -0.913,-3.368 -1.938,-3.172 m 20.88,-16.832 C 15.634,-7.744 27.57,-4.551 22.086,0.604 17.912,4.53 14.461,-1.556 11.307,-6.186 9.589,-8.706 5.26,-9.052 5.962,-1.429 6.67,6.192 3.332,17.965 -7.729,14.666 c -10.561,-3.15 -4.984,-16.189 -6.42,-20.434 -1.437,-4.242 -6.027,-2.771 -9.212,0.224 -2.126,1.997 -5.148,4.22 -7.553,1.138 -1.458,-1.867 -1.126,-4.885 4.988,-8.918 5.817,-3.836 5.572,-6.743 0.434,-8.869 -11.185,-4.628 -1.45,-14.321 7.228,-18.69 8.681,-4.365 15.713,-3.237 15.713,-3.237 18.246,1.814 13.342,20.765 15.158,26.621"
         style="fill:#eef2ee;fill-opacity:1;fill-rule:nonzero;stroke:none"
         id="path1046" />
    </g>
    <g
       id="g1048"
       transform="matrix(1.25,0,0,-1.25,663.27007,281.03018)">
      <path
         inkscape:connector-curvature="0"
         d="m 0,0 c -0.223,0.211 -0.441,0.386 -0.66,0.541 0.566,-2.902 -3.303,-6.623 -7.187,-11.009 -3.88,-4.387 -3.98,-8.084 -5.85,-19.802 -1.872,-11.719 -16.41,-11.845 -24.691,-8.744 -8.205,3.075 -13.99,11.439 -14.091,11.59 -1.121,-4.827 5.783,-10.869 12.129,-14.063 8.681,-4.366 15.713,-3.237 15.713,-3.237 18.246,1.814 13.342,20.765 15.158,26.621 C -6.452,-8.349 5.484,-5.156 0,0"
         style="fill:#d3d7d3;fill-opacity:1;fill-rule:nonzero;stroke:none"
         id="path1050" />
    </g>
    <g
       id="g1052"
       transform="matrix(1.25,0,0,-1.25,386.33897,236.34093)">
      <path
         inkscape:connector-curvature="0"
         d="m 0,0 c -54.186,0 -108.484,2.727 -162.288,8.167 -115.028,11.629 -204.808,33.941 -236.21,44.115 l 0.309,0.951 C -366.815,43.07 -277.107,20.778 -162.156,9.158 -77.785,0.63 7.814,-1.222 92.268,3.652 197.827,9.747 301.877,26.431 401.526,53.24 l 0.26,-0.965 C 302.063,25.445 197.939,8.75 92.305,2.653 61.651,0.884 30.843,0 0,0"
         style="fill:#91897c;fill-opacity:1;fill-rule:nonzero;stroke:none"
         id="path1054" />
    </g>
  </g>
</svg>
