<?xml version="1.0" encoding="UTF-8" standalone="no"?>
<!-- Created with Inkscape (http://www.inkscape.org/) -->

<svg
   xmlns:dc="http://purl.org/dc/elements/1.1/"
   xmlns:cc="http://creativecommons.org/ns#"
   xmlns:rdf="http://www.w3.org/1999/02/22-rdf-syntax-ns#"
   xmlns:svg="http://www.w3.org/2000/svg"
   xmlns="http://www.w3.org/2000/svg"
   xmlns:sodipodi="http://sodipodi.sourceforge.net/DTD/sodipodi-0.dtd"
   xmlns:inkscape="http://www.inkscape.org/namespaces/inkscape"
   width="242.20108"
   height="159.48346"
   id="svg3475"
   version="1.1"
   inkscape:version="0.48.4 r9939"
   sodipodi:docname="New document 3">
  <defs
     id="defs3477" />
  <sodipodi:namedview
     id="base"
     pagecolor="#ffffff"
     bordercolor="#666666"
     borderopacity="1.0"
     inkscape:pageopacity="0.0"
     inkscape:pageshadow="2"
     inkscape:zoom="0.35"
     inkscape:cx="121.10054"
     inkscape:cy="79.746277"
     inkscape:document-units="px"
     inkscape:current-layer="layer1"
     showgrid="false"
     fit-margin-top="0"
     fit-margin-left="0"
     fit-margin-right="0"
     fit-margin-bottom="0"
     inkscape:window-width="1920"
     inkscape:window-height="1056"
     inkscape:window-x="0"
     inkscape:window-y="24"
     inkscape:window-maximized="1" />
  <metadata
     id="metadata3480">
    <rdf:RDF>
      <cc:Work
         rdf:about="">
        <dc:format>image/svg+xml</dc:format>
        <dc:type
           rdf:resource="http://purl.org/dc/dcmitype/StillImage" />
        <dc:title></dc:title>
      </cc:Work>
    </rdf:RDF>
  </metadata>
  <g
     inkscape:label="Layer 1"
     inkscape:groupmode="layer"
     id="layer1"
     transform="translate(-253.89946,-452.625)">
    <path
       inkscape:connector-curvature="0"
       d="m 350.64535,585.90522 -0.19587,-52.43699 -42.47188,-0.0747 -0.10312,20.60387 13.411,0.0546 -0.3685,1.61113 c -1.82588,4.33312 -4.428,6.643 -9.163,8.23712 -25.77825,8.68 -37.69613,-33.76737 -15.75175,-49.54812 4.08687,-2.93812 9.81812,-3.57237 14.88337,-1.592 4.88163,1.90838 6.25288,4.95875 8.64038,9.91163 l 29.64187,0.096 c -0.93825,-9.77838 -9.24062,-19.86625 -13.898,-24.28125 -6.59125,-6.24713 -16.92487,-9.77625 -28.40137,-10.56713 -14.54625,-1.00275 -20.16425,1.45738 -29.95513,8.15525 -25.12762,17.18925 -31.27525,57.86325 -6.18262,80.49087 11.57062,10.43463 28.13562,15.66313 44.69137,9.647 9.31288,-3.385 9.60163,-5.7335 12.99325,-7.34175 l 1.66325,6.90763 20.56675,0.12687 z"
       style="fill:#e08600;fill-opacity:1;fill-rule:evenodd;stroke:#fefefe;stroke-width:1.25012505;stroke-linecap:butt;stroke-linejoin:miter;stroke-miterlimit:22.92558479;stroke-opacity:1;stroke-dasharray:none"
       id="path62"
       inkscape:export-filename="/home/rafaramirez/go-fit-logo.png"
       inkscape:export-xdpi="90"
       inkscape:export-ydpi="90" />
    <path
       inkscape:connector-curvature="0"
       d="m 421.36835,523.16673 c -3.69,9.0925 11.26413,15.65575 4.34025,28.784 -9.87662,18.72787 -37.65762,3.80024 -44.27512,-14.26925 -5.80675,-15.85588 9.1325,-25.6935 23.10812,-20.6145 11.66313,5.11962 11.74675,2.2995 22.93538,-5.59 l 2.131,-1.35738 c -3.35375,4.85325 -5.91625,7.31825 -8.23963,13.04713 z m -24.39925,-35.043 c -32.20187,4.56637 -56.74425,42.32625 -35.87237,74.95024 6.12425,9.5715 17.31475,18.86525 28.10937,22.63963 6.71713,2.34912 14.90175,3.337 22.72713,2.20775 27.681,-3.99538 51.85987,-35.85475 39.0015,-66.48875 -1.74438,-4.1555 -2.80838,-2.9055 -7.39875,-5.29362 -9.88438,-5.14175 -13.63388,-8.94225 -21.1535,-16.852 -5.0935,-5.3575 -3.66413,-14.24625 -25.41338,-11.16325 z"
       style="fill:#e08600;fill-opacity:1;fill-rule:evenodd;stroke:#fefefe;stroke-width:1.25012505;stroke-linecap:butt;stroke-linejoin:miter;stroke-miterlimit:22.92558479;stroke-opacity:1;stroke-dasharray:none"
       id="path64"
       inkscape:export-filename="/home/rafaramirez/go-fit-logo.png"
       inkscape:export-xdpi="90"
       inkscape:export-ydpi="90" />
    <path
       inkscape:connector-curvature="0"
       d="m 404.5416,517.06698 c -13.97562,-5.079 -28.91487,4.75862 -23.10812,20.6145 6.6175,18.06949 34.3985,32.99712 44.27512,14.26925 6.92388,-13.12825 -8.03025,-19.6915 -4.34025,-28.784 9.48188,-23.37275 5.50238,2.01687 -16.82675,-6.09975 z"
       style="fill:none;stroke:#fefefe;stroke-width:1.25012505;stroke-linecap:butt;stroke-linejoin:miter;stroke-miterlimit:22.92558479;stroke-opacity:1;stroke-dasharray:none"
       id="path66"
       inkscape:export-filename="/home/rafaramirez/go-fit-logo.png"
       inkscape:export-xdpi="90"
       inkscape:export-ydpi="90" />
    <path
       inkscape:connector-curvature="0"
       d="m 450.09073,459.78723 c -1.194,-0.5665 -2.40838,-0.84438 -3.65388,-0.84438 -3.58187,0 -5.36237,2.1615 -5.36237,6.474 l 0,4.59 7.71937,0 0,5.609 -7.71937,0 0,27.737 -7.06,0 0,-27.737 -5.67113,0 0,-5.609 5.67113,0 0,-4.95037 c 0,-3.63325 1.09087,-6.515 3.28287,-8.63538 2.1925,-2.12037 5.002,-3.18012 8.41925,-3.18012 1.76988,0 3.2215,0.19525 4.37413,0.597 l 0,5.94925 z m 3.396,-1.24575 c 0,-1.18388 0.412,-2.1615 1.22487,-2.93363 0.81313,-0.77137 1.84213,-1.1625 3.08725,-1.1625 1.225,0 2.2645,0.39113 3.10825,1.1625 0.844,0.77213 1.266,1.74975 1.266,2.93363 0,1.19362 -0.422,2.172 -1.266,2.94337 -0.84375,0.77213 -1.88325,1.16288 -3.10825,1.16288 -1.2245,0 -2.2535,-0.39075 -3.077,-1.17275 -0.82312,-0.79275 -1.23512,-1.76 -1.23512,-2.9335 z m 0.68987,44.81137 0,-33.346 7.09088,0 0,33.346 -7.09088,0 z m 38.59475,-0.76037 c -1.3075,0.74062 -7.58487,1.51162 -10.03437,1.51162 -6.34038,0 -9.4995,-3.437 -9.4995,-10.3125 l 0,-18.17575 -5.64025,0 0,-5.609 5.64025,0 0,-10.72912 7.05,0 0,10.72912 8.0795,0 0,5.609 -8.0795,0 0,16.94063 c 0,2.06887 0.37037,3.57162 1.101,4.4975 0.73062,0.92662 1.91437,1.37975 3.54037,1.37975 1.26613,0 6.82375,-0.76075 7.8425,-1.4815 l 0,5.64025 z"
       style="fill:#2b2a29;fill-opacity:1;fill-rule:nonzero;stroke:#fefefe;stroke-width:1.25012505;stroke-linecap:butt;stroke-linejoin:miter;stroke-miterlimit:22.92558479;stroke-opacity:1;stroke-dasharray:none"
       id="path68"
       inkscape:export-filename="/home/rafaramirez/go-fit-logo.png"
       inkscape:export-xdpi="90"
       inkscape:export-ydpi="90" />
    <text
       style="font-size:15px"
       y="611.82098"
       x="252.2321"
       id="text70"
       inkscape:export-filename="/home/rafaramirez/go-fit-logo.png"
       inkscape:export-xdpi="90"
       inkscape:export-ydpi="90">
      <tspan
         style="font-size:23.54999924px;font-variant:normal;font-weight:normal;writing-mode:lr-tb;fill:#e08600;fill-opacity:1;fill-rule:nonzero;stroke:none;font-family:Arial Black;-inkscape-font-specification:ArialMT"
         x="252.2321 271.84924 284.94305 298.03687 305.879 311.10709 324.2009 330.7478 338.58997 345.13684 364.754 377.84781 390.94162 397.48849 410.58231 422.3573 435.45111 443.29327 462.9104 476.00421 481.2323"
         y="611.82098"
         sodipodi:role="line"
         id="tspan72">Madrid - Montecarmelo</tspan>
    </text>
  </g>
</svg>
