<?xml version="1.0" encoding="UTF-8" standalone="no"?>
<!-- Created with Inkscape (http://www.inkscape.org/) -->

<svg
   xmlns:dc="http://purl.org/dc/elements/1.1/"
   xmlns:cc="http://creativecommons.org/ns#"
   xmlns:rdf="http://www.w3.org/1999/02/22-rdf-syntax-ns#"
   xmlns:svg="http://www.w3.org/2000/svg"
   xmlns="http://www.w3.org/2000/svg"
   xmlns:sodipodi="http://sodipodi.sourceforge.net/DTD/sodipodi-0.dtd"
   xmlns:inkscape="http://www.inkscape.org/namespaces/inkscape"
   id="svg2"
   version="1.1"
   inkscape:version="0.48.4 r9939"
   width="708.66241"
   height="254.60461"
   xml:space="preserve"
   sodipodi:docname="paypal-logo.svg"><metadata
     id="metadata8"><rdf:RDF><cc:Work
         rdf:about=""><dc:format>image/svg+xml</dc:format><dc:type
           rdf:resource="http://purl.org/dc/dcmitype/StillImage" /><dc:title /></cc:Work></rdf:RDF></metadata><defs
     id="defs6" /><sodipodi:namedview
     pagecolor="#ffffff"
     bordercolor="#666666"
     borderopacity="1"
     objecttolerance="10"
     gridtolerance="10"
     guidetolerance="10"
     inkscape:pageopacity="0"
     inkscape:pageshadow="2"
     inkscape:window-width="960"
     inkscape:window-height="1028"
     id="namedview4"
     showgrid="false"
     inkscape:zoom="1.0188207"
     inkscape:cx="363.60507"
     inkscape:cy="248.97073"
     inkscape:window-x="960"
     inkscape:window-y="24"
     inkscape:window-maximized="0"
     inkscape:current-layer="g12"
     fit-margin-top="0"
     fit-margin-left="0"
     fit-margin-right="0"
     fit-margin-bottom="0" /><g
     id="g10"
     inkscape:groupmode="layer"
     inkscape:label="ink_ext_XXXXXX"
     transform="matrix(1.25,0,0,-1.25,-2.4790217e-4,254.60461)"><g
       id="g12"
       transform="scale(0.1,0.1)"><path
         d="m 494.664,1050.27 387.445,0 c 207.991,0 286.321,-105.29 274.221,-260.231 -19.94,-255.43 -174.377,-396.68 -379.217,-396.68 l -103.422,0 c -28.07,0 -46.961,-18.554 -54.605,-68.988 L 574.719,31.5391 C 571.84,12.5313 561.836,1.35938 546.801,0 L 303.863,0 C 281.008,0 272.871,17.4883 278.852,55.3711 L 427.211,994.707 c 5.941,37.643 26.539,55.563 67.453,55.563"
         style="fill:#ff7f01;fill-opacity:1;fill-rule:evenodd;stroke:none"
         id="path14"
         inkscape:connector-curvature="0" /><path
         d="m 3341.4,778.953 -129.51,0 c -26.84,0 -37.74,-19.637 -29.21,-44.617 L 3344.07,261.699 3185.03,36.8984 C 3171.76,18.1406 3182,0.980469 3200.73,0.980469 l 146.12,0 c 21.82,0 32.45,5.558591 43.43,21.308631 l 496.37,712.0469 c 15.29,21.934 8.07,44.883 -16.99,44.914 l -138.15,0.145 c -23.71,0.019 -33.23,-9.356 -46.85,-29.102 L 3477.62,449.922 3385.51,750.82 c -5.67,18.543 -19.21,28.133 -44.11,28.133 z M 2696.36,338.789 c -85.11,0 -144.44,67.883 -132.06,151.113 12.38,83.235 91.91,151.114 177.01,151.114 85.12,0 144.45,-67.879 132.06,-151.114 -12.38,-83.23 -91.9,-151.113 -177.01,-151.113 l 0,0 z m 107.27,-76.16 c 13.17,11.949 26.63,18.223 24.68,3.422 l -4.69,-35.43 c -2.44,-18.449 4.91,-28.332 22.15,-28.332 l 128.18,0 c 21.56,0 32.1,8.75 37.42,42.121 l 79,495.824 c 3.96,24.911 -2.06,37.129 -20.99,37.129 l -140.94,0 c -12.71,0 -18.86,-7.136 -22.19,-26.543 l -5.23,-30.527 c -2.72,-15.93 -10.01,-18.684 -16.79,-2.656 -23.93,56.64 -84.93,82.031 -170.46,80.273 -197.73,-4.07 -331.05,-154.18 -345.3,-346.582 -11.02,-148.848 95.65,-265.719 236.19,-265.719 101.99,0.012 147.61,30.411 198.97,77.02 l 0,0 z m -862.11,395.801 117.54,-0.024 c 73.47,2.778 122.33,53.664 127.24,145.489 3.04,56.71 -35.25,97.277 -96.22,96.996 l -110.65,-0.5 -37.91,-241.961 0,0 z m 235.05,409.21 c 130.74,0 251.33,-70.882 234.82,-247.64 -19.57,-209.539 -132.5,-326.238 -310.12,-326.719 l -154.94,0 c -22.34,0 -33.07,-18.152 -38.94,-55.539 l -29.9,-190.711 c -4.51,-28.793 -19.26,-43.011 -41.14,-43.011 l -144.29,0 c -23.02,0 -31.04,14.71 -25.92,47.589 l 119.28,764.441 c 5.87,37.6 20.25,51.59 45.74,51.59 l 345.41,0 0,0"
         style="fill:#000000;fill-opacity:1;fill-rule:evenodd;stroke:none"
         id="path16"
         inkscape:connector-curvature="0" /><path
         d="m 5514.33,201.41 -147.96,0 c -11.75,0 -19.91,9.211 -18.13,20.461 l 130.11,823.559 c 1.78,11.25 12.86,20.47 24.61,20.47 l 147.95,0 c 11.76,0 19.92,-9.22 18.15,-20.47 L 5538.94,221.871 c -1.79,-11.25 -12.85,-20.461 -24.61,-20.461 z m -591.3,137.379 c -85.11,0 -144.43,67.883 -132.06,151.113 12.39,83.235 91.91,151.114 177.02,151.114 85.11,0 144.44,-67.879 132.05,-151.114 -12.38,-83.23 -91.89,-151.113 -177.01,-151.113 l 0,0 z m 107.27,-76.16 c 13.17,11.949 26.63,18.223 24.68,3.422 l -4.69,-35.43 c -2.44,-18.449 4.92,-28.332 22.15,-28.332 l 128.18,0 c 21.56,0 32.11,8.75 37.42,42.121 l 79,495.824 c 3.96,24.911 -2.06,37.129 -20.99,37.129 l -140.93,0 c -12.72,0 -18.87,-7.136 -22.2,-26.543 l -5.23,-30.527 c -2.72,-15.93 -10.01,-18.684 -16.79,-2.656 -23.93,56.64 -84.92,82.031 -170.46,80.273 -197.73,-4.07 -331.04,-154.18 -345.3,-346.582 -11.02,-148.848 95.66,-265.719 236.19,-265.719 101.99,0.012 147.61,30.411 198.97,77.02 l 0,0 z m -862.11,395.801 117.54,-0.024 c 73.47,2.778 122.34,53.664 127.25,145.489 3.03,56.71 -35.26,97.277 -96.23,96.996 l -110.64,-0.5 -37.92,-241.961 0,0 z m 235.05,409.21 c 130.74,0 251.33,-70.882 234.82,-247.64 -19.57,-209.539 -132.5,-326.238 -310.12,-326.719 l -154.94,0 c -22.34,0 -33.07,-18.152 -38.93,-55.539 l -29.9,-190.711 c -4.52,-28.793 -19.27,-43.011 -41.15,-43.011 l -144.29,0 c -23.01,0 -31.04,14.71 -25.91,47.589 l 119.27,764.441 c 5.87,37.6 20.25,51.59 45.74,51.59 l 345.41,0 0,0"
         style="fill:#ff7f01;fill-opacity:1;fill-rule:evenodd;stroke:none"
         id="path18"
         inkscape:connector-curvature="0" /><path
         d="m 252.445,1373.54 387.828,0 c 109.235,0 238.782,-3.54 325.45,-79.98 57.887,-51.06 88.267,-132.41 81.257,-219.74 C 1023.2,777.676 846.055,611.816 608.516,611.816 l -191.274,0 c -32.558,0 -54.137,-21.574 -63.32,-80 L 300.547,192.27 c -3.461,-22.04 -13.012,-35.008 -30.445,-36.579 l -238.9067,0 c -26.5078,0 -35.93358,20.278 -28.99217,64.2 L 174.234,1309.11 c 6.887,43.65 30.766,64.43 78.211,64.43"
         style="fill:#000000;fill-opacity:1;fill-rule:evenodd;stroke:none"
         id="path20"
         inkscape:connector-curvature="0" /><path
         d="m 359.48,566.047 67.731,428.66 c 5.941,37.653 26.539,55.563 67.453,55.563 l 387.445,0 c 64.137,0 115.954,-10 156.571,-28.45 C 999.746,758.262 829.281,611.816 606.047,611.816 l -191.277,0 c -25.18,0 -43.989,-12.871 -55.29,-45.769"
         style="fill:#000000;fill-opacity:1;fill-rule:evenodd;stroke:none"
         id="path22"
         inkscape:connector-curvature="0" /><g
         id="g744"
         transform="matrix(3.8495567,0,0,3.8495567,4941.3326,822.03711)"><path
           inkscape:connector-curvature="0"
           d="m 0,0 -5.734,0 c 0,0 -12.816,2.37 -6.523,-9.759 0,0 0.441,-0.289 1.08,-0.42 l 0.783,-2.547 0.403,2.585 c 0.311,0.073 0.635,0.157 0.96,0.382 0,0 0.652,-0.607 1.582,-0.753 l 0.683,-2.214 0.351,2.276 c 0.415,0.115 0.854,0.335 1.303,0.765 0,0 0.44,-0.497 1.198,-0.647 l 0.732,-2.394 0.389,2.47 c 0.389,0.123 0.814,0.336 1.277,0.73 l 4.56,0.241 c 0,0 1.198,7.06 -3.044,9.285"
           style="fill:#000000;fill-opacity:1;fill-rule:nonzero;stroke:none"
           id="path746" /></g><g
         id="g748"
         transform="matrix(3.8495567,0,0,3.8495567,4830.7517,782.50801)"><path
           inkscape:connector-curvature="0"
           d="m 0,0 -5.734,0 c 0,0 -12.816,2.371 -6.523,-9.759 0,0 0.441,-0.286 1.08,-0.42 l 0.783,-2.547 0.403,2.583 c 0.312,0.075 0.635,0.16 0.96,0.384 0,0 0.652,-0.603 1.582,-0.753 l 0.683,-2.214 0.351,2.277 c 0.414,0.117 0.854,0.338 1.303,0.762 0,0 0.44,-0.494 1.198,-0.645 l 0.732,-2.394 0.389,2.471 c 0.39,0.122 0.814,0.333 1.277,0.727 l 4.56,0.241 c 0,0 1.198,7.06 -3.044,9.287"
           style="fill:#000000;fill-opacity:1;fill-rule:nonzero;stroke:none"
           id="path750" /></g><g
         id="g752"
         transform="matrix(3.8495567,0,0,3.8495567,4866.0029,931.55041)"><path
           inkscape:connector-curvature="0"
           d="m 0,0 4.487,-39.863 -7.001,-3.17 -5.511,55.505 -0.482,-52.335 -6.884,0 0,42.341 L 0,0 z"
           style="fill:#000000;fill-opacity:1;fill-rule:nonzero;stroke:none"
           id="path754" /></g><g
         id="g756"
         transform="matrix(3.8495567,0,0,3.8495567,4779.6662,1072.6514)"><path
           inkscape:connector-curvature="0"
           d="m 0,0 c 0,0 -44.047,135.995 30.586,135.995 74.634,0 22.861,-211.939 22.861,-211.939 l -5.737,1.956 c 0,0 0.136,33.505 3.653,64.467 3.251,28.624 0,45.482 -17.308,45.482 -17.308,0 -3.725,-48.812 -2.325,-50.543"
           style="fill:#000000;fill-opacity:1;fill-rule:nonzero;stroke:none"
           id="path758" /></g><g
         id="g760"
         transform="matrix(3.8495567,0,0,3.8495567,5008.5608,1251.6819)"><path
           inkscape:connector-curvature="0"
           d="m 0,0 c -2.616,-55.825 -17.08,-115.032 -17.08,-115.032 l -5.736,1.955 c 0,0 0.135,33.508 3.652,64.471 3.252,28.622 0,45.481 -17.308,45.481 C -23.864,7.804 2.335,49.798 0,0"
           style="fill:#000000;fill-opacity:1;fill-rule:nonzero;stroke:none"
           id="path762" /></g><g
         id="g764"
         transform="matrix(3.8495567,0,0,3.8495567,4967.1704,797.18051)"><path
           inkscape:connector-curvature="0"
           d="m 0,0 5.734,0 c 0,0 12.816,2.371 6.524,-9.759 0,0 -0.441,-0.289 -1.081,-0.419 l -0.783,-2.548 -0.402,2.586 c -0.312,0.072 -0.635,0.157 -0.96,0.381 0,0 -0.653,-0.606 -1.582,-0.752 l -0.683,-2.215 -0.351,2.277 c -0.415,0.115 -0.855,0.335 -1.304,0.765 0,0 -0.439,-0.497 -1.197,-0.648 l -0.732,-2.394 -0.39,2.471 c -0.389,0.123 -0.814,0.335 -1.277,0.73 l -4.56,0.241 c 0,0 -1.197,7.059 3.044,9.284"
           style="fill:#000000;fill-opacity:1;fill-rule:nonzero;stroke:none"
           id="path766" /></g><g
         id="g768"
         transform="matrix(3.8495567,0,0,3.8495567,4866.6835,790.03771)"><path
           inkscape:connector-curvature="0"
           d="m 0,0 5.734,0 c 0,0 12.816,2.37 6.523,-9.759 0,0 -0.441,-0.289 -1.08,-0.42 l -0.783,-2.55 -0.403,2.586 c -0.312,0.072 -0.635,0.159 -0.96,0.384 0,0 -0.652,-0.606 -1.582,-0.753 L 6.766,-12.729 6.415,-10.45 C 6,-10.335 5.56,-10.114 5.112,-9.688 c 0,0 -0.44,-0.496 -1.198,-0.644 l -0.732,-2.397 -0.389,2.474 c -0.39,0.122 -0.814,0.332 -1.277,0.727 l -4.56,0.24 c 0,0 -1.198,7.06 3.044,9.288"
           style="fill:#000000;fill-opacity:1;fill-rule:nonzero;stroke:none"
           id="path770" /></g><g
         id="g772"
         transform="matrix(3.8495567,0,0,3.8495567,4939.1145,980.37091)"><path
           inkscape:connector-curvature="0"
           d="m 0,0 -1.896,3.681 0.775,0 0,2.719 c 0,0 2.519,-1.746 0,1.357 -2.522,3.102 -6.398,15.124 -6.398,15.124 C 0,35.289 -13.724,48.669 -13.724,48.669 L -26.521,30.83 c -1.357,1.162 -5.43,1.744 -9.695,1.744 -4.264,0 -8.338,-0.582 -9.694,-1.744 l -12.8,17.839 c 0,0 -13.722,-13.38 -6.203,-25.788 0,0 -3.876,-12.022 -6.398,-15.124 -2.519,-3.103 0,-1.357 0,-1.357 l 0,-2.719 0.774,0 -1.895,-3.681 2.672,0 -0.388,-2.521 1.359,0 0.775,-3.49 1.358,0 2.132,-2.908 1.935,1.162 c 0,0 8.146,-10.665 26.373,-10.665 18.228,0 26.37,10.665 26.37,10.665 l 1.939,-1.162 2.132,2.908 1.357,0 0.775,3.49 1.36,0 L -2.672,0 0,0 z"
           style="fill:#000000;fill-opacity:1;fill-rule:nonzero;stroke:none"
           id="path774" /></g><g
         id="g776"
         transform="matrix(3.8495567,0,0,3.8495567,4711.3516,1038.3172)"><path
           inkscape:connector-curvature="0"
           d="m 0,0 c 0,0 7.247,2.58 13.115,-3.609 5.869,-6.193 2.399,-12.194 2.399,-12.194 0,0 0.86,-1.927 -0.451,-1.661 -1.311,0.266 -1.081,0.706 -1.081,0.706 0,0 -19.767,2.555 -15.252,15.025 0,0 -1.671,1.221 1.27,1.733"
           style="fill:#ffffff;fill-opacity:1;fill-rule:nonzero;stroke:none"
           id="path778" /></g><g
         id="g780"
         transform="matrix(3.8495567,0,0,3.8495567,4888.0478,1038.3172)"><path
           inkscape:connector-curvature="0"
           d="m 0,0 c 0,0 -7.247,2.58 -13.12,-3.609 -5.867,-6.193 -2.394,-12.194 -2.394,-12.194 0,0 -0.862,-1.927 0.451,-1.661 1.311,0.266 1.081,0.706 1.081,0.706 0,0 19.767,2.555 15.252,15.025 0,0 1.671,1.221 -1.27,1.733"
           style="fill:#ffffff;fill-opacity:1;fill-rule:nonzero;stroke:none"
           id="path782" /></g><g
         id="g784"
         transform="matrix(3.8495567,0,0,3.8495567,4818.9963,941.08971)"><path
           inkscape:connector-curvature="0"
           d="M 0,0 C 0,0 -3.18,-1.51 -5.013,-4.756 -6.68,-1.51 -10.025,0 -10.025,0 L -5.013,0 0,0 z"
           style="fill:#ffffff;fill-opacity:1;fill-rule:nonzero;stroke:none"
           id="path786" /></g><g
         id="g788"
         transform="matrix(3.8495567,0,0,3.8495567,4759.6138,939.99371)"><path
           inkscape:connector-curvature="0"
           d="m 0,0 c 0,0 -0.774,0.415 -2.197,1.04 -0.716,0.301 -1.58,0.68 -2.596,1.056 -1.011,0.387 -2.16,0.801 -3.433,1.201 -1.258,0.444 -2.666,0.784 -4.131,1.217 -1.493,0.33 -3.046,0.776 -4.693,1.053 -0.82,0.153 -1.654,0.308 -2.498,0.466 -0.847,0.143 -1.712,0.237 -2.579,0.36 -1.733,0.272 -3.511,0.384 -5.287,0.522 l -1.331,0.101 -1.333,0.026 c -0.887,0.017 -1.771,0.034 -2.648,0.051 -1.753,0.03 -3.477,-0.118 -5.147,-0.166 -1.67,-0.069 -3.27,-0.323 -4.795,-0.464 -1.53,-0.12 -2.947,-0.435 -4.267,-0.657 -1.311,-0.258 -2.536,-0.397 -3.583,-0.693 -1.054,-0.266 -1.973,-0.498 -2.73,-0.689 -1.514,-0.383 -2.379,-0.601 -2.379,-0.601 0,0 0.862,0.228 2.372,0.627 0.755,0.2 1.672,0.443 2.724,0.72 1.046,0.309 2.268,0.461 3.579,0.735 1.317,0.236 2.734,0.568 4.264,0.706 1.527,0.158 3.128,0.431 4.801,0.518 1.673,0.067 3.401,0.235 5.159,0.225 0.88,-0.007 1.767,-0.015 2.658,-0.022 l 1.338,-0.011 1.337,-0.086 c 1.785,-0.119 3.572,-0.211 5.316,-0.465 0.873,-0.114 1.743,-0.198 2.596,-0.333 0.85,-0.148 1.69,-0.295 2.516,-0.439 1.658,-0.261 3.226,-0.691 4.732,-1.007 1.479,-0.419 2.9,-0.745 4.172,-1.178 C -2.924,2.238 0.295,0.569 0.295,0.569 L 0,0 z"
           style="fill:#000000;fill-opacity:1;fill-rule:nonzero;stroke:none"
           id="path790" /></g><g
         id="g792"
         transform="matrix(3.8495567,0,0,3.8495567,4764.0085,927.17621)"><path
           inkscape:connector-curvature="0"
           d="m 0,0 c 0,0 -1.029,0.257 -2.87,0.586 -0.918,0.167 -2.039,0.346 -3.327,0.535 -1.291,0.167 -2.746,0.376 -4.344,0.513 -1.594,0.182 -3.328,0.281 -5.162,0.396 -1.835,0.101 -3.774,0.136 -5.778,0.165 -2.004,-0.054 -4.08,0.002 -6.18,-0.167 -1.052,-0.063 -2.111,-0.126 -3.175,-0.189 -1.062,-0.082 -2.124,-0.221 -3.188,-0.329 -1.062,-0.127 -2.131,-0.203 -3.184,-0.372 -1.052,-0.172 -2.1,-0.342 -3.14,-0.511 -2.09,-0.286 -4.101,-0.798 -6.062,-1.223 -1.974,-0.383 -3.821,-0.984 -5.592,-1.484 -0.883,-0.258 -1.742,-0.509 -2.573,-0.753 -0.814,-0.295 -1.6,-0.582 -2.355,-0.856 -1.504,-0.563 -2.906,-1.023 -4.108,-1.531 -1.191,-0.534 -2.23,-0.999 -3.085,-1.383 -1.711,-0.767 -2.689,-1.206 -2.689,-1.206 0,0 0.974,0.448 2.678,1.231 0.852,0.392 1.887,0.868 3.073,1.413 1.199,0.519 2.597,0.992 4.097,1.57 0.753,0.282 1.538,0.576 2.35,0.88 0.83,0.251 1.687,0.51 2.569,0.777 1.769,0.518 3.615,1.137 5.587,1.54 1.962,0.443 3.974,0.976 6.065,1.282 1.041,0.179 2.091,0.36 3.144,0.541 1.054,0.179 2.125,0.266 3.188,0.404 1.067,0.118 2.131,0.267 3.196,0.36 1.066,0.073 2.129,0.146 3.182,0.218 2.107,0.19 4.19,0.153 6.201,0.226 2.012,-0.01 3.96,-0.027 5.802,-0.111 1.843,-0.099 3.587,-0.182 5.19,-0.35 C -8.883,2.049 -7.418,1.853 -6.118,1.697 -4.82,1.52 -3.69,1.35 -2.763,1.19 -0.907,0.876 0.146,0.625 0.146,0.624 L 0,0 z"
           style="fill:#000000;fill-opacity:1;fill-rule:nonzero;stroke:none"
           id="path794" /></g><g
         id="g796"
         transform="matrix(3.8495567,0,0,3.8495567,4769.8544,915.59021)"><path
           inkscape:connector-curvature="0"
           d="m 0,0 c 0.001,0 -0.578,0.112 -1.616,0.218 -0.516,0.069 -1.15,0.101 -1.873,0.164 -0.727,0.023 -1.546,0.089 -2.441,0.078 -0.896,0.008 -1.866,0 -2.89,-0.067 -1.028,-0.024 -2.102,-0.169 -3.217,-0.275 -1.109,-0.15 -2.254,-0.33 -3.407,-0.558 -1.141,-0.287 -2.327,-0.484 -3.455,-0.882 l -1.71,-0.534 c -0.565,-0.191 -1.105,-0.439 -1.654,-0.654 -0.542,-0.227 -1.092,-0.429 -1.615,-0.672 -0.513,-0.266 -1.018,-0.528 -1.517,-0.786 -0.493,-0.267 -1.001,-0.492 -1.457,-0.782 -0.452,-0.295 -0.894,-0.583 -1.326,-0.865 -0.43,-0.281 -0.85,-0.555 -1.256,-0.82 -0.387,-0.29 -0.741,-0.598 -1.091,-0.879 -0.69,-0.577 -1.35,-1.075 -1.885,-1.57 -0.511,-0.524 -0.956,-0.98 -1.322,-1.356 -0.735,-0.752 -1.154,-1.181 -1.154,-1.181 0,0 0.412,0.436 1.133,1.2 0.361,0.383 0.799,0.847 1.302,1.38 0.528,0.505 1.181,1.015 1.863,1.605 0.347,0.287 0.697,0.603 1.08,0.901 0.404,0.272 0.82,0.554 1.248,0.844 0.428,0.289 0.868,0.587 1.319,0.892 0.453,0.298 0.959,0.532 1.45,0.809 0.497,0.269 1.002,0.541 1.513,0.817 0.523,0.253 1.073,0.466 1.616,0.704 0.548,0.225 1.089,0.484 1.654,0.686 l 1.714,0.567 c 1.134,0.42 2.323,0.64 3.47,0.948 1.16,0.249 2.312,0.451 3.429,0.621 1.124,0.126 2.207,0.289 3.244,0.331 1.035,0.085 2.015,0.11 2.921,0.117 0.906,0.025 1.737,-0.026 2.472,-0.038 C -2.723,0.912 -2.081,0.89 -1.554,0.829 -0.499,0.739 0.104,0.633 0.105,0.633 L 0,0 z"
           style="fill:#000000;fill-opacity:1;fill-rule:nonzero;stroke:none"
           id="path798" /></g><g
         id="g800"
         transform="matrix(3.8495567,0,0,3.8495567,4838.6503,942.18561)"><path
           inkscape:connector-curvature="0"
           d="m 0,0 c 0,0 3.219,1.669 8.357,3.244 1.273,0.432 2.694,0.758 4.173,1.178 1.506,0.315 3.074,0.746 4.732,1.006 0.826,0.145 1.666,0.291 2.516,0.44 0.853,0.134 1.723,0.219 2.596,0.333 1.744,0.254 3.531,0.346 5.315,0.465 l 1.338,0.085 1.338,0.012 c 0.891,0.007 1.778,0.014 2.657,0.022 1.759,0.01 3.487,-0.159 5.16,-0.225 1.672,-0.088 3.274,-0.361 4.8,-0.518 1.531,-0.138 2.948,-0.47 4.265,-0.707 1.311,-0.273 2.533,-0.426 3.579,-0.734 1.052,-0.278 1.969,-0.52 2.724,-0.72 1.51,-0.4 2.372,-0.628 2.372,-0.628 0,0 -0.865,0.219 -2.379,0.601 -0.757,0.191 -1.676,0.423 -2.73,0.689 C 49.766,4.84 48.541,4.979 47.229,5.237 45.91,5.458 44.493,5.774 42.963,5.894 41.438,6.034 39.838,6.289 38.168,6.357 36.498,6.405 34.774,6.554 33.021,6.524 32.144,6.507 31.26,6.49 30.373,6.472 L 29.04,6.446 27.709,6.346 C 25.933,6.208 24.155,6.096 22.422,5.823 21.555,5.7 20.689,5.607 19.843,5.463 18.999,5.306 18.165,5.151 17.345,4.998 15.698,4.721 14.145,4.274 12.652,3.945 11.187,3.511 9.779,3.172 8.521,2.728 7.248,2.328 6.099,1.914 5.088,1.526 4.072,1.15 3.208,0.772 2.492,0.471 1.069,-0.154 0.295,-0.569 0.295,-0.569 L 0,0 z"
           style="fill:#000000;fill-opacity:1;fill-rule:nonzero;stroke:none"
           id="path802" /></g><g
         id="g804"
         transform="matrix(3.8495567,0,0,3.8495567,4834.8268,929.57881)"><path
           inkscape:connector-curvature="0"
           d="m 0,0 c 0,0 1.054,0.252 2.909,0.566 0.928,0.16 2.058,0.33 3.356,0.507 1.299,0.156 2.764,0.352 4.372,0.475 1.602,0.168 3.346,0.251 5.189,0.35 1.843,0.084 3.79,0.101 5.803,0.111 2.011,-0.073 4.094,-0.036 6.2,-0.226 1.054,-0.072 2.116,-0.145 3.183,-0.219 1.064,-0.092 2.129,-0.241 3.195,-0.359 1.064,-0.138 2.135,-0.225 3.189,-0.404 1.052,-0.181 2.102,-0.362 3.143,-0.541 2.091,-0.307 4.104,-0.839 6.065,-1.282 1.972,-0.404 3.819,-1.023 5.587,-1.541 0.882,-0.266 1.74,-0.525 2.57,-0.776 0.811,-0.305 1.595,-0.599 2.349,-0.881 1.5,-0.577 2.899,-1.051 4.097,-1.57 1.187,-0.545 2.222,-1.021 3.073,-1.412 1.704,-0.783 2.678,-1.231 2.678,-1.231 0,0 -0.978,0.439 -2.688,1.206 -0.856,0.383 -1.895,0.849 -3.085,1.383 -1.204,0.507 -2.605,0.967 -4.109,1.53 -0.755,0.275 -1.541,0.561 -2.354,0.857 -0.831,0.243 -1.691,0.494 -2.574,0.752 -1.77,0.5 -3.618,1.101 -5.591,1.485 -1.961,0.425 -3.973,0.937 -6.064,1.223 -1.039,0.169 -2.087,0.339 -3.139,0.51 -1.052,0.17 -2.122,0.245 -3.184,0.373 -1.065,0.108 -2.125,0.247 -3.188,0.329 -1.063,0.063 -2.123,0.126 -3.174,0.188 -2.101,0.17 -4.176,0.114 -6.18,0.168 C 19.623,1.542 17.685,1.507 15.85,1.406 14.016,1.291 12.281,1.192 10.688,1.01 9.09,0.873 7.635,0.664 6.344,0.497 5.056,0.308 3.935,0.129 3.017,-0.038 1.176,-0.367 0.146,-0.624 0.146,-0.624 L 0,0 z"
           style="fill:#000000;fill-opacity:1;fill-rule:nonzero;stroke:none"
           id="path806" /></g><g
         id="g808"
         transform="matrix(3.8495567,0,0,3.8495567,4829.1392,918.02621)"><path
           inkscape:connector-curvature="0"
           d="M 0,0 C 0.001,0 0.604,0.106 1.659,0.196 2.187,0.257 2.828,0.279 3.563,0.33 4.299,0.342 5.13,0.394 6.035,0.369 6.941,0.361 7.922,0.336 8.956,0.251 9.993,0.209 11.076,0.046 12.2,-0.08 c 1.117,-0.17 2.27,-0.372 3.43,-0.621 1.146,-0.308 2.336,-0.528 3.47,-0.947 l 1.713,-0.568 c 0.566,-0.202 1.107,-0.461 1.655,-0.686 0.543,-0.238 1.093,-0.451 1.615,-0.704 0.512,-0.276 1.017,-0.548 1.514,-0.816 0.491,-0.278 0.997,-0.512 1.45,-0.81 0.45,-0.305 0.89,-0.602 1.318,-0.892 0.429,-0.29 0.845,-0.572 1.248,-0.844 0.383,-0.298 0.734,-0.614 1.08,-0.901 0.682,-0.59 1.335,-1.1 1.864,-1.605 0.503,-0.533 0.94,-0.997 1.301,-1.38 0.721,-0.764 1.133,-1.2 1.133,-1.2 0,0 -0.419,0.429 -1.153,1.181 -0.366,0.376 -0.812,0.832 -1.322,1.356 -0.536,0.496 -1.196,0.994 -1.885,1.57 -0.351,0.281 -0.704,0.589 -1.092,0.879 -0.405,0.265 -0.825,0.539 -1.256,0.82 -0.431,0.282 -0.874,0.57 -1.326,0.866 -0.456,0.289 -0.964,0.514 -1.457,0.781 -0.498,0.258 -1.004,0.52 -1.517,0.786 -0.522,0.243 -1.073,0.445 -1.615,0.672 -0.549,0.215 -1.089,0.463 -1.653,0.654 l -1.71,0.534 c -1.129,0.398 -2.315,0.595 -3.455,0.882 -1.154,0.228 -2.299,0.408 -3.407,0.558 -1.116,0.106 -2.19,0.251 -3.217,0.275 C 7.901,-0.173 6.932,-0.165 6.035,-0.172 5.141,-0.162 4.321,-0.228 3.595,-0.251 2.871,-0.314 2.237,-0.346 1.722,-0.415 0.684,-0.521 0.104,-0.632 0.105,-0.633 L 0,0 z"
           style="fill:#000000;fill-opacity:1;fill-rule:nonzero;stroke:none"
           id="path810" /></g><g
         id="g812"
         transform="matrix(3.8495567,0,0,3.8495567,4745.802,1036.0016)"><path
           inkscape:connector-curvature="0"
           d="M 0,0 C 0,0 0.146,-0.343 0.333,-0.863 0.521,-1.385 0.732,-2.056 0.927,-2.829 1.076,-3.579 1.247,-4.406 1.275,-5.22 1.304,-6.034 1.359,-6.843 1.206,-7.631 1.176,-8.01 1.155,-8.395 1.061,-8.768 1.02,-9.137 0.81,-9.536 0.773,-9.874 c -0.071,-0.351 -0.189,-0.707 -0.317,-1.06 -0.115,-0.345 -0.338,-0.727 -0.423,-1.042 -0.212,-0.648 -0.472,-1.303 -0.701,-1.817 -0.215,-0.51 -0.396,-0.868 -0.396,-0.868 0,0 -0.333,0.09 -0.82,0.361 -0.491,0.269 -1.141,0.735 -1.815,1.428 -0.345,0.351 -0.528,0.761 -0.78,1.214 -0.226,0.453 -0.441,0.95 -0.615,1.482 -0.21,0.543 -0.22,1.062 -0.266,1.623 -0.051,0.553 -0.029,1.121 -0.013,1.684 0.202,1.068 0.464,2.153 0.96,3.05 0.491,0.901 1.067,1.681 1.733,2.255 0.638,0.578 1.306,1.001 1.821,1.239 C -0.363,-0.08 0,0 0,0"
           style="fill:#000000;fill-opacity:1;fill-rule:nonzero;stroke:none"
           id="path814" /></g><g
         id="g816"
         transform="matrix(3.8495567,0,0,3.8495567,4853.5973,1036.0016)"><path
           inkscape:connector-curvature="0"
           d="M 0,0 C 0,0 0.363,-0.08 0.859,-0.325 1.374,-0.563 2.043,-0.986 2.68,-1.564 3.346,-2.138 3.922,-2.918 4.413,-3.819 4.91,-4.716 5.171,-5.801 5.373,-6.869 5.389,-7.432 5.411,-8 5.36,-8.553 5.314,-9.114 5.304,-9.633 5.094,-10.176 4.92,-10.708 4.705,-11.205 4.479,-11.658 4.227,-12.111 4.044,-12.521 3.699,-12.872 3.025,-13.565 2.375,-14.031 1.884,-14.3 c -0.487,-0.271 -0.82,-0.361 -0.82,-0.361 0,0 -0.181,0.358 -0.396,0.868 -0.229,0.514 -0.489,1.169 -0.704,1.817 -0.082,0.315 -0.305,0.697 -0.42,1.042 -0.128,0.353 -0.246,0.709 -0.317,1.06 -0.037,0.338 -0.247,0.737 -0.288,1.106 -0.094,0.373 -0.115,0.758 -0.145,1.137 -0.153,0.788 -0.098,1.597 -0.069,2.411 0.025,0.814 0.2,1.641 0.348,2.391 0.195,0.773 0.406,1.444 0.591,1.966 C -0.146,-0.343 0,0 0,0"
           style="fill:#000000;fill-opacity:1;fill-rule:nonzero;stroke:none"
           id="path818" /></g><g
         id="g820"
         transform="matrix(3.8495567,0,0,3.8495567,4987.9557,1539.6638)"><path
           inkscape:connector-curvature="0"
           d="m 0,0 c 25.513,37.678 15.651,88.906 -22.026,114.421 -30.141,20.411 -71.124,12.522 -91.535,-17.62 -16.33,-24.114 -10.019,-56.9 14.095,-73.229 19.29,-13.063 45.52,-8.013 58.583,11.277"
           style="fill:none;stroke:#000000;stroke-width:6.7750001;stroke-linecap:round;stroke-linejoin:miter;stroke-miterlimit:10;stroke-opacity:1;stroke-dasharray:none"
           id="path822" /></g></g></g></svg>