<?xml version="1.0" encoding="UTF-8" standalone="no"?>
<!-- Created with Inkscape (http://www.inkscape.org/) -->

<svg
   xmlns:dc="http://purl.org/dc/elements/1.1/"
   xmlns:cc="http://creativecommons.org/ns#"
   xmlns:rdf="http://www.w3.org/1999/02/22-rdf-syntax-ns#"
   xmlns:svg="http://www.w3.org/2000/svg"
   xmlns="http://www.w3.org/2000/svg"
   xmlns:sodipodi="http://sodipodi.sourceforge.net/DTD/sodipodi-0.dtd"
   xmlns:inkscape="http://www.inkscape.org/namespaces/inkscape"
   width="1000.355"
   height="184.26112"
   id="svg8301"
   version="1.1"
   inkscape:version="0.48.4 r9939"
   sodipodi:docname="New document 3">
  <defs
     id="defs8303" />
  <sodipodi:namedview
     id="base"
     pagecolor="#ffffff"
     bordercolor="#666666"
     borderopacity="1.0"
     inkscape:pageopacity="0.0"
     inkscape:pageshadow="2"
     inkscape:zoom="0.35"
     inkscape:cx="495.1775"
     inkscape:cy="-127.86943"
     inkscape:document-units="px"
     inkscape:current-layer="layer1"
     showgrid="false"
     fit-margin-top="0"
     fit-margin-left="0"
     fit-margin-right="0"
     fit-margin-bottom="0"
     inkscape:window-width="1920"
     inkscape:window-height="1056"
     inkscape:window-x="0"
     inkscape:window-y="24"
     inkscape:window-maximized="1" />
  <metadata
     id="metadata8306">
    <rdf:RDF>
      <cc:Work
         rdf:about="">
        <dc:format>image/svg+xml</dc:format>
        <dc:type
           rdf:resource="http://purl.org/dc/dcmitype/StillImage" />
        <dc:title></dc:title>
      </cc:Work>
    </rdf:RDF>
  </metadata>
  <g
     inkscape:label="Layer 1"
     inkscape:groupmode="layer"
     id="layer1"
     transform="translate(120.1775,-220.23162)">
    <g
       id="g1056"
       transform="matrix(1.25,0,0,-1.25,377.945,286.78162)">
      <path
         inkscape:connector-curvature="0"
         d="m 0,0 c -54.186,0 -108.484,2.727 -162.288,8.167 -115.028,11.629 -204.808,33.941 -236.21,44.115 l 0.309,0.951 C -366.815,43.07 -277.107,20.778 -162.156,9.158 -77.785,0.63 7.814,-1.222 92.268,3.652 197.827,9.747 301.877,26.431 401.526,53.24 l 0.26,-0.965 C 302.063,25.445 197.939,8.75 92.305,2.653 61.651,0.884 30.843,0 0,0"
         style="fill:#91897c;fill-opacity:1;fill-rule:nonzero;stroke:none"
         id="path1058" />
    </g>
    <g
       id="g1060"
       transform="matrix(1.25,0,0,-1.25,-35.9845,241.34275)">
      <path
         inkscape:connector-curvature="0"
         d="M 0,0 -17.797,-91.822 21.12,-78.871 48.811,-107.502 67.124,-13.01 0,0 z"
         style="fill:#f26f2f;fill-opacity:1;fill-rule:nonzero;stroke:none"
         id="path1062" />
    </g>
    <g
       id="g1064"
       transform="matrix(1.25,0,0,-1.25,7.2008804,285.18738)">
      <path
         inkscape:connector-curvature="0"
         d="m 0,0 c -1.88,1.241 -3.782,-0.675 -3.999,-0.906 -0.67,0.47 -1.448,0.813 -2.31,0.979 -0.817,0.157 -1.627,0.139 -2.387,-0.023 -0.194,0.463 -1.249,2.698 -3.355,2.265 0,0 -0.996,-1.759 0.51,-3.764 -0.801,-0.774 -1.376,-1.782 -1.6,-2.945 -0.591,-3.082 1.508,-6.071 4.69,-6.683 3.183,-0.611 6.241,1.388 6.832,4.469 0.217,1.129 0.07,2.243 -0.356,3.237 C 0.286,-2.07 0,0 0,0"
         style="fill:#161616;fill-opacity:1;fill-rule:nonzero;stroke:none"
         id="path1066" />
    </g>
    <g
       id="g1068"
       transform="matrix(1.25,0,0,-1.25,1.8328704,289.0735)">
      <path
         inkscape:connector-curvature="0"
         d="m 0,0 c -0.086,-0.445 -0.516,-0.734 -0.96,-0.648 -0.443,0.085 -0.735,0.512 -0.649,0.957 0.085,0.443 0.515,0.736 0.958,0.651 C -0.208,0.874 0.085,0.443 0,0"
         style="fill:#f26f2f;fill-opacity:1;fill-rule:nonzero;stroke:none"
         id="path1070" />
    </g>
    <g
       id="g1072"
       transform="matrix(1.25,0,0,-1.25,-2.3047496,288.28)">
      <path
         inkscape:connector-curvature="0"
         d="m 0,0 c -0.085,-0.444 -0.515,-0.733 -0.957,-0.649 -0.445,0.086 -0.736,0.514 -0.651,0.959 0.086,0.443 0.513,0.735 0.959,0.65 C -0.205,0.875 0.086,0.444 0,0"
         style="fill:#f26f2f;fill-opacity:1;fill-rule:nonzero;stroke:none"
         id="path1074" />
    </g>
    <g
       id="g1076"
       transform="matrix(1.25,0,0,-1.25,21.38612,283.53938)">
      <path
         inkscape:connector-curvature="0"
         d="m 0,0 c -5.113,-8.765 -18.584,-6.467 -18.584,-6.467 0,0 -13.364,2.857 -14.866,12.893 0,0 -10.547,-0.833 -16.263,-9.264 0,0 9.2,-0.718 10.771,-9.406 0,0 10.409,-0.571 11.149,-9.766 0,0 6.205,-0.097 5.045,-6.138 1.16,6.041 6.958,3.834 6.958,3.834 4.093,8.266 13.974,4.939 13.974,4.939 4.678,7.487 13.489,4.745 13.489,4.745 C 9.487,-4.681 0,0 0,0"
         style="fill:#161616;fill-opacity:1;fill-rule:nonzero;stroke:none"
         id="path1078" />
    </g>
    <g
       id="g1080"
       transform="matrix(1.25,0,0,-1.25,4.6881204,294.14725)">
      <path
         inkscape:connector-curvature="0"
         d="m 0,0 c 0,0 10.395,-0.474 13.903,6.286 0,0 5.026,-2.865 8.862,-9.354 0,0 -4.102,5.411 -8.26,7.269 0,0 0.594,-5.832 -2.133,-10.77 0,0 1.709,6.245 1.06,10.404 0,0 -2.315,-5.272 -13.432,-3.835"
         style="fill:#616160;fill-opacity:1;fill-rule:nonzero;stroke:none"
         id="path1082" />
    </g>
    <g
       id="g1084"
       transform="matrix(1.25,0,0,-1.25,-8.8469996,291.54725)">
      <path
         inkscape:connector-curvature="0"
         d="m 0,0 c 0,0 -9.829,3.412 -10.583,10.99 0,0 -5.732,-0.799 -11.698,-5.405 0,0 5.814,3.506 10.365,3.691 0,0 -2.713,-5.196 -2.009,-10.794 0,0 0.725,6.434 2.871,10.056 0,0 0.195,-5.754 11.054,-8.538"
         style="fill:#616160;fill-opacity:1;fill-rule:nonzero;stroke:none"
         id="path1086" />
    </g>
    <g
       id="g1088"
       transform="matrix(1.25,0,0,-1.25,80.41562,263.2195)">
      <path
         inkscape:connector-curvature="0"
         d="m 0,0 -11.981,-92.76 38.024,15.375 29.438,-26.83 L 67.81,-8.758 0,0 z"
         style="fill:#1c1b1d;fill-opacity:1;fill-rule:nonzero;stroke:none"
         id="path1090" />
    </g>
    <g
       id="g1092"
       transform="matrix(1.25,0,0,-1.25,114.75037,294.334)">
      <path
         inkscape:connector-curvature="0"
         d="M 0,0 C -9.735,0.235 -23.308,-3.851 -21.922,-26.347 -20.538,-48.843 13.023,-51.639 22.19,-34.683 29.973,-20.282 24.709,-0.596 0,0"
         style="fill:#f26f2f;fill-opacity:1;fill-rule:nonzero;stroke:none"
         id="path1094" />
    </g>
    <g
       id="g1096"
       transform="matrix(1.25,0,0,-1.25,107.22412,310.0945)">
      <path
         inkscape:connector-curvature="0"
         d="M 0,0 -0.058,0.134 -0.136,0.011 -5.963,-9.141 -0.926,-9.557 -0.79,-9.568 4.247,-9.984 0,0 z"
         style="fill:#1c1b1d;fill-opacity:1;fill-rule:nonzero;stroke:none"
         id="path1098" />
    </g>
    <g
       id="g1100"
       transform="matrix(1.25,0,0,-1.25,128.35262,311.83837)">
      <path
         inkscape:connector-curvature="0"
         d="M 0,0 -0.056,0.133 -0.134,0.011 -5.962,-9.142 -0.924,-9.558 -0.79,-9.569 4.248,-9.985 0,0 z"
         style="fill:#1c1b1d;fill-opacity:1;fill-rule:nonzero;stroke:none"
         id="path1102" />
    </g>
    <g
       id="g1104"
       transform="matrix(1.25,0,0,-1.25,93.74087,320.96975)">
      <path
         inkscape:connector-curvature="0"
         d="m 0,0 c 0,0 1.143,-4.083 10.374,-7.095 l 0.747,-4.548 2.43,3.602 c 0,0 4.366,-1.323 9.563,-0.885 l 1.567,-3.903 1.258,4.015 c 0,0 6.604,1.371 10.271,5.349 0,0 -2.933,-12.257 -12.665,-13.064 l -2.133,3.633 -0.959,-3.719 c 0,0 -3.126,-0.118 -6.621,0.547 l -0.102,3.806 -2.922,-3.17 c 0,0 -10.165,2.624 -10.808,15.432"
         style="fill:#1c1b1d;fill-opacity:1;fill-rule:nonzero;stroke:none"
         id="path1106" />
    </g>
    <g
       id="g1108"
       transform="matrix(1.25,0,0,-1.25,113.891,298.20613)">
      <path
         inkscape:connector-curvature="0"
         d="m 0,0 c 0,0 -2.427,8.674 6.441,15.606 l 2.555,-1.685 c 0,0 -5.758,-5.493 -1.561,-14.461 C 7.854,-1.434 2.833,-4.95 0,0"
         style="fill:#46413d;fill-opacity:1;fill-rule:nonzero;stroke:none"
         id="path1110" />
    </g>
    <g
       id="g1112"
       transform="matrix(1.25,0,0,-1.25,124.28712,280.24475)">
      <path
         inkscape:connector-curvature="0"
         d="m 0,0 c -0.002,-0.001 -7.519,-3.814 -3.702,-16.895 1.717,0.285 3.044,1.508 2.82,1.986 -4.197,8.968 1.561,14.461 1.561,14.461 L 0,0 z"
         style="fill:#22211f;fill-opacity:1;fill-rule:nonzero;stroke:none"
         id="path1114" />
    </g>
    <g
       id="g1116"
       transform="matrix(1.25,0,0,-1.25,196.477,277.40413)">
      <path
         inkscape:connector-curvature="0"
         d="m 0,0 -5.7,-93.357 36.901,17.904 31.18,-24.785 5.866,96.071 L 0,0 z"
         style="fill:#f26f2f;fill-opacity:1;fill-rule:nonzero;stroke:none"
         id="path1118" />
    </g>
    <g
       id="g1120"
       transform="matrix(1.25,0,0,-1.25,244.4745,315.0445)">
      <path
         inkscape:connector-curvature="0"
         d="m 0,0 c -2.029,0.979 -3.658,-1.174 -3.842,-1.433 -0.727,0.377 -1.544,0.613 -2.42,0.662 -0.831,0.046 -1.631,-0.079 -2.363,-0.342 -0.254,0.433 -1.598,2.508 -3.627,1.797 0,0 -0.752,-1.876 1.008,-3.661 -0.691,-0.875 -1.126,-1.951 -1.192,-3.134 -0.174,-3.132 2.305,-5.815 5.541,-5.996 3.236,-0.18 6,2.209 6.174,5.341 0.064,1.149 -0.231,2.233 -0.786,3.161 C 0.56,-2.014 0,0 0,0"
         style="fill:#161616;fill-opacity:1;fill-rule:nonzero;stroke:none"
         id="path1122" />
    </g>
    <g
       id="g1124"
       transform="matrix(1.25,0,0,-1.25,239.67413,319.613)">
      <path
         inkscape:connector-curvature="0"
         d="m 0,0 c -0.026,-0.453 -0.414,-0.797 -0.865,-0.771 -0.45,0.025 -0.797,0.41 -0.771,0.862 0.025,0.451 0.412,0.798 0.863,0.773 C -0.323,0.838 0.025,0.451 0,0"
         style="fill:#f26f2f;fill-opacity:1;fill-rule:nonzero;stroke:none"
         id="path1126" />
    </g>
    <g
       id="g1128"
       transform="matrix(1.25,0,0,-1.25,235.4675,319.37925)">
      <path
         inkscape:connector-curvature="0"
         d="m 0,0 c -0.025,-0.452 -0.412,-0.795 -0.862,-0.771 -0.452,0.025 -0.798,0.411 -0.773,0.863 0.026,0.45 0.41,0.798 0.863,0.772 C -0.321,0.839 0.025,0.451 0,0"
         style="fill:#f26f2f;fill-opacity:1;fill-rule:nonzero;stroke:none"
         id="path1130" />
    </g>
    <g
       id="g1132"
       transform="matrix(1.25,0,0,-1.25,258.31237,311.51612)">
      <path
         inkscape:connector-curvature="0"
         d="m 0,0 c -3.897,-9.369 -17.553,-8.892 -17.553,-8.892 0,0 -13.626,1.045 -16.455,10.791 0,0 -10.341,-2.234 -14.88,-11.353 0,0 9.214,0.517 11.931,-7.883 0,0 10.392,0.825 12.354,-8.189 0,0 6.163,0.733 5.82,-5.409 0.343,6.142 6.383,4.729 6.383,4.729 2.952,8.739 13.189,6.762 13.189,6.762 3.636,8.045 12.734,6.505 12.734,6.505 C 10.027,-3.371 0,0 0,0"
         style="fill:#161616;fill-opacity:1;fill-rule:nonzero;stroke:none"
         id="path1134" />
    </g>
    <g
       id="g1136"
       transform="matrix(1.25,0,0,-1.25,243.18175,324.26025)">
      <path
         inkscape:connector-curvature="0"
         d="m 0,0 c 0,0 10.364,0.919 12.938,8.087 0,0 5.364,-2.168 10.032,-8.086 0,0 -4.787,4.815 -9.156,6.1 0,0 1.367,-5.7 -0.676,-10.958 0,0 0.86,6.418 -0.339,10.452 C 12.799,5.595 11.21,0.061 0,0"
         style="fill:#616160;fill-opacity:1;fill-rule:nonzero;stroke:none"
         id="path1138" />
    </g>
    <g
       id="g1140"
       transform="matrix(1.25,0,0,-1.25,229.42013,323.49175)">
      <path
         inkscape:connector-curvature="0"
         d="m 0,0 c 0,0 -10.197,2.068 -11.957,9.478 0,0 -5.574,-1.558 -10.871,-6.92 0,0 5.294,4.251 9.78,5.043 0,0 -1.995,-5.512 -0.549,-10.966 0,0 -0.141,6.473 1.502,10.35 0,0 0.961,-5.676 12.095,-6.985"
         style="fill:#616160;fill-opacity:1;fill-rule:nonzero;stroke:none"
         id="path1142" />
    </g>
    <g
       id="g1144"
       transform="matrix(1.25,0,0,-1.25,323.1665,283.89525)">
      <path
         inkscape:connector-curvature="0"
         d="M 0,0 -0.315,-93.529 35.496,-73.53 68.052,-96.478 68.373,-0.229 0,0 z"
         style="fill:#1c1b1d;fill-opacity:1;fill-rule:nonzero;stroke:none"
         id="path1146" />
    </g>
    <g
       id="g1148"
       transform="matrix(1.25,0,0,-1.25,362.55438,310.0085)">
      <path
         inkscape:connector-curvature="0"
         d="m 0,0 c -9.723,-0.544 -22.925,-5.701 -19.747,-28.014 3.177,-22.314 36.854,-22.42 44.638,-4.785 C 31.499,-17.823 24.678,1.379 0,0"
         style="fill:#f26f2f;fill-opacity:1;fill-rule:nonzero;stroke:none"
         id="path1150" />
    </g>
    <g
       id="g1152"
       transform="matrix(1.25,0,0,-1.25,356.31287,326.32013)">
      <path
         inkscape:connector-curvature="0"
         d="M 0,0 -0.069,0.129 -0.138,0 l -5.076,-9.588 5.054,-0.013 0.136,0 L 5.029,-9.613 0,0 z"
         style="fill:#1c1b1d;fill-opacity:1;fill-rule:nonzero;stroke:none"
         id="path1154" />
    </g>
    <g
       id="g1156"
       transform="matrix(1.25,0,0,-1.25,377.51162,326.37025)">
      <path
         inkscape:connector-curvature="0"
         d="M 0,0 -0.066,0.128 -0.135,0 -5.213,-9.589 -0.157,-9.601 -0.023,-9.602 5.032,-9.614 0,0 z"
         style="fill:#1c1b1d;fill-opacity:1;fill-rule:nonzero;stroke:none"
         id="path1158" />
    </g>
    <g
       id="g1160"
       transform="matrix(1.25,0,0,-1.25,343.74025,338.23787)">
      <path
         inkscape:connector-curvature="0"
         d="m 0,0 c 0,0 1.466,-3.978 10.909,-6.244 l 1.107,-4.473 2.134,3.784 c 0,0 4.459,-0.969 9.603,-0.118 l 1.874,-3.765 0.934,4.103 c 0,0 6.473,1.893 9.811,6.152 0,0 -1.945,-12.452 -11.582,-14.034 l -2.416,3.451 -0.659,-3.784 c 0,0 -3.107,-0.367 -6.643,0.016 l -0.407,3.786 -2.659,-3.394 c 0,0 -10.341,1.804 -12.006,14.52"
         style="fill:#1c1b1d;fill-opacity:1;fill-rule:nonzero;stroke:none"
         id="path1162" />
    </g>
    <g
       id="g1164"
       transform="matrix(1.25,0,0,-1.25,362.0075,313.93738)">
      <path
         inkscape:connector-curvature="0"
         d="m 0,0 c 0,0 -3.112,8.453 5.174,16.07 l 2.681,-1.475 c 0,0 -5.3,-5.935 -0.401,-14.539 C 7.944,-0.802 3.22,-4.707 0,0"
         style="fill:#46413d;fill-opacity:1;fill-rule:nonzero;stroke:none"
         id="path1166" />
    </g>
    <g
       id="g1168"
       transform="matrix(1.25,0,0,-1.25,370.93563,295.20262)">
      <path
         inkscape:connector-curvature="0"
         d="m 0,0 c -0.001,-0.001 -7.19,-4.403 -2.34,-17.137 1.689,0.421 2.913,1.747 2.652,2.205 -4.9,8.604 0.401,14.539 0.401,14.539 L 0,0 z"
         style="fill:#22211f;fill-opacity:1;fill-rule:nonzero;stroke:none"
         id="path1170" />
    </g>
    <g
       id="g1172"
       transform="matrix(1.25,0,0,-1.25,445.5865,283.20375)">
      <path
         inkscape:connector-curvature="0"
         d="M 0,0 4.523,-93.422 39.25,-71.598 72.949,-92.832 68.295,3.305 0,0 z"
         style="fill:#f26f2f;fill-opacity:1;fill-rule:nonzero;stroke:none"
         id="path1174" />
    </g>
    <g
       id="g1176"
       transform="matrix(1.25,0,0,-1.25,498.38687,318.96112)">
      <path
         inkscape:connector-curvature="0"
         d="m 0,0 c -2.114,0.776 -3.526,-1.525 -3.686,-1.8 -0.759,0.304 -1.594,0.459 -2.471,0.422 -0.831,-0.034 -1.616,-0.237 -2.319,-0.57 -0.295,0.406 -1.834,2.34 -3.785,1.435 0,0 -0.566,-1.94 1.362,-3.546 -0.604,-0.937 -0.932,-2.051 -0.883,-3.234 0.132,-3.135 2.861,-5.563 6.099,-5.428 3.238,0.136 5.755,2.783 5.623,5.917 -0.048,1.149 -0.446,2.2 -1.088,3.069 C 0.753,-1.95 0,0 0,0"
         style="fill:#161616;fill-opacity:1;fill-rule:nonzero;stroke:none"
         id="path1178" />
    </g>
    <g
       id="g1180"
       transform="matrix(1.25,0,0,-1.25,494.05338,323.97575)">
      <path
         inkscape:connector-curvature="0"
         d="m 0,0 c 0.018,-0.453 -0.333,-0.833 -0.785,-0.851 -0.45,-0.02 -0.833,0.33 -0.852,0.783 -0.019,0.45 0.332,0.834 0.784,0.853 C -0.402,0.803 -0.019,0.451 0,0"
         style="fill:#f26f2f;fill-opacity:1;fill-rule:nonzero;stroke:none"
         id="path1182" />
    </g>
    <g
       id="g1184"
       transform="matrix(1.25,0,0,-1.25,489.84437,324.15275)">
      <path
         inkscape:connector-curvature="0"
         d="m 0,0 c 0.018,-0.452 -0.333,-0.832 -0.782,-0.852 -0.453,-0.018 -0.835,0.332 -0.854,0.785 -0.018,0.45 0.33,0.833 0.783,0.852 C -0.4,0.804 -0.019,0.452 0,0"
         style="fill:#f26f2f;fill-opacity:1;fill-rule:nonzero;stroke:none"
         id="path1186" />
    </g>
    <g
       id="g1188"
       transform="matrix(1.25,0,0,-1.25,511.81463,314.1015)">
      <path
         inkscape:connector-curvature="0"
         d="m 0,0 c -2.965,-9.704 -16.604,-10.56 -16.604,-10.56 0,0 -13.662,-0.287 -17.427,9.137 0,0 -10.073,-3.23 -13.703,-12.749 0,0 9.119,1.413 12.642,-6.682 0,0 10.263,1.833 13.093,-6.947 0,0 6.062,1.329 6.318,-4.817 -0.256,6.146 5.893,5.328 5.893,5.328 2.087,8.986 12.468,8.015 12.468,8.015 2.835,8.361 12.039,7.714 12.039,7.714 C 10.309,-2.379 0,0 0,0"
         style="fill:#161616;fill-opacity:1;fill-rule:nonzero;stroke:none"
         id="path1190" />
    </g>
    <g
       id="g1192"
       transform="matrix(1.25,0,0,-1.25,497.99737,328.25925)">
      <path
         inkscape:connector-curvature="0"
         d="m 0,0 c 0,0 10.226,1.925 12.09,9.31 0,0 5.55,-1.636 10.771,-7.071 0,0 -5.234,4.325 -9.707,5.179 0,0 1.916,-5.54 0.396,-10.972 0,0 0.229,6.471 -1.357,10.369 C 12.193,6.815 11.15,1.153 0,0"
         style="fill:#616160;fill-opacity:1;fill-rule:nonzero;stroke:none"
         id="path1194" />
    </g>
    <g
       id="g1196"
       transform="matrix(1.25,0,0,-1.25,484.22662,328.83475)">
      <path
         inkscape:connector-curvature="0"
         d="m 0,0 c 0,0 -10.35,1.065 -12.823,8.268 0,0 -5.396,-2.093 -10.145,-7.946 0,0 4.855,4.747 9.243,5.972 0,0 -1.451,-5.68 0.52,-10.968 0,0 -0.772,6.429 0.487,10.447 0,0 1.51,-5.555 12.718,-5.773"
         style="fill:#616160;fill-opacity:1;fill-rule:nonzero;stroke:none"
         id="path1198" />
    </g>
    <g
       id="g1200"
       transform="matrix(1.25,0,0,-1.25,570.589,276.50512)">
      <path
         inkscape:connector-curvature="0"
         d="M 0,0 11.841,-92.777 44.748,-68.295 80.012,-86.818 67.823,8.657 0,0 z"
         style="fill:#1c1b1d;fill-opacity:1;fill-rule:nonzero;stroke:none"
         id="path1202" />
    </g>
    <g
       id="g1204"
       transform="matrix(1.25,0,0,-1.25,612.995,295.72987)">
      <path
         inkscape:connector-curvature="0"
         d="m 0,0 c -9.574,-1.78 -22.01,-8.582 -16.009,-30.307 6.001,-21.726 39.416,-17.53 44.884,0.954 C 33.517,-13.655 24.299,4.518 0,0"
         style="fill:#f26f2f;fill-opacity:1;fill-rule:nonzero;stroke:none"
         id="path1206" />
    </g>
    <g
       id="g1208"
       transform="matrix(1.25,0,0,-1.25,608.88738,312.70562)">
      <path
         inkscape:connector-curvature="0"
         d="m 0,0 -0.086,0.12 -0.051,-0.137 -3.809,-10.159 5.012,0.634 0.135,0.016 5.014,0.634 L 0,0 z"
         style="fill:#1c1b1d;fill-opacity:1;fill-rule:nonzero;stroke:none"
         id="path1210" />
    </g>
    <g
       id="g1212"
       transform="matrix(1.25,0,0,-1.25,629.91763,310.04875)">
      <path
         inkscape:connector-curvature="0"
         d="M 0,0 -0.082,0.12 -0.133,-0.017 -3.944,-10.176 1.071,-9.541 1.205,-9.525 6.22,-8.892 0,0 z"
         style="fill:#1c1b1d;fill-opacity:1;fill-rule:nonzero;stroke:none"
         id="path1214" />
    </g>
    <g
       id="g1216"
       transform="matrix(1.25,0,0,-1.25,597.94,326.13088)">
      <path
         inkscape:connector-curvature="0"
         d="m 0,0 c 0,0 1.962,-3.758 11.616,-4.8 l 1.67,-4.295 1.633,4.026 c 0,0 4.546,-0.393 9.54,1.108 l 2.339,-3.494 0.403,4.188 c 0,0 6.177,2.705 8.945,7.355 0,0 -0.339,-12.598 -9.696,-15.399 l -2.837,3.115 -0.169,-3.837 c 0,0 -3.035,-0.761 -6.591,-0.832 l -0.887,3.703 -2.204,-3.706 C 13.762,-12.868 3.274,-12.4 0,0"
         style="fill:#1c1b1d;fill-opacity:1;fill-rule:nonzero;stroke:none"
         id="path1218" />
    </g>
    <g
       id="g1220"
       transform="matrix(1.25,0,0,-1.25,612.95475,299.69725)">
      <path
         inkscape:connector-curvature="0"
         d="m 0,0 c 0,0 -4.167,7.987 3.079,16.6 l 2.848,-1.121 c 0,0 -4.499,-6.563 1.458,-14.472 C 7.98,0.219 3.794,-4.258 0,0"
         style="fill:#46413d;fill-opacity:1;fill-rule:nonzero;stroke:none"
         id="path1222" />
    </g>
    <g
       id="g1224"
       transform="matrix(1.25,0,0,-1.25,619.41587,279.9755)">
      <path
         inkscape:connector-curvature="0"
         d="m 0,0 c 0,-0.002 -6.569,-5.285 -0.132,-17.295 1.621,0.633 2.666,2.104 2.348,2.525 -5.957,7.909 -1.458,14.472 -1.458,14.472 L 0,0 z"
         style="fill:#22211f;fill-opacity:1;fill-rule:nonzero;stroke:none"
         id="path1226" />
    </g>
    <g
       id="g1228"
       transform="matrix(1.25,0,0,-1.25,694.54525,258.87875)">
      <path
         inkscape:connector-curvature="0"
         d="M 0,0 16.945,-91.983 48.448,-65.723 84.681,-82.272 67.244,12.385 0,0 z"
         style="fill:#f26f2f;fill-opacity:1;fill-rule:nonzero;stroke:none"
         id="path1230" />
    </g>
    <g
       id="g1232"
       transform="matrix(1.25,0,0,-1.25,750.28262,285.22275)">
      <path
         inkscape:connector-curvature="0"
         d="m 0,0 c -2.206,0.452 -3.259,-2.035 -3.375,-2.33 -0.796,0.187 -1.646,0.216 -2.507,0.049 -0.816,-0.158 -1.562,-0.476 -2.207,-0.91 -0.352,0.357 -2.163,2.04 -3.957,0.854 0,0 -0.27,-2.004 1.876,-3.303 -0.458,-1.017 -0.616,-2.168 -0.39,-3.331 0.598,-3.079 3.659,-5.072 6.841,-4.456 3.18,0.618 5.274,3.611 4.676,6.691 -0.219,1.129 -0.77,2.108 -1.535,2.871 C 1.036,-1.815 0,0 0,0"
         style="fill:#161616;fill-opacity:1;fill-rule:nonzero;stroke:none"
         id="path1234" />
    </g>
    <g
       id="g1236"
       transform="matrix(1.25,0,0,-1.25,746.74625,290.82825)">
      <path
         inkscape:connector-curvature="0"
         d="m 0,0 c 0.086,-0.445 -0.204,-0.873 -0.649,-0.958 -0.443,-0.087 -0.872,0.201 -0.958,0.646 -0.086,0.442 0.204,0.874 0.646,0.96 C -0.518,0.734 -0.085,0.443 0,0"
         style="fill:#f26f2f;fill-opacity:1;fill-rule:nonzero;stroke:none"
         id="path1238" />
    </g>
    <g
       id="g1240"
       transform="matrix(1.25,0,0,-1.25,742.61162,291.63138)">
      <path
         inkscape:connector-curvature="0"
         d="m 0,0 c 0.086,-0.444 -0.205,-0.872 -0.646,-0.959 -0.446,-0.086 -0.875,0.204 -0.961,0.648 -0.086,0.443 0.202,0.873 0.646,0.96 C -0.516,0.735 -0.087,0.443 0,0"
         style="fill:#f26f2f;fill-opacity:1;fill-rule:nonzero;stroke:none"
         id="path1242" />
    </g>
    <g
       id="g1244"
       transform="matrix(1.25,0,0,-1.25,762.83513,278.413)">
      <path
         inkscape:connector-curvature="0"
         d="m 0,0 c -1.483,-10.038 -14.841,-12.92 -14.841,-12.92 0,0 -13.466,-2.323 -18.597,6.433 0,0 -9.478,-4.698 -11.646,-14.653 0,0 8.807,2.759 13.499,-4.72 0,0 9.874,3.346 13.982,-4.914 0,0 5.795,2.22 6.968,-3.819 -1.173,6.039 5.031,6.148 5.031,6.148 0.722,9.196 11.131,9.786 11.131,9.786 1.555,8.691 10.751,9.425 10.751,9.425 C 10.549,-0.813 0,0 0,0"
         style="fill:#161616;fill-opacity:1;fill-rule:nonzero;stroke:none"
         id="path1246" />
    </g>
    <g
       id="g1248"
       transform="matrix(1.25,0,0,-1.25,751.286,294.475)">
      <path
         inkscape:connector-curvature="0"
         d="m 0,0 c 0,0 9.824,3.43 10.565,11.01 0,0 5.731,-0.788 11.706,-5.383 0,0 -5.821,3.495 -10.372,3.672 0,0 2.723,-5.192 2.03,-10.79 0,0 -0.739,6.432 -2.889,10.051 C 11.04,8.56 10.853,2.805 0,0"
         style="fill:#616160;fill-opacity:1;fill-rule:nonzero;stroke:none"
         id="path1250" />
    </g>
    <g
       id="g1252"
       transform="matrix(1.25,0,0,-1.25,737.75575,297.09963)">
      <path
         inkscape:connector-curvature="0"
         d="m 0,0 c 0,0 -10.393,-0.492 -13.913,6.261 0,0 -5.024,-2.875 -8.845,-9.372 0,0 4.09,5.42 8.246,7.285 0,0 -0.586,-5.833 2.153,-10.767 0,0 -1.723,6.242 -1.079,10.403 0,0 2.324,-5.268 13.438,-3.81"
         style="fill:#616160;fill-opacity:1;fill-rule:nonzero;stroke:none"
         id="path1254" />
    </g>
  </g>
</svg>
