<?xml version="1.0" encoding="UTF-8" standalone="no"?>
<!-- Created with Inkscape (http://www.inkscape.org/) -->

<svg
   xmlns:dc="http://purl.org/dc/elements/1.1/"
   xmlns:cc="http://creativecommons.org/ns#"
   xmlns:rdf="http://www.w3.org/1999/02/22-rdf-syntax-ns#"
   xmlns:svg="http://www.w3.org/2000/svg"
   xmlns="http://www.w3.org/2000/svg"
   xmlns:sodipodi="http://sodipodi.sourceforge.net/DTD/sodipodi-0.dtd"
   xmlns:inkscape="http://www.inkscape.org/namespaces/inkscape"
   width="162.5625"
   height="284.22803"
   id="svg4557"
   version="1.1"
   inkscape:version="0.48.4 r9939"
   sodipodi:docname="New document 6">
  <defs
     id="defs4559" />
  <sodipodi:namedview
     id="base"
     pagecolor="#ffffff"
     bordercolor="#666666"
     borderopacity="1.0"
     inkscape:pageopacity="0.0"
     inkscape:pageshadow="2"
     inkscape:zoom="0.98994949"
     inkscape:cx="-335.02599"
     inkscape:cy="15.31134"
     inkscape:document-units="px"
     inkscape:current-layer="layer1"
     showgrid="false"
     fit-margin-top="0"
     fit-margin-left="0"
     fit-margin-right="0"
     fit-margin-bottom="0"
     inkscape:window-width="1920"
     inkscape:window-height="1056"
     inkscape:window-x="0"
     inkscape:window-y="24"
     inkscape:window-maximized="1" />
  <metadata
     id="metadata4562">
    <rdf:RDF>
      <cc:Work
         rdf:about="">
        <dc:format>image/svg+xml</dc:format>
        <dc:type
           rdf:resource="http://purl.org/dc/dcmitype/StillImage" />
        <dc:title></dc:title>
      </cc:Work>
    </rdf:RDF>
  </metadata>
  <g
     inkscape:label="Layer 1"
     inkscape:groupmode="layer"
     id="layer1"
     transform="translate(-293.71875,-390.23483)">
    <g
       id="g362"
       transform="matrix(1.25,0,0,-1.25,372.91671,392.13653)">
      <path
         inkscape:connector-curvature="0"
         d="m 0,0 0,-115.118 0,-62.401"
         style="fill:none;stroke:#263238;stroke-width:3;stroke-linecap:round;stroke-linejoin:round;stroke-miterlimit:10;stroke-opacity:1;stroke-dasharray:none"
         id="path364" />
    </g>
    <g
       id="g540"
       transform="matrix(1.25,0,0,-1.25,398.97648,622.97121)">
      <path
         inkscape:connector-curvature="0"
         d="m 0,0 c 0,-5.738 -4.652,-10.39 -10.39,-10.39 -5.738,0 -10.39,4.652 -10.39,10.39 0,5.738 4.652,10.39 10.39,10.39 C -4.652,10.39 0,5.738 0,0"
         style="fill:#e6e7e8;fill-opacity:1;fill-rule:nonzero;stroke:none"
         id="path542" />
    </g>
    <g
       id="g544"
       transform="matrix(1.25,0,0,-1.25,372.28787,627.34521)">
      <path
         inkscape:connector-curvature="0"
         d="m 0,0 c 0,-5.738 -4.652,-10.39 -10.39,-10.39 -5.738,0 -10.39,4.652 -10.39,10.39 0,5.738 4.652,10.39 10.39,10.39 C -4.652,10.39 0,5.738 0,0"
         style="fill:#e6e7e8;fill-opacity:1;fill-rule:nonzero;stroke:none"
         id="path546" />
    </g>
    <g
       id="g548"
       transform="matrix(1.25,0,0,-1.25,385.8725,634.32784)">
      <path
         inkscape:connector-curvature="0"
         d="m 0,0 c -4.33,0 -7.841,3.51 -7.841,7.841 0,4.33 3.511,7.84 7.841,7.84 4.33,0 7.841,-3.51 7.841,-7.84 C 7.841,3.51 4.33,0 0,0 m -18.67,-2.901 c -3.909,0 -7.078,3.169 -7.078,7.078 0,3.909 3.169,7.079 7.078,7.079 3.91,0 7.079,-3.17 7.079,-7.079 0,-3.909 -3.169,-7.078 -7.079,-7.078 M 42.396,6.01 55.483,-9.154 56.327,-8.5 43.905,9.361 26.502,17.752 26.272,17.643 c -3.17,-1.49 -8.519,-4.002 -13.676,-6.418 -0.526,1.458 -1.19,2.848 -1.981,4.154 l 9.854,11.981 17.524,-1.508 16.757,-10.974 0.631,0.861 -16.86,13.75 -19.04,3.275 -0.192,-0.168 C 16.243,29.932 10.774,25.155 5.926,20.932 c -4.089,3.548 -9.422,5.699 -15.26,5.699 -5.534,0 -10.615,-1.932 -14.612,-5.155 -4.687,4.084 -9.823,8.57 -12.74,11.12 l -0.191,0.168 -18.902,-3.251 -0.139,-0.024 -16.859,-13.75 0.631,-0.861 16.756,10.974 17.524,1.508 9.138,-11.11 c -0.938,-1.406 -1.724,-2.921 -2.343,-4.519 -4.812,2.254 -9.648,4.526 -12.597,5.912 l -0.231,0.109 -17.276,-8.33 -0.126,-0.061 -12.422,-17.861 0.844,-0.654 13.087,15.164 16.431,6.275 10.777,-7.43 c -0.033,-0.506 -0.055,-1.014 -0.055,-1.529 0,-1.175 0.089,-2.329 0.257,-3.457 -3.336,0.589 -6.375,1.128 -8.508,1.507 l -0.25,0.045 -14.615,-12.636 -7.337,-20.481 0.985,-0.412 8.683,18.05 14.227,10.341 8.9,-3.147 c 3.781,-7.764 11.746,-13.115 20.963,-13.115 8.997,0 16.797,5.101 20.681,12.566 l 10.453,3.696 14.228,-10.341 8.683,-18.05 0.985,0.412 -7.337,20.481 L 23.744,1.421 23.493,1.376 c -2.408,-0.428 -5.973,-1.06 -9.815,-1.739 0.191,1.202 0.293,2.434 0.293,3.689 0,0.228 -0.011,0.453 -0.017,0.679 l 12.011,8.28 16.431,-6.275 z"
         style="fill:#263238;fill-opacity:1;fill-rule:nonzero;stroke:none"
         id="path550" />
    </g>
    <g
       id="g552"
       transform="matrix(1.25,0,0,-1.25,389.64837,628.09109)">
      <path
         inkscape:connector-curvature="0"
         d="m 0,0 c 0,-1.668 -1.352,-3.021 -3.021,-3.021 -1.668,0 -3.02,1.353 -3.02,3.021 0,1.668 1.352,3.021 3.02,3.021 C -1.352,3.021 0,1.668 0,0"
         style="fill:#263238;fill-opacity:1;fill-rule:nonzero;stroke:none"
         id="path554" />
    </g>
    <g
       id="g556"
       transform="matrix(1.25,0,0,-1.25,368.99887,629.10634)">
      <path
         inkscape:connector-curvature="0"
         d="m 0,0 c 0,-1.668 -1.352,-3.021 -3.021,-3.021 -1.668,0 -3.02,1.353 -3.02,3.021 0,1.668 1.352,3.021 3.02,3.021 C -1.352,3.021 0,1.668 0,0"
         style="fill:#263238;fill-opacity:1;fill-rule:nonzero;stroke:none"
         id="path558" />
    </g>
  </g>
</svg>
