<?xml version="1.0" encoding="UTF-8" standalone="no"?>
<!-- Created with Inkscape (http://www.inkscape.org/) -->

<svg
   xmlns:dc="http://purl.org/dc/elements/1.1/"
   xmlns:cc="http://creativecommons.org/ns#"
   xmlns:rdf="http://www.w3.org/1999/02/22-rdf-syntax-ns#"
   xmlns:svg="http://www.w3.org/2000/svg"
   xmlns="http://www.w3.org/2000/svg"
   xmlns:sodipodi="http://sodipodi.sourceforge.net/DTD/sodipodi-0.dtd"
   xmlns:inkscape="http://www.inkscape.org/namespaces/inkscape"
   width="256.11047"
   height="289.81671"
   id="svg3219"
   version="1.1"
   inkscape:version="0.48.4 r9939"
   sodipodi:docname="New document 3">
  <defs
     id="defs3221" />
  <sodipodi:namedview
     id="base"
     pagecolor="#ffffff"
     bordercolor="#666666"
     borderopacity="1.0"
     inkscape:pageopacity="0.0"
     inkscape:pageshadow="2"
     inkscape:zoom="0.35"
     inkscape:cx="171.62666"
     inkscape:cy="227.76551"
     inkscape:document-units="px"
     inkscape:current-layer="layer1"
     showgrid="false"
     fit-margin-top="0"
     fit-margin-left="0"
     fit-margin-right="0"
     fit-margin-bottom="0"
     inkscape:window-width="472"
     inkscape:window-height="383"
     inkscape:window-x="960"
     inkscape:window-y="24"
     inkscape:window-maximized="0" />
  <metadata
     id="metadata3224">
    <rdf:RDF>
      <cc:Work
         rdf:about="">
        <dc:format>image/svg+xml</dc:format>
        <dc:type
           rdf:resource="http://purl.org/dc/dcmitype/StillImage" />
        <dc:title></dc:title>
      </cc:Work>
    </rdf:RDF>
  </metadata>
  <g
     inkscape:label="Layer 1"
     inkscape:groupmode="layer"
     id="layer1"
     transform="translate(-203.37334,-470.31097)">
    <g
       id="g176"
       transform="matrix(1.25,0,0,-1.25,417.9864,754.08926)">
      <path
         inkscape:connector-curvature="0"
         d="M 0,0 C -21.248,14.421 -19.615,37.166 -16.422,59.659 -8.871,63.068 -1.34,66.51 6.163,70.002 0.995,57.639 7.048,41.292 10.895,29.502 14.927,17.146 20.528,5.328 30.752,-3.02 20.698,-1.488 10.507,-0.663 0.256,-0.254 0.187,-0.163 0.11,-0.074 0,0 m -44.154,-0.152 c -12.824,8.949 -16.681,29.608 -9.477,43.374 11.755,5.079 23.467,10.247 35.132,15.498 -6.424,-19.913 -3.685,-46.745 14.86,-58.838 -13.482,0.406 -27.047,0.173 -40.515,-0.034 M -57.256,-0.32 c 0.308,0.45 0.323,1.127 -0.261,1.385 -12.898,5.71 -14.346,23.721 -10.692,35.891 3.806,1.619 7.601,3.263 11.399,4.899 -5.843,-13.738 -2.274,-32.903 9.537,-42.053 -3.335,-0.049 -6.664,-0.094 -9.983,-0.122 m -8.193,-0.036 c -9.473,0.013 -18.95,0.046 -28.426,0.076 -5.302,5.621 -11.223,15.752 -6.824,23.341 0.064,0.111 0.088,0.218 0.11,0.325 10.004,4.126 19.989,8.306 29.952,12.535 -4.459,-12.308 -0.928,-30.947 11.512,-36.258 -2.112,-0.014 -4.221,-0.022 -6.324,-0.019 m -47.901,0.129 c -0.043,0.198 -0.145,0.382 -0.325,0.493 -2.756,1.696 -5.256,3.142 -6.524,6.313 -1.238,3.096 -0.742,6.164 0.595,9.02 5.428,2.203 10.853,4.42 16.273,6.651 -3.024,-7.552 1.587,-16.888 7.077,-22.523 -5.699,0.018 -11.397,0.034 -17.096,0.046 m -15.293,0.029 c -2.232,3.108 -4.848,6.733 -3.682,10.648 3.447,1.386 6.89,2.787 10.335,4.183 -2.222,-5.267 -0.382,-12.265 4.736,-14.853 -3.796,0.006 -7.593,0.025 -11.389,0.022 m -13.026,-0.027 c -0.349,0.387 -0.7,0.452 -1.234,0.652 -0.747,0.281 -1.395,0.729 -1.937,1.314 -0.775,0.838 -1.296,1.952 -1.479,3.102 3.919,1.559 7.835,3.137 11.751,4.709 -0.438,-3.582 1.571,-6.918 3.961,-9.755 -3.688,-0.005 -7.375,-0.003 -11.062,-0.022 m -17.749,-0.136 c 3.875,1.528 7.747,3.076 11.62,4.616 0.11,-1.146 0.553,-2.248 1.307,-3.214 0.283,-0.362 0.759,-0.847 1.31,-1.293 -4.746,-0.03 -9.492,-0.047 -14.237,-0.109 m -4.113,-0.038 c -0.057,-0.001 -0.116,-0.001 -0.173,-0.001 2.881,3.83 5.734,7.68 8.608,11.516 0.395,-1.595 1.246,-2.976 2.619,-3.997 0.708,-0.527 1.676,-1.052 2.678,-1.33 -4.439,-1.89 -8.868,-3.802 -13.311,-5.684 -0.243,-0.103 -0.372,-0.29 -0.421,-0.504 m 1.911,14.974 c 0.957,-1.488 2.49,-2.774 4.156,-3.17 -2.704,-3.691 -5.43,-7.366 -8.128,-11.062 1.353,4.735 2.673,9.481 3.972,14.232 m -5.34,0.471 c 0.87,-0.414 1.902,-0.633 2.884,-0.566 -0.952,-4.129 -1.886,-8.261 -2.783,-12.4 -0.027,4.322 -0.071,8.644 -0.101,12.966 m -0.162,19.732 c 1.682,-1.609 5.1,-2.022 7.627,-1.214 -1.434,-5.786 -2.844,-11.577 -4.192,-17.378 -0.259,-0.101 -0.528,-0.183 -0.831,-0.211 -0.886,-0.078 -1.761,0.176 -2.455,0.729 -0.043,6.025 -0.101,12.049 -0.149,18.074 m -0.107,12.213 c 1.228,-1.539 2.764,-2.709 4.641,-3.414 1.517,-0.569 3.805,-1.079 5.504,-0.522 -0.599,-2.351 -1.217,-4.698 -1.805,-7.05 -1.048,-0.358 -2.057,-0.743 -3.308,-0.673 -0.891,0.05 -1.838,0.262 -2.652,0.631 -0.771,0.35 -1.314,0.887 -2.152,1.055 -0.046,0.009 -0.092,-0.008 -0.14,-0.006 -0.026,3.326 -0.06,6.653 -0.088,9.979 m -0.24,26.304 c 2.582,-6.909 10.188,-9.477 16.508,-6.795 -1.918,-7.223 -3.822,-14.451 -5.674,-21.69 -1.637,0.221 -3.243,-0.193 -4.927,0.258 -2.004,0.536 -3.689,1.703 -5.052,3.25 -0.175,0.199 -0.413,0.228 -0.628,0.16 -0.07,8.272 -0.148,16.544 -0.227,24.817 m -0.015,1.569 c -0.075,7.868 -0.169,15.737 -0.257,23.605 4.293,-7.181 14.359,-13.078 22.657,-10.045 -1.798,-6.674 -3.595,-13.353 -5.374,-20.038 -6.209,-2.569 -12.508,0.208 -15.681,6.293 -0.286,0.549 -0.956,0.518 -1.345,0.185 m -0.418,38.454 c -0.024,1.881 -0.037,3.766 -0.057,5.649 2.017,-3.988 7.448,-6.189 11.615,-7.22 6.047,-1.498 12.574,-1.014 18.034,1.917 -0.281,-1.056 -0.559,-2.114 -0.842,-3.169 -1.787,-6.681 -3.59,-13.367 -5.391,-20.056 -4.129,-0.223 -7.73,-0.703 -11.796,0.763 -4.676,1.685 -8.431,5.036 -10.847,9.346 -0.145,0.26 -0.363,0.357 -0.581,0.359 -0.047,4.137 -0.083,8.274 -0.135,12.411 m -0.103,10.216 c -0.083,9.273 -0.133,18.559 -0.199,27.849 3.647,-4.891 11.932,-7.44 17.078,-8.246 7.877,-1.234 16.041,-0.085 21.984,5.182 -2.878,-10.85 -5.724,-21.703 -8.602,-32.525 -4.035,-1.499 -8.057,-2.585 -12.475,-2.42 -5.853,0.218 -15.557,2.538 -16.596,9.514 -0.096,0.645 -0.684,0.806 -1.19,0.646 m -0.223,30.869 c 0.378,-0.107 0.677,0.439 0.402,0.762 -0.179,0.21 -0.295,0.324 -0.412,0.403 -0.109,13.963 -0.283,27.93 -0.692,41.874 13.743,-11.606 33.402,-13.136 50.574,-9.648 -3.397,-11.933 -6.649,-23.917 -9.84,-35.913 -0.126,-0.048 -0.249,-0.126 -0.361,-0.253 -4.945,-5.572 -12.042,-7.172 -19.248,-6.681 -3.289,0.225 -6.605,0.848 -9.704,1.999 -4.642,1.725 -6.902,4.681 -10.719,7.417 0,0.013 0,0.027 0,0.04 m 52.874,32.04 c 11.217,-21.108 34.076,-45.292 59.803,-36.629 -7.251,-9.419 -14.332,-18.994 -21.336,-28.63 -22.144,-4.846 -38.603,11.293 -48.548,29.548 3.381,11.899 6.774,23.795 10.081,35.711 m 21.912,-92.606 c 6.124,8.099 12.299,16.179 18.433,24.291 2.867,-29.057 26.01,-52.26 54.648,-56.571 -11.405,-4.904 -22.807,-9.819 -34.205,-14.742 -22.621,5.926 -38.848,22.898 -38.876,47.022 m -14.022,-18.916 c -0.004,0.052 -0.026,0.089 -0.037,0.136 1.217,1.638 2.438,3.273 3.654,4.913 2.763,3.727 5.552,7.443 8.352,11.155 1.118,-21.793 16.412,-41.888 38.575,-45.325 -4.047,-1.748 -8.095,-3.492 -12.142,-5.241 -20.593,0.188 -36.771,13.001 -38.402,34.362 m -16.441,-21.92 c 4.964,6.67 9.926,13.341 14.886,20.015 1.372,-18.572 16.669,-34.091 35.199,-34.511 -8.873,-3.834 -17.746,-7.669 -26.622,-11.497 -11.032,4.177 -22.348,13.676 -23.463,25.993 m -12.539,-17.428 c 0.011,0.178 -0.037,0.312 -0.106,0.427 3.56,4.775 7.108,9.561 10.665,14.338 1.087,-10.977 12.728,-21.015 22.919,-24.417 -5.508,-2.375 -11.015,-4.753 -16.525,-7.122 -8.262,1.492 -17.553,7.287 -16.953,16.774 m -3.31,-15.402 c -1.736,2.288 -2.535,4.667 -3.183,7.241 1.619,2.169 3.229,4.344 4.846,6.515 0.073,-8.161 7.656,-14.639 15.446,-16.485 -2.851,-1.225 -5.699,-2.457 -8.552,-3.679 -0.034,0.021 -0.056,0.05 -0.097,0.067 -3.348,1.43 -6.24,3.416 -8.46,6.341 m -5.057,4.728 c 1.625,-5.401 6.421,-10.144 11.536,-12.027 -4.513,-1.934 -9.02,-3.88 -13.536,-5.806 -0.093,0.029 -0.189,0.028 -0.284,0.009 -1.507,0.495 -2.865,0.36 -4.252,1.354 -1.323,0.949 -2.276,2.29 -2.672,3.87 -0.015,0.061 -0.047,0.107 -0.076,0.156 3.102,4.143 6.188,8.297 9.284,12.444 m -0.577,3.649 c 0.006,-0.233 0.012,-0.466 0.028,-0.698 -3.637,-4.943 -7.285,-9.878 -10.915,-14.827 -0.797,0.109 -1.573,0.256 -2.335,0.679 -1.085,0.602 -1.975,1.551 -2.528,2.662 1.493,5.487 2.949,10.985 4.393,16.487 1.845,-3.85 7.233,-5.138 11.357,-4.303 m 4.581,5.473 c -0.867,-1.177 -1.74,-2.351 -2.607,-3.528 -0.122,0.046 -0.256,0.068 -0.403,0.027 -0.026,-0.007 -0.051,-0.008 -0.076,-0.015 -0.387,0.284 -0.977,0.152 -1.278,-0.258 -1.808,-0.283 -3.609,-0.144 -5.37,0.515 -2.276,0.85 -3.574,2.502 -5.353,4.02 -0.094,0.08 -0.197,0.126 -0.303,0.158 0.57,2.181 1.125,4.365 1.69,6.547 3.141,-4.418 8.268,-7.491 13.7,-7.466 m 13.584,18.393 c -3.977,-5.39 -7.966,-10.772 -11.939,-16.165 -5.933,0.059 -11.416,2.181 -14.869,7.079 1.902,7.363 3.783,14.733 5.664,22.103 3.423,-7.984 12.461,-13.798 21.144,-13.017 m 16.143,21.856 c -4.969,-6.725 -9.937,-13.45 -14.903,-20.177 -9.872,0.54 -17.415,5.238 -21.582,14.481 1.678,6.573 3.359,13.144 5.058,19.709 7.324,-9.892 19.173,-15.327 31.427,-14.013 m -24.222,41.196 c 3.008,11.048 6.121,22.074 9.251,33.097 9.021,-17.604 26.634,-34.19 47.3,-29.951 -5.623,-7.755 -11.217,-15.53 -16.84,-23.265 -17.861,-4.859 -31.985,3.601 -39.545,19.897 -0.044,0.095 -0.101,0.167 -0.166,0.222 m 38.091,-22.352 c -2.599,-3.567 -5.206,-7.125 -7.828,-10.665 -1.452,-1.959 -2.897,-3.924 -4.346,-5.884 -12.775,-1.506 -24.945,3.382 -32.546,13.93 1.676,6.462 3.367,12.918 5.098,19.361 0.285,1.059 0.58,2.116 0.866,3.174 4.62,-16.292 23.081,-24.517 38.756,-19.916 m 44.225,54.883 c 6.961,-30.564 25.219,-66.064 56.668,-76.13 -6.656,-2.847 -13.309,-5.701 -19.961,-8.559 -30.775,3.691 -52.892,26.448 -57.274,56.749 6.973,9.239 13.864,18.534 20.567,27.94 M 32.821,-1.91 C 22.56,6.287 17.138,17.893 13.157,30.125 11.3,35.832 9.531,41.682 8.243,47.547 6.428,55.813 7.303,62.618 7.641,70.686 c 0.106,0.049 0.211,0.097 0.316,0.146 1.548,0.723 0.229,2.888 -1.288,2.304 -15.719,6.99 -28.448,16.408 -38.352,30.827 -9.581,13.947 -15.018,29.737 -20.116,45.692 2.927,4.128 5.825,8.273 8.658,12.456 0.683,1.008 -0.927,2.282 -1.708,1.317 -2.728,-3.373 -5.415,-6.784 -8.083,-10.213 -0.022,0.069 -0.044,0.138 -0.065,0.206 -0.218,0.687 -1.202,0.402 -1.07,-0.294 0.039,-0.207 0.085,-0.417 0.126,-0.623 -28.669,-6.347 -47.609,13.262 -60.811,36.139 2.924,10.572 5.783,21.159 8.482,31.78 0.349,1.371 -1.682,1.921 -2.11,0.582 -3.275,-10.25 -6.347,-20.58 -9.317,-30.948 -18.474,-2.109 -35.573,-2.09 -51.287,9.324 -0.279,9.025 -0.661,18.04 -1.199,27.036 -0.048,0.801 -1.237,0.814 -1.255,0 -0.866,-37.637 0.739,-75.452 1.173,-113.099 0.435,-37.702 0.745,-75.405 0.94,-113.108 0.004,-0.712 0.503,-1.088 1.05,-1.166 -0.276,-0.561 -0.016,-1.39 0.806,-1.407 33.477,-0.684 66.99,-0.328 100.474,-0.37 32.595,-0.042 65.819,1.811 98.236,-2.092 0.625,-0.075 0.935,0.6 0.817,1.126 0.88,0.056 1.613,1.11 0.763,1.789"
         style="fill:#1d1d1b;fill-opacity:1;fill-rule:nonzero;stroke:none"
         id="path178" />
    </g>
  </g>
</svg>
