<?xml version="1.0" encoding="UTF-8" standalone="no"?>
<!-- Created with Inkscape (http://www.inkscape.org/) -->

<svg
   xmlns:dc="http://purl.org/dc/elements/1.1/"
   xmlns:cc="http://creativecommons.org/ns#"
   xmlns:rdf="http://www.w3.org/1999/02/22-rdf-syntax-ns#"
   xmlns:svg="http://www.w3.org/2000/svg"
   xmlns="http://www.w3.org/2000/svg"
   xmlns:sodipodi="http://sodipodi.sourceforge.net/DTD/sodipodi-0.dtd"
   xmlns:inkscape="http://www.inkscape.org/namespaces/inkscape"
   width="287.33047"
   height="284.32022"
   id="svg3219"
   version="1.1"
   inkscape:version="0.48.4 r9939"
   sodipodi:docname="spider-web-left-corner.svg">
  <defs
     id="defs3221" />
  <sodipodi:namedview
     id="base"
     pagecolor="#ffffff"
     bordercolor="#666666"
     borderopacity="1.0"
     inkscape:pageopacity="0.0"
     inkscape:pageshadow="2"
     inkscape:zoom="0.35"
     inkscape:cx="81.006194"
     inkscape:cy="69.925606"
     inkscape:document-units="px"
     inkscape:current-layer="layer1"
     showgrid="false"
     fit-margin-top="0"
     fit-margin-left="0"
     fit-margin-right="0"
     fit-margin-bottom="0"
     inkscape:window-width="472"
     inkscape:window-height="383"
     inkscape:window-x="960"
     inkscape:window-y="24"
     inkscape:window-maximized="0" />
  <metadata
     id="metadata3224">
    <rdf:RDF>
      <cc:Work
         rdf:about="">
        <dc:format>image/svg+xml</dc:format>
        <dc:type
           rdf:resource="http://purl.org/dc/dcmitype/StillImage" />
        <dc:title></dc:title>
      </cc:Work>
    </rdf:RDF>
  </metadata>
  <g
     inkscape:label="Layer 1"
     inkscape:groupmode="layer"
     id="layer1"
     transform="translate(-293.99381,-317.96758)">
    <g
       id="g152"
       transform="matrix(1.25,0,0,-1.25,352.23834,525.80655)">
      <path
         inkscape:connector-curvature="0"
         d="m 0,0 21.4,-7.122 c 0.003,-0.025 -0.005,-0.046 0,-0.073 1.791,-9.201 2.062,-18.464 -1.191,-27.384 -1.255,-3.443 -2.996,-6.732 -5.062,-9.757 -2.375,-3.475 -8.311,-7.565 -9.747,-11.589 -0.008,0 -0.016,10e-4 -0.023,10e-4 0.336,1.257 -1.402,1.721 -2.104,0.792 -0.151,-0.199 -0.302,-0.398 -0.452,-0.597 -0.037,-0.049 -0.052,-0.107 -0.076,-0.16 -4.613,0.06 -9.225,0.122 -13.838,0.183 C 3.379,-41.116 8.414,-19.058 0,0 M 50.901,55.834 C 55.179,51.405 59.574,47.07 64.055,42.828 64.033,42.767 64.004,42.711 63.995,42.64 61.016,19.284 46.128,0.881 22.865,-4.547 L 1.036,2.72 c 25.175,6.04 46.889,26.849 49.865,53.114 m 2.088,3.302 c 21.084,-1.022 41.652,11.488 50.657,30.459 1.698,-3.243 3.394,-6.488 5.091,-9.731 -7.282,-18.895 -19.062,-36.641 -41.841,-34.208 -0.237,0.026 -0.422,-0.042 -0.577,-0.145 -4.513,4.477 -8.953,9.018 -13.33,13.625 m 124.199,50.488 c -0.182,-4.147 -0.365,-8.295 -0.519,-12.447 -3.001,-2.162 -5.343,-5.068 -8.268,-7.393 -5.036,-4.004 -10.726,-6.761 -16.887,-8.608 -13.117,-3.933 -26.651,-2.287 -39.919,-0.268 -1.722,3.332 -3.459,6.656 -5.202,9.976 24.271,-6.507 56.162,-4.287 70.795,18.74 M 175.784,67.01 c -0.152,-0.026 -0.3,-0.088 -0.421,-0.233 -12.525,-14.913 -31.842,-20.558 -50.032,-12.875 -4.101,8.203 -8.261,16.381 -12.46,24.54 22.521,-5.024 48.767,-2.953 63.704,16.186 -0.327,-9.2 -0.593,-18.407 -0.791,-27.618 m -0.461,-32.73 c -0.155,-0.057 -0.304,-0.155 -0.419,-0.339 -6.556,-10.457 -25.733,-13.482 -35.508,-6.352 -0.337,0.246 -0.697,0.228 -1.015,0.083 -0.841,1.689 -1.698,3.385 -2.532,5.07 -2.991,6.043 -5.993,12.089 -9.008,18.132 17.845,-6.633 37.186,-1.884 48.9,13.664 -0.205,-10.084 -0.345,-20.172 -0.418,-30.258 M 175.25,19.975 c -7.789,-8.952 -19.443,-11.494 -29.945,-4.577 -0.309,0.203 -0.61,0.234 -0.87,0.156 -1.443,2.877 -2.864,5.737 -4.299,8.607 10.417,-6.129 28.487,-2.947 35.173,7.25 -0.023,-3.812 -0.052,-7.625 -0.059,-11.436 m 0.077,-28.696 c -5.294,-3.72 -11.958,-4.645 -17.907,-1.924 -3.695,7.633 -7.481,15.221 -11.269,22.777 9.746,-5.501 22.04,-3.808 29.089,4.797 -0.004,-8.555 0.018,-17.106 0.087,-25.65 m 0.293,-25.115 c -1.14,-1.137 -2.554,-1.866 -4.204,-1.998 -0.958,-0.076 -1.741,0.163 -2.509,0.446 -0.03,0.076 -0.062,0.149 -0.11,0.207 -3.142,7.168 -6.458,14.282 -9.854,21.362 5.639,-1.643 11.654,-0.709 16.405,2.873 0.067,-7.636 0.157,-15.268 0.272,-22.89 m 0.313,-18.439 c -1.844,4.724 -3.811,9.416 -5.826,14.095 0.581,-0.029 1.139,-0.006 1.619,0.058 1.476,0.193 2.797,0.761 3.933,1.603 0.083,-5.256 0.172,-10.509 0.274,-15.756 m -0.309,-3.727 c -4.706,1.781 -9.433,3.514 -14.17,5.219 0.541,0.538 1.001,1.122 1.305,1.657 0.593,1.046 0.912,2.237 0.929,3.425 3.663,-2.938 7.353,-5.834 11.086,-8.666 0.286,-0.543 0.567,-1.09 0.85,-1.635 m -35.845,9.258 c 5.622,-1.828 11.251,-3.634 16.893,-5.385 0.109,-0.113 0.233,-0.218 0.404,-0.279 0.18,-0.065 0.363,-0.097 0.546,-0.117 1.285,-1.635 1.359,-3.385 0.894,-5.215 -5.793,0.201 -11.593,0.335 -17.396,0.444 1.653,3.072 0.56,7.416 -1.341,10.552 m -28.667,9.551 c 8.624,-2.921 17.255,-5.826 25.908,-8.656 1.407,-1.851 2.218,-4.038 2.292,-6.384 0.056,-1.781 -0.59,-3.343 -0.875,-5.013 -9.961,0.167 -19.93,0.222 -29.896,0.26 5.133,4.476 4.809,13.318 2.571,19.793 m -16.696,5.667 c 4.678,-1.589 9.355,-3.18 14.036,-4.767 2.803,-8.003 2.228,-15.199 -4.613,-20.671 -5.757,0.019 -11.512,0.037 -17.264,0.064 8.676,3.945 9.507,16.77 7.841,25.374 m -35.571,11.943 c 3.672,-1.222 7.344,-2.444 11.016,-3.666 7.412,-2.467 14.82,-4.972 22.228,-7.487 1.397,-10.563 0.475,-20.2 -10.133,-25.027 -0.55,-0.25 -0.693,-0.681 -0.603,-1.099 -5.109,0.032 -10.218,0.066 -15.318,0.135 -5.968,0.08 -11.937,0.157 -17.905,0.237 12.544,7.016 16.074,23.624 10.715,36.907 m -2.266,0.754 c -0.005,-0.098 -0.003,-0.198 0.031,-0.304 4.874,-15.255 1.033,-30.807 -14.759,-37.204 -0.043,-0.017 -0.068,-0.048 -0.108,-0.069 -11.283,0.151 -22.567,0.299 -33.851,0.448 14.279,11.566 21.04,30.255 15.421,48.2 11.088,-3.69 22.177,-7.381 33.266,-11.071 M 84.552,24.1 C 84.457,15.592 82.503,7.486 77.943,0.187 c -2.091,-3.348 -4.65,-6.454 -7.571,-9.113 -0.625,-0.57 -10.331,-8.511 -11.608,-7.417 -0.383,0.328 -0.816,0.378 -1.176,0.237 L 27.415,-6.062 c 21.36,6.373 37.187,24.758 38.077,47.542 6.291,-5.914 12.7,-11.685 19.06,-17.38 M 111.65,5.154 c -0.53,0.058 -0.889,-0.27 -1.056,-0.695 -4.618,4.051 -9.215,8.121 -13.764,12.235 -2.644,2.392 -5.259,4.792 -7.867,7.194 15.124,-3.1 32.253,13.299 34.394,27.785 3.183,-6.215 6.362,-12.433 9.472,-18.688 0.945,-1.9 1.87,-3.815 2.799,-5.727 C 131.315,18.261 123.089,3.888 111.65,5.154 m 11.029,-10.845 c -0.109,-0.032 -0.183,-0.092 -0.271,-0.142 -3.251,2.814 -6.487,5.641 -9.722,8.469 11.519,-0.937 20.242,12.767 23.879,22.706 1.627,-3.368 3.241,-6.744 4.842,-10.131 C 139.27,5.19 132.694,-2.762 122.679,-5.691 m 24.282,-21.43 c -7.407,6.486 -14.87,12.915 -22.318,19.356 9.175,2.808 16.519,10.771 18.055,20.245 4.371,-9.296 8.675,-18.639 13.026,-27.958 -0.599,-5.225 -3.548,-9.712 -8.763,-11.643 m 16.362,-14.032 c -0.175,-0.035 -0.351,-0.045 -0.526,-0.051 -4.533,4.113 -9.128,8.166 -13.731,12.211 4.117,1.67 7.38,5.479 8.407,9.774 3.034,-6.467 6.103,-12.914 9.256,-19.31 -0.33,-0.573 -0.745,-1.105 -1.285,-1.55 -0.618,-0.507 -1.331,-0.914 -2.121,-1.074 m 1.535,-1.94 c 0.834,0.368 1.593,0.856 2.067,1.282 0.347,0.311 0.645,0.662 0.916,1.03 1.582,-3.184 3.18,-6.357 4.812,-9.51 -2.577,2.42 -5.183,4.812 -7.795,7.198 m -16.572,10.188 c 4.424,-3.767 8.874,-7.499 13.382,-11.146 0.178,-1.368 -0.125,-2.678 -0.939,-3.889 -0.439,-0.652 -0.98,-1.227 -1.644,-1.656 -0.127,-0.083 -0.262,-0.144 -0.397,-0.207 -5.812,2.075 -11.647,4.092 -17.491,6.086 4.084,1.64 6.784,6.285 7.089,10.812 m -24.239,21.315 c 7.336,-6.602 14.714,-13.168 22.205,-19.588 0.037,-2.545 -0.646,-5.014 -2.318,-7.089 -1.966,-2.438 -4.394,-2.936 -7.114,-3.954 -8.37,2.828 -16.767,5.588 -25.167,8.334 7.747,4.74 12.442,13.29 12.394,22.297 M 93.042,-27.816 c -7.48,2.44 -14.954,4.886 -22.409,7.367 l -7.527,2.506 c 6.009,2.691 12.241,9.721 15.147,13.703 5.676,7.778 8.633,17.031 8.269,26.574 2.82,-2.524 5.628,-5.038 8.404,-7.544 5.262,-4.751 10.528,-9.537 15.803,-14.33 -2.496,-12.16 -6.041,-22.619 -17.687,-28.276 m 19.275,26.837 c 3.269,-2.969 6.537,-5.939 9.821,-8.902 -0.121,-9.667 -5.153,-18.212 -13.698,-22.954 -3.809,1.243 -7.616,2.483 -11.423,3.724 10.054,4.562 14.105,17.584 15.3,28.132 m -2.348,78.487 c 4.196,-8.029 8.383,-16.063 12.52,-24.123 -0.104,-0.073 -0.194,-0.167 -0.243,-0.296 C 117.06,39.524 103.49,21.749 86.769,26.824 86.415,26.931 86.12,26.875 85.895,26.726 80.089,32.118 74.387,37.558 68.777,43.07 c 20.85,-4.377 35.104,17.018 41.192,34.438 m 66.084,-136.026 c -5.079,0.291 -10.165,0.515 -15.256,0.706 0.244,1.602 -0.148,3.296 -0.978,4.716 5.396,-1.66 10.8,-3.294 16.223,-4.851 0.004,-0.19 0.007,-0.38 0.011,-0.571 m 1.165,-2.26 c 0.075,0.003 0.13,0.031 0.198,0.045 0.236,-0.047 0.481,-0.051 0.716,-0.011 0.022,-0.041 0.043,-0.083 0.065,-0.123 0.248,-0.454 1.035,-0.146 0.852,0.359 -0.022,0.059 -0.045,0.117 -0.066,0.176 0.288,0.267 0.479,0.652 0.472,1.173 -0.551,37.369 -0.654,74.735 -0.117,112.105 0.537,37.383 2.839,74.671 3.93,112.028 0.052,1.752 -2.557,1.707 -2.694,0 -1.425,-17.672 -2.493,-35.418 -3.296,-53.202 -0.139,-0.01 -0.277,-0.064 -0.395,-0.193 -20.009,-21.835 -44.375,-23.841 -72.032,-17.769 -5.852,11.083 -11.844,22.085 -18.078,32.931 -0.694,1.209 -2.486,0.142 -1.858,-1.086 5.869,-11.47 11.837,-22.887 17.811,-34.3 C 92.06,72.517 73.659,61.592 51.888,61.405 51.55,61.402 51.301,61.278 51.123,61.099 42.365,70.404 33.89,80.025 25.746,90.142 24.963,91.116 23.338,89.849 24.016,88.807 31.29,77.643 39.943,67.328 49.263,57.538 42.661,30.962 25.847,10.577 -2.076,4.65 -2.501,4.559 -2.758,4.32 -2.889,4.026 L -37.026,15.39 c -1.784,0.594 -2.549,-2.22 -0.775,-2.81 11.747,-3.909 23.494,-7.819 35.241,-11.728 7.159,-20.643 3.387,-41.392 -12.737,-56.503 -9.95,0.132 -19.9,0.264 -29.85,0.395 -1.931,0.026 -1.932,-2.974 0,-2.999 9.597,-0.126 19.195,-0.25 28.793,-0.376 0.512,-0.48 1.344,-0.663 2.029,-0.079 0.019,0.017 0.036,0.035 0.056,0.052 26.768,-0.351 53.536,-0.705 80.304,-1.047 36.977,-0.472 74.223,-2.277 111.183,-1.073"
         style="fill:#1d1d1b;fill-opacity:1;fill-rule:nonzero;stroke:none"
         id="path154" />
    </g>
  </g>
</svg>
