<?xml version="1.0" encoding="UTF-8" standalone="no"?>
<!-- Created with Inkscape (http://www.inkscape.org/) -->

<svg
   xmlns:dc="http://purl.org/dc/elements/1.1/"
   xmlns:cc="http://creativecommons.org/ns#"
   xmlns:rdf="http://www.w3.org/1999/02/22-rdf-syntax-ns#"
   xmlns:svg="http://www.w3.org/2000/svg"
   xmlns="http://www.w3.org/2000/svg"
   xmlns:sodipodi="http://sodipodi.sourceforge.net/DTD/sodipodi-0.dtd"
   xmlns:inkscape="http://www.inkscape.org/namespaces/inkscape"
   width="219.25999"
   height="191.61501"
   id="svg4537"
   version="1.1"
   inkscape:version="0.48.4 r9939"
   sodipodi:docname="zombie-hands.svg">
  <defs
     id="defs4539">
    <clipPath
       clipPathUnits="userSpaceOnUse"
       id="clipPath4566">
      <rect
         style="fill:#ffffff;fill-opacity:1"
         id="rect4568"
         width="468.57144"
         height="265.14285"
         x="-202.49565"
         y="-269.48248"
         transform="scale(1,-1)" />
    </clipPath>
    <clipPath
       clipPathUnits="userSpaceOnUse"
       id="clipPath4570">
      <rect
         style="fill:#ffffff;fill-opacity:1"
         id="rect4572"
         width="468.57144"
         height="265.14285"
         x="-469.68277"
         y="-296.81485"
         transform="scale(1,-1)" />
    </clipPath>
    <clipPath
       clipPathUnits="userSpaceOnUse"
       id="clipPath4574">
      <rect
         style="fill:#ffffff;fill-opacity:1"
         id="rect4576"
         width="468.57144"
         height="265.14285"
         x="-86.646362"
         y="-286.35526"
         transform="scale(1,-1)" />
    </clipPath>
    <clipPath
       clipPathUnits="userSpaceOnUse"
       id="clipPath1338">
      <path
         inkscape:connector-curvature="0"
         d="m 356.234,673.874 c 0,0 -43.216,-13.297 3.912,-8.8 l 0,0 0.195,-2.542 c 0,0 -8.995,-5.671 -7.626,-10.364 l 0,0 c 0.795,-2.73 2.848,-0.036 4.888,2.658 l 0,0 c 1.468,1.938 2.929,3.876 3.912,3.795 l 0,0 c 2.346,-0.195 0.782,-5.866 0.782,-5.866 l 0,0 3.715,0.195 -3.076,-5.512 c -0.516,-0.924 0.444,-1.972 1.411,-1.54 l 0,0 8.314,3.727 -2.347,-5.084 -10.364,-16.23 -9.777,-4.694 -5.476,-1.173 -40.088,8.683 c -1.207,0.262 -2.346,-0.658 -2.346,-1.892 l 0,0 c 0,-0.888 0.604,-1.662 1.466,-1.877 l 0,0 39.208,-9.802 7.997,-14.576 c 2.72,-4.957 4.352,-10.438 4.786,-16.076 l 0,0 0.319,-4.157 9.386,-13.493 -4.107,11.342 -1.727,9.558 c -0.796,4.407 -0.722,8.926 0.215,13.303 l 0,0 0.34,1.583 2.181,-3.03 c 1.994,-2.768 2.884,-6.181 2.496,-9.571 l 0,0 -0.57,-4.998 4.497,4.889 -1.369,-11.342 5.28,8.408 -1.173,-17.794 5.671,16.034 0,-10.168 -1.397,-9.012 -13.558,-11.993 16.238,5.521 c 2.973,1.595 6.665,0.779 8.689,-1.92 l 0,0 1.7,1.059 -5.415,24.362 11.929,-15.839 5.279,-21.511 1.595,13.001 c 0.51,4.164 2.119,3.878 6.227,3.034 l 0,0 2.347,3.129 -16.817,17.013 11.146,-3.324 10.755,-5.671 -9.973,10.95 17.013,-6.061 -25.616,15.252 8.212,3.325 16.427,-5.28 -1.174,-6.356 9.778,2.836 c 0,0 21.51,-42.63 47.127,3.911 l 0,0 c 0,0 -9.973,-7.235 -17.209,-2.151 l 0,0 c -7.235,5.084 -17.012,7.822 -23.857,4.497 l 0,0 c -6.843,-3.324 -10.168,5.867 -10.168,5.867 l 0,0 -3.325,-5.084 -11.928,4.888 c 0,0 5.475,1.76 5.671,11.929 l 0,0 c 0.196,10.169 5.475,-1.955 5.475,-1.955 l 0,0 c 0,0 9.778,-9.583 8.801,-7.627 l 0,0 c -0.979,1.956 -5.868,12.906 -5.868,12.906 l 0,0 17.209,-10.95 c 0,0 -5.671,13.101 -5.085,12.711 l 0,0 c 0.543,-0.362 13.937,-13.075 15.973,-16.858 l 0,0 c -0.586,2.929 -2.216,11.863 -5.378,16.948 l 0,0 c 0.654,-0.624 1.381,-1.292 2.147,-1.96 l 0,0 c 3.268,-2.847 7.254,-5.696 9.356,-5.17 l 0,0 c 0,0 -8.409,9.777 -8.8,16.23 l 0,0 c 0,0 9.387,-10.364 17.209,-3.716 l 0,0 c 0,0 -20.142,11.538 -20.142,15.449 l 0,0 c 0,3.911 -25.617,5.28 -28.55,4.498 l 0,0 c -2.934,-0.782 -0.587,10.56 -11.343,11.342 l 0,0 c 0,0 13.302,-0.562 20.534,-4.302 l 0,0 c 0,0 -12.125,14.275 -19.36,12.906 l 0,0 c -7.235,-1.369 -6.258,-2.738 -6.258,-2.738 l 0,0 c 0,0 -9.191,-0.391 -7.822,0.195 l 0,0 c 1.369,0.587 15.449,6.845 15.449,6.845 l 0,0 -13.493,-1.956 -10.755,0 -2.933,3.911 c 0,0 16.621,0.196 17.403,2.347 l 0,0 c 0.782,2.151 -21.706,3.716 -21.706,3.716 l 0,0 c 0,0 -5.671,13.101 -1.564,16.23 l 0,0 c 2.533,1.93 7.97,1.701 12.314,1.473 l 0,0 c 2.697,-0.141 4.973,-0.284 5.872,0.092 l 0,0 c 0,0 -9.386,5.084 -13.688,6.648 l 0,0 c -0.626,0.227 -1.418,0.372 -2.341,0.372 l 0,0 c -5.427,10e-4 -15.423,-4.994 -23.277,-27.553 m 97.384,-72.549 c 0,0.179 -0.091,0.43 -0.258,0.742 l 0,0 c 0.176,-0.884 0.258,-1.222 0.258,-0.742"
         id="path1340" />
    </clipPath>
    <linearGradient
       x1="0"
       y1="0"
       x2="1"
       y2="0"
       gradientUnits="userSpaceOnUse"
       gradientTransform="matrix(175.4082,0,0,-175.4082,302.26288,624.78149)"
       spreadMethod="pad"
       id="linearGradient1346">
      <stop
         style="stop-opacity:1;stop-color:#000000"
         offset="0"
         id="stop1348" />
      <stop
         style="stop-opacity:1;stop-color:#1a2e00"
         offset="1"
         id="stop1350" />
    </linearGradient>
  </defs>
  <sodipodi:namedview
     id="base"
     pagecolor="#ffffff"
     bordercolor="#666666"
     borderopacity="1.0"
     inkscape:pageopacity="0.0"
     inkscape:pageshadow="2"
     inkscape:zoom="0.35"
     inkscape:cx="-961.81827"
     inkscape:cy="894.63707"
     inkscape:document-units="px"
     inkscape:current-layer="layer1"
     showgrid="false"
     fit-margin-top="0"
     fit-margin-left="0"
     fit-margin-right="0"
     fit-margin-bottom="0"
     inkscape:window-width="1920"
     inkscape:window-height="1056"
     inkscape:window-x="0"
     inkscape:window-y="24"
     inkscape:window-maximized="1" />
  <metadata
     id="metadata4542">
    <rdf:RDF>
      <cc:Work
         rdf:about="">
        <dc:format>image/svg+xml</dc:format>
        <dc:type
           rdf:resource="http://purl.org/dc/dcmitype/StillImage" />
        <dc:title></dc:title>
      </cc:Work>
    </rdf:RDF>
  </metadata>
  <g
     inkscape:label="Layer 1"
     inkscape:groupmode="layer"
     id="layer1"
     transform="translate(-1336.8183,-1235.3842)">
    <g
       transform="matrix(1.25,0,0,-1.25,958.98952,2112.168)"
       id="g1334">
      <g
         id="g1336"
         clip-path="url(#clipPath1338)">
        <g
           id="g1342">
          <g
             id="g1344">
            <path
               inkscape:connector-curvature="0"
               d="m 356.234,673.874 c 0,0 -43.216,-13.297 3.912,-8.8 l 0,0 0.195,-2.542 c 0,0 -8.995,-5.671 -7.626,-10.364 l 0,0 c 0.795,-2.73 2.848,-0.036 4.888,2.658 l 0,0 c 1.468,1.938 2.929,3.876 3.912,3.795 l 0,0 c 2.346,-0.195 0.782,-5.866 0.782,-5.866 l 0,0 3.715,0.195 -3.076,-5.512 c -0.516,-0.924 0.444,-1.972 1.411,-1.54 l 0,0 8.314,3.727 -2.347,-5.084 -10.364,-16.23 -9.777,-4.694 -5.476,-1.173 -40.088,8.683 c -1.207,0.262 -2.346,-0.658 -2.346,-1.892 l 0,0 c 0,-0.888 0.604,-1.662 1.466,-1.877 l 0,0 39.208,-9.802 7.997,-14.576 c 2.72,-4.957 4.352,-10.438 4.786,-16.076 l 0,0 0.319,-4.157 9.386,-13.493 -4.107,11.342 -1.727,9.558 c -0.796,4.407 -0.722,8.926 0.215,13.303 l 0,0 0.34,1.583 2.181,-3.03 c 1.994,-2.768 2.884,-6.181 2.496,-9.571 l 0,0 -0.57,-4.998 4.497,4.889 -1.369,-11.342 5.28,8.408 -1.173,-17.794 5.671,16.034 0,-10.168 -1.397,-9.012 -13.558,-11.993 16.238,5.521 c 2.973,1.595 6.665,0.779 8.689,-1.92 l 0,0 1.7,1.059 -5.415,24.362 11.929,-15.839 5.279,-21.511 1.595,13.001 c 0.51,4.164 2.119,3.878 6.227,3.034 l 0,0 2.347,3.129 -16.817,17.013 11.146,-3.324 10.755,-5.671 -9.973,10.95 17.013,-6.061 -25.616,15.252 8.212,3.325 16.427,-5.28 -1.174,-6.356 9.778,2.836 c 0,0 21.51,-42.63 47.127,3.911 l 0,0 c 0,0 -9.973,-7.235 -17.209,-2.151 l 0,0 c -7.235,5.084 -17.012,7.822 -23.857,4.497 l 0,0 c -6.843,-3.324 -10.168,5.867 -10.168,5.867 l 0,0 -3.325,-5.084 -11.928,4.888 c 0,0 5.475,1.76 5.671,11.929 l 0,0 c 0.196,10.169 5.475,-1.955 5.475,-1.955 l 0,0 c 0,0 9.778,-9.583 8.801,-7.627 l 0,0 c -0.979,1.956 -5.868,12.906 -5.868,12.906 l 0,0 17.209,-10.95 c 0,0 -5.671,13.101 -5.085,12.711 l 0,0 c 0.543,-0.362 13.937,-13.075 15.973,-16.858 l 0,0 c -0.586,2.929 -2.216,11.863 -5.378,16.948 l 0,0 c 0.654,-0.624 1.381,-1.292 2.147,-1.96 l 0,0 c 3.268,-2.847 7.254,-5.696 9.356,-5.17 l 0,0 c 0,0 -8.409,9.777 -8.8,16.23 l 0,0 c 0,0 9.387,-10.364 17.209,-3.716 l 0,0 c 0,0 -20.142,11.538 -20.142,15.449 l 0,0 c 0,3.911 -25.617,5.28 -28.55,4.498 l 0,0 c -2.934,-0.782 -0.587,10.56 -11.343,11.342 l 0,0 c 0,0 13.302,-0.562 20.534,-4.302 l 0,0 c 0,0 -12.125,14.275 -19.36,12.906 l 0,0 c -7.235,-1.369 -6.258,-2.738 -6.258,-2.738 l 0,0 c 0,0 -9.191,-0.391 -7.822,0.195 l 0,0 c 1.369,0.587 15.449,6.845 15.449,6.845 l 0,0 -13.493,-1.956 -10.755,0 -2.933,3.911 c 0,0 16.621,0.196 17.403,2.347 l 0,0 c 0.782,2.151 -21.706,3.716 -21.706,3.716 l 0,0 c 0,0 -5.671,13.101 -1.564,16.23 l 0,0 c 2.533,1.93 7.97,1.701 12.314,1.473 l 0,0 c 2.697,-0.141 4.973,-0.284 5.872,0.092 l 0,0 c 0,0 -9.386,5.084 -13.688,6.648 l 0,0 c -0.626,0.227 -1.418,0.372 -2.341,0.372 l 0,0 c -5.427,10e-4 -15.423,-4.994 -23.277,-27.553 m 97.384,-72.549 c 0,0.179 -0.091,0.43 -0.258,0.742 l 0,0 c 0.176,-0.884 0.258,-1.222 0.258,-0.742"
               style="fill:url(#linearGradient1346);stroke:none"
               id="path1352" />
          </g>
        </g>
      </g>
    </g>
  </g>
</svg>
