<?xml version="1.0" encoding="UTF-8" standalone="no"?>
<!-- Created with Inkscape (http://www.inkscape.org/) -->

<svg
   xmlns:dc="http://purl.org/dc/elements/1.1/"
   xmlns:cc="http://creativecommons.org/ns#"
   xmlns:rdf="http://www.w3.org/1999/02/22-rdf-syntax-ns#"
   xmlns:svg="http://www.w3.org/2000/svg"
   xmlns="http://www.w3.org/2000/svg"
   xmlns:sodipodi="http://sodipodi.sourceforge.net/DTD/sodipodi-0.dtd"
   xmlns:inkscape="http://www.inkscape.org/namespaces/inkscape"
   width="587.10345"
   height="329.08762"
   id="svg4537"
   version="1.1"
   inkscape:version="0.48.4 r9939"
   sodipodi:docname="New document 3">
  <defs
     id="defs4539">
    <clipPath
       clipPathUnits="userSpaceOnUse"
       id="clipPath4566">
      <rect
         style="fill:#ffffff;fill-opacity:1"
         id="rect4568"
         width="468.57144"
         height="265.14285"
         x="-202.49565"
         y="-269.48248"
         transform="scale(1,-1)" />
    </clipPath>
    <clipPath
       clipPathUnits="userSpaceOnUse"
       id="clipPath4570">
      <rect
         style="fill:#ffffff;fill-opacity:1"
         id="rect4572"
         width="468.57144"
         height="265.14285"
         x="-469.68277"
         y="-296.81485"
         transform="scale(1,-1)" />
    </clipPath>
    <clipPath
       clipPathUnits="userSpaceOnUse"
       id="clipPath4574">
      <rect
         style="fill:#ffffff;fill-opacity:1"
         id="rect4576"
         width="468.57144"
         height="265.14285"
         x="-86.646362"
         y="-286.35526"
         transform="scale(1,-1)" />
    </clipPath>
  </defs>
  <sodipodi:namedview
     id="base"
     pagecolor="#ffffff"
     bordercolor="#666666"
     borderopacity="1.0"
     inkscape:pageopacity="0.0"
     inkscape:pageshadow="2"
     inkscape:zoom="0.35"
     inkscape:cx="257.12316"
     inkscape:cy="184.54381"
     inkscape:document-units="px"
     inkscape:current-layer="layer1"
     showgrid="false"
     fit-margin-top="0"
     fit-margin-left="0"
     fit-margin-right="0"
     fit-margin-bottom="0"
     inkscape:window-width="1920"
     inkscape:window-height="1056"
     inkscape:window-x="0"
     inkscape:window-y="24"
     inkscape:window-maximized="1" />
  <metadata
     id="metadata4542">
    <rdf:RDF>
      <cc:Work
         rdf:about="">
        <dc:format>image/svg+xml</dc:format>
        <dc:type
           rdf:resource="http://purl.org/dc/dcmitype/StillImage" />
        <dc:title></dc:title>
      </cc:Work>
    </rdf:RDF>
  </metadata>
  <g
     inkscape:label="Layer 1"
     inkscape:groupmode="layer"
     id="layer1"
     transform="translate(-117.87684,-387.81837)">
    <g
       id="g1302"
       transform="matrix(1.25,0,0,-1.25,226.18479,743.4215)"
       clip-path="url(#clipPath4574)">
      <path
         inkscape:connector-curvature="0"
         d="M 0,0 19.093,14.638 -3.768,42.851 c -3.958,4.883 -3.416,12.007 1.236,16.235 l 12.715,11.56 7.158,26.074 c 1.065,3.882 -0.256,8.028 -3.372,10.578 L -1.909,120.289 C -3.756,115.488 -1.93,110.053 2.44,107.34 l 1.697,-1.053 0,-9.655 c 0,-3.451 -1.929,-6.612 -4.998,-8.19 -3.725,-1.916 -8.233,-1.429 -11.463,1.239 l -6.297,5.203 c -1.947,1.607 -3.247,3.864 -3.662,6.354 l -2.308,13.85 c -0.544,3.264 0.522,6.589 2.862,8.929 l 9,9.001 3.108,-1.451 c 3.993,-1.863 8.861,0.238 9.929,4.514 0.209,0.835 0.169,1.392 -0.308,1.392 -1.256,0 -7.469,1.652 -11.574,2.783 -2.329,0.642 -4.81,0.071 -6.633,-1.514 l -8.821,-7.67 c -1.833,-1.594 -2.885,-3.904 -2.885,-6.333 l 0,-19.908 c 0,-2.098 -1.517,-3.888 -3.586,-4.233 -2.266,-0.378 -4.427,1.095 -4.904,3.342 l -3.111,14.669 c -0.322,1.516 -0.233,3.092 0.257,4.563 l 4.415,13.244 c 0.373,1.119 0.947,2.161 1.695,3.075 l 8.166,9.981 c 1.256,1.535 1.256,3.743 0,5.279 -1.774,2.168 -5.14,2.004 -6.694,-0.328 l -8.331,-12.495 -10.135,-14.937 c -1.232,-1.816 -1.541,-4.105 -0.832,-6.182 l 8.422,-24.705 -4.136,-0.552 c -3.247,-0.433 -6.406,1.267 -7.816,4.224 -3.285,6.886 -8.672,18.724 -7.778,20.513 0.92,1.84 1.84,12.995 2.279,19.035 0.18,2.475 1.451,4.723 3.471,6.165 l 0.66,0.472 c 2.673,1.91 3.057,5.736 0.814,8.138 l -0.918,0.984 c -1.929,2.067 -5.276,1.814 -6.873,-0.52 l -5.161,-7.543 -4.111,-22.316 c -0.224,-1.218 -0.074,-2.475 0.431,-3.605 l 12.59,-28.177 -0.335,-5.361 c -0.169,-2.711 -2.418,-4.823 -5.134,-4.823 l -7.896,0 c 0,0 -5.729,-1.273 -3.183,5.092 1.14,2.849 2.407,6.719 3.46,10.125 1.156,3.742 -1.776,7.483 -5.686,7.277 l -10e-4,0 c -2.406,-0.127 -4.389,-1.933 -4.74,-4.317 l -1.939,-13.187 c -0.403,-2.739 0.513,-5.507 2.471,-7.465 l 6.39,-6.39 c 1.665,-1.664 3.901,-2.63 6.253,-2.702 l 17.341,-0.525 23.017,-17.493 c 5.787,-4.398 10.444,-10.111 13.587,-16.665 L 0,0 z"
         style="fill:#000000;fill-opacity:1;fill-rule:nonzero;stroke:none"
         id="path1304" />
    </g>
    <g
       id="g1306"
       transform="matrix(1.25,0,0,-1.25,704.98029,756.49599)"
       clip-path="url(#clipPath4570)">
      <path
         inkscape:connector-curvature="0"
         d="m 0,0 -50.162,-11.528 1.477,82.964 c 0.252,6.173 -4.112,8.778 -10.249,5.814 l -18.76,-2.377 -14.895,17.457 c -4.788,0.692 -6.931,4.782 -5.342,10.354 l 7.785,13.948 c 6.162,-1.012 8.554,-6.436 5.891,-13.086 l -1.05,-2.622 10.464,-7.446 c 2.674,-1.904 -9.001,-6.16 -4.808,-3.533 4.898,3.068 8.71,8.114 9.848,12.891 l 2.184,9.163 c 0.666,2.793 0.351,5.333 -0.892,7.184 l -7.158,10.659 c -1.75,2.605 -5.133,3.798 -9.171,3.155 l -16.891,-2.688 -2.399,-4.27 c -3.153,-5.609 -11.145,-9.615 -16.636,-7.811 -1.098,0.361 -1.592,0.813 -0.947,1.369 1.684,1.45 8.197,9.585 12.295,14.777 2.268,2.874 5.723,4.945 9.183,5.572 l 15.525,2.812 c 2.994,0.542 5.67,-0.109 7.375,-1.756 l 13.131,-12.683 c 1.301,-1.257 3.651,-0.978 5.537,0.623 2.028,1.72 2.872,4.413 1.942,6.151 l -6.262,11.701 c -0.667,1.246 -1.722,2.207 -3.065,2.783 l -12.853,5.506 c -1.153,0.494 -2.458,0.768 -3.856,0.805 l -16.409,0.434 c -2.724,0.073 -4.604,1.83 -4.445,4.198 0.224,3.336 4.24,6.113 7.882,5.549 l 17.896,-2.776 18.498,-2.713 c 2.055,-0.302 3.624,-1.587 4.266,-3.469 l 7.378,-21.612 3.236,2.931 c 2.469,2.235 3.757,5.574 3.227,8.325 -1.243,6.457 -3.592,17.541 -5.159,18.074 -1.638,0.557 -8.488,7.373 -12.337,11.289 -1.617,1.645 -4.02,2.406 -6.609,2.072 l -0.859,-0.111 c -3.55,-0.458 -6.412,2.17 -5.982,5.587 l 0.176,1.395 c 0.368,2.923 3.497,4.948 6.353,4.188 l 8.765,-2.33 15.055,-12.756 c 0.763,-0.646 1.288,-1.551 1.512,-2.596 l 5.437,-25.433 2.705,-2.747 c 1.34,-1.362 3.637,-0.919 5.234,0.964 l 4.488,5.291 c 0,0 3.625,2.998 -0.346,4.81 -1.835,0.837 -4.224,2.182 -6.339,3.436 -2.379,1.411 -2.29,5.502 0.156,7.846 1.473,1.411 3.399,1.563 4.61,0.395 l 6.427,-6.199 c 1.281,-1.236 1.878,-3.268 1.626,-5.501 l -0.832,-7.348 c -0.218,-1.927 -1.014,-3.883 -2.237,-5.479 l -9.59,-12.518 10.931,-20.815 c -1.628,-7.127 -3.132,-13.585 -2.005,-19.328 L 0,0 z"
         style="fill:#000000;fill-opacity:1;fill-rule:nonzero;stroke:none"
         id="path1308" />
    </g>
    <g
       id="g1310"
       transform="matrix(1.25,0,0,-1.25,370.99641,722.3305)"
       clip-path="url(#clipPath4566)">
      <path
         inkscape:connector-curvature="0"
         d="m 0,0 50.162,-11.528 -1.477,117.964 c -0.252,6.173 4.112,8.778 10.249,5.814 l 18.761,-2.377 14.894,17.457 c 4.788,0.692 6.931,4.782 5.343,10.354 l -7.786,13.948 c -6.162,-1.013 -8.554,-6.436 -5.891,-13.086 l 1.05,-2.622 -10.464,-7.447 c -2.674,-1.903 9.001,-6.16 4.808,-3.532 -4.898,3.068 -8.71,8.114 -9.848,12.891 l -2.184,9.163 c -0.665,2.793 -0.351,5.333 0.892,7.184 l 7.158,10.659 c 1.75,2.605 5.133,3.798 9.171,3.155 l 16.891,-2.688 2.4,-4.269 c 3.152,-5.61 11.144,-9.616 16.635,-7.812 1.098,0.361 1.592,0.813 0.947,1.369 -1.684,1.45 -8.197,9.586 -12.294,14.777 -2.269,2.874 -5.724,4.945 -9.184,5.572 l -15.525,2.811 c -2.994,0.543 -5.67,-0.108 -7.375,-1.755 L 64.202,163.319 c -1.301,-1.257 -3.65,-0.978 -5.537,0.623 -2.028,1.72 -2.872,4.413 -1.942,6.151 l 6.262,11.701 c 0.667,1.246 1.722,2.207 3.065,2.783 l 12.853,5.506 c 1.153,0.494 2.458,0.768 3.856,0.805 l 16.409,0.434 c 2.724,0.073 4.604,1.83 4.445,4.197 -0.224,3.337 -4.24,6.114 -7.882,5.55 L 77.835,198.294 59.337,195.58 c -2.055,-0.302 -3.624,-1.587 -4.266,-3.469 l -7.378,-21.612 -3.236,2.931 c -2.469,2.235 -3.757,5.574 -3.227,8.325 1.243,6.458 3.592,17.541 5.159,18.074 1.638,0.557 8.488,7.373 12.337,11.289 1.617,1.645 4.02,2.406 6.609,2.072 l 0.859,-0.111 c 3.55,-0.457 6.412,2.17 5.982,5.587 L 72,220.061 c -0.368,2.923 -3.496,4.948 -6.353,4.188 l -8.765,-2.33 -15.055,-12.756 c -0.763,-0.646 -1.288,-1.551 -1.512,-2.596 l -5.437,-25.432 -2.705,-2.748 c -1.34,-1.362 -3.637,-0.919 -5.234,0.964 l -4.488,5.291 c 0,0 -3.625,2.998 0.346,4.81 1.835,0.837 4.224,2.183 6.339,3.436 2.379,1.411 2.29,5.502 -0.156,7.846 -1.473,1.411 -3.399,1.563 -4.61,0.395 l -6.427,-6.2 c -1.28,-1.235 -1.878,-3.267 -1.625,-5.5 l 0.831,-7.348 c 0.218,-1.927 1.014,-3.883 2.237,-5.479 l 9.59,-12.518 -10.931,-20.815 c 1.628,-7.127 3.132,-13.585 2.005,-19.328 L 0,0 z"
         style="fill:#000000;fill-opacity:1;fill-rule:nonzero;stroke:none"
         id="path1312" />
    </g>
  </g>
</svg>
